<svg xmlns="http://www.w3.org/2000/svg" xmlns:xlink="http://www.w3.org/1999/xlink" version="1.1" id="Layer_2_00000046325692693065476410000012145902284419143095_" x="0px" y="0px" viewBox="0 0 420 660" style="enable-background:new 0 0 420 660;" xml:space="preserve">
<style type="text/css">
	.st0{fill:#494949;}
	.st1{fill:#545454;}
	.st2{fill:none;stroke:#E3E3E3;stroke-width:0.5;stroke-miterlimit:10;}
	.st3{fill:#00693C;}
	.st4{fill:#E3E3E3;}
	.st5{fill-rule:evenodd;clip-rule:evenodd;fill:#B6B6BA;}
</style>
<g>
	<path class="st0" d="M259,484.3h3.4c2.2,0,3.8,0.8,3.8,3s-1.6,3.2-3.8,3.2h-2v4.5H259L259,484.3L259,484.3z M262.1,489.4   c1.7,0,2.6-0.7,2.6-2.1s-0.9-1.9-2.6-1.9h-1.8v4H262.1z M262,490.1l1.1-0.7l3.3,5.6h-1.5L262,490.1L262,490.1z"/>
	<path class="st0" d="M268,491.1c0-2.6,1.7-4.2,3.6-4.2c2,0,3.2,1.5,3.2,3.7c0,0.3,0,0.6-0.1,0.8h-5.3c0.1,1.7,1.1,2.8,2.6,2.8   c0.8,0,1.4-0.2,2-0.6l0.5,0.9c-0.7,0.5-1.5,0.8-2.6,0.8C269.7,495.2,268,493.7,268,491.1L268,491.1z M273.5,490.4   c0-1.6-0.7-2.5-2-2.5c-1.1,0-2.1,0.9-2.3,2.5H273.5L273.5,490.4z"/>
	<path class="st0" d="M276.7,491.1c0-2.6,1.8-4.2,3.8-4.2c1,0,1.8,0.4,2.3,0.9l-0.7,0.9c-0.5-0.4-1-0.7-1.6-0.7   c-1.4,0-2.5,1.2-2.5,3.1s1,3,2.5,3c0.7,0,1.4-0.4,1.9-0.8l0.6,0.9c-0.7,0.6-1.6,1-2.6,1C278.3,495.2,276.7,493.7,276.7,491.1   L276.7,491.1z"/>
	<path class="st0" d="M284.5,491.1c0-2.6,1.7-4.2,3.7-4.2s3.7,1.5,3.7,4.2s-1.7,4.1-3.7,4.1S284.5,493.7,284.5,491.1z M290.4,491.1   c0-1.8-0.9-3.1-2.3-3.1s-2.3,1.2-2.3,3.1s0.9,3,2.3,3S290.4,492.9,290.4,491.1z"/>
	<path class="st0" d="M294.5,487.1h1.1l0.1,1.5h0c0.5-1,1.4-1.6,2.3-1.6c0.4,0,0.6,0,0.9,0.2l-0.2,1.2c-0.3-0.1-0.5-0.1-0.8-0.1   c-0.7,0-1.5,0.5-2,1.8v5.1h-1.3V487.1L294.5,487.1z"/>
	<path class="st0" d="M300.1,491.1c0-2.6,1.6-4.2,3.4-4.2c0.9,0,1.5,0.4,2.2,0.9l-0.1-1.4v-3.1h1.3V495h-1.1l-0.1-0.9h0   c-0.6,0.6-1.5,1.1-2.4,1.1C301.4,495.2,300.1,493.7,300.1,491.1L300.1,491.1z M305.7,493v-4.2c-0.7-0.6-1.3-0.8-1.9-0.8   c-1.3,0-2.3,1.2-2.3,3c0,1.9,0.8,3,2.2,3C304.4,494.1,305,493.7,305.7,493L305.7,493z"/>
	<path class="st0" d="M309.9,493c0-1.7,1.5-2.6,4.9-3c0-1-0.3-2-1.6-2c-0.9,0-1.7,0.4-2.4,0.9l-0.5-0.9c0.7-0.5,1.8-1,3.1-1   c1.9,0,2.8,1.3,2.8,3.3v4.9H315l-0.1-1h0c-0.8,0.6-1.6,1.1-2.6,1.1C310.9,495.2,309.9,494.4,309.9,493L309.9,493z M314.7,493.1   v-2.2c-2.7,0.3-3.6,1-3.6,2c0,0.9,0.6,1.3,1.4,1.3S314,493.8,314.7,493.1L314.7,493.1z"/>
	<path class="st0" d="M319.2,487.1h1.1l0.1,1.5h0c0.5-1,1.4-1.6,2.3-1.6c0.4,0,0.6,0,0.9,0.2l-0.2,1.2c-0.3-0.1-0.5-0.1-0.8-0.1   c-0.7,0-1.5,0.5-2,1.8v5.1h-1.3V487.1L319.2,487.1z"/>
	<path class="st0" d="M325.5,487.1h1.1l0.1,1.1h0c0.7-0.8,1.5-1.4,2.5-1.4c1.2,0,1.9,0.6,2.2,1.5c0.8-0.9,1.6-1.5,2.6-1.5   c1.6,0,2.4,1.1,2.4,3.1v5h-1.3v-4.9c0-1.5-0.5-2.1-1.5-2.1c-0.6,0-1.2,0.4-2,1.2v5.8h-1.3v-4.9c0-1.5-0.5-2.1-1.5-2.1   c-0.6,0-1.2,0.4-2,1.2v5.8h-1.3L325.5,487.1L325.5,487.1z"/>
	<path class="st0" d="M339.1,491.1c0-2.6,1.7-4.2,3.6-4.2c2,0,3.2,1.5,3.2,3.7c0,0.3,0,0.6-0.1,0.8h-5.3c0.1,1.7,1.1,2.8,2.6,2.8   c0.8,0,1.4-0.2,2-0.6l0.5,0.9c-0.7,0.5-1.5,0.8-2.6,0.8C340.8,495.2,339.1,493.7,339.1,491.1L339.1,491.1z M344.6,490.4   c0-1.6-0.7-2.5-2-2.5c-1.1,0-2.1,0.9-2.3,2.5H344.6L344.6,490.4z"/>
</g>
<g>
	<g>
		<path class="st0" d="M27.8,189.3c0-0.7,0.5-1.1,1.1-1.1s1.1,0.5,1.1,1.1s-0.5,1.1-1.1,1.1S27.8,190,27.8,189.3z M28.1,198.9    l0.2-6.9h1l0.2,6.9l0,1.7h-1.5L28.1,198.9z"/>
		<path class="st0" d="M33.1,185.3h3.5c2.4,0,4.1,0.8,4.1,2.9c0,1.2-0.6,2.2-1.7,2.6v0.1c1.4,0.3,2.4,1.2,2.4,2.9    c0,2.3-1.8,3.5-4.5,3.5h-3.8L33.1,185.3L33.1,185.3z M36.4,190.4c2,0,2.9-0.8,2.9-1.9c0-1.4-1-1.9-2.8-1.9h-1.8v3.9    C34.6,190.4,36.4,190.4,36.4,190.4z M36.7,196c2,0,3.2-0.7,3.2-2.3c0-1.5-1.2-2.1-3.2-2.1h-2.1v4.5H36.7z"/>
		<path class="st0" d="M43.3,185.6c0-0.6,0.5-1,1-1s1,0.4,1,1s-0.5,1-1,1S43.3,186.2,43.3,185.6z M43.6,188.4h1.5v8.8h-1.5V188.4z"/>
		<path class="st0" d="M47.4,192.8c0-2.9,1.9-4.6,4-4.6c2.2,0,3.5,1.6,3.5,4.1c0,0.3,0,0.6-0.1,0.9h-5.9c0.1,1.9,1.2,3.1,2.9,3.1    c0.8,0,1.5-0.3,2.2-0.7l0.5,1c-0.8,0.5-1.7,0.9-2.9,0.9C49.3,197.4,47.4,195.7,47.4,192.8L47.4,192.8z M53.6,192.1    c0-1.8-0.8-2.7-2.2-2.7c-1.2,0-2.3,1-2.5,2.7C48.9,192.1,53.6,192.1,53.6,192.1z"/>
		<path class="st0" d="M57.1,188.4h1.2l0.1,1.3h0c0.8-0.8,1.8-1.5,3-1.5c1.9,0,2.7,1.2,2.7,3.4v5.6h-1.5v-5.4c0-1.6-0.5-2.4-1.7-2.4    c-0.9,0-1.5,0.5-2.4,1.4v6.4h-1.5L57.1,188.4L57.1,188.4z"/>
		<path class="st0" d="M65.7,188.4h1.5l1.7,5c0.3,0.9,0.6,1.8,0.8,2.6h0.1c0.3-0.8,0.6-1.7,0.8-2.6l1.7-5h1.5l-3.1,8.8h-1.7    L65.7,188.4L65.7,188.4z"/>
		<path class="st0" d="M74.8,192.8c0-2.9,1.9-4.6,4-4.6c2.2,0,3.5,1.6,3.5,4.1c0,0.3,0,0.6-0.1,0.9h-5.9c0.1,1.9,1.2,3.1,2.9,3.1    c0.8,0,1.5-0.3,2.2-0.7l0.5,1c-0.8,0.5-1.7,0.9-2.9,0.9C76.6,197.4,74.7,195.7,74.8,192.8L74.8,192.8z M80.9,192.1    c0-1.8-0.8-2.7-2.2-2.7c-1.2,0-2.3,1-2.5,2.7H80.9z"/>
		<path class="st0" d="M84.4,188.4h1.2l0.1,1.3h0.1c0.8-0.8,1.8-1.5,3-1.5c1.9,0,2.7,1.2,2.7,3.4v5.6H90v-5.4c0-1.6-0.5-2.4-1.7-2.4    c-0.9,0-1.5,0.5-2.4,1.4v6.4h-1.5L84.4,188.4L84.4,188.4z"/>
		<path class="st0" d="M94.1,185.6c0-0.6,0.4-1,1-1s1,0.4,1,1s-0.4,1-1,1S94.1,186.2,94.1,185.6z M94.3,188.4h1.5v8.8h-1.5V188.4z"/>
		<path class="st0" d="M98.2,192.8c0-2.9,1.8-4.6,3.8-4.6c1,0,1.7,0.4,2.5,1l-0.1-1.5v-3.4h1.5v12.9h-1.2l-0.1-1h-0.1    c-0.7,0.7-1.6,1.3-2.7,1.3C99.6,197.5,98.2,195.8,98.2,192.8L98.2,192.8z M104.4,195v-4.6c-0.8-0.7-1.4-0.9-2.2-0.9    c-1.4,0-2.5,1.4-2.5,3.4c0,2.1,0.9,3.4,2.4,3.4C102.9,196.2,103.6,195.8,104.4,195z"/>
		<path class="st0" d="M108.2,192.8c0-2.9,1.9-4.6,4.1-4.6s4.1,1.7,4.1,4.6s-1.9,4.6-4.1,4.6S108.2,195.8,108.2,192.8z M114.8,192.8    c0-2-1-3.4-2.5-3.4s-2.5,1.4-2.5,3.4s1,3.4,2.5,3.4S114.8,194.8,114.8,192.8z"/>
		<path class="st0" d="M118.8,196.3c0-0.7,0.5-1.1,1.1-1.1s1.1,0.5,1.1,1.1s-0.5,1.1-1.1,1.1S118.8,197,118.8,196.3z M119.1,186.8    l0-1.7h1.5l0,1.7l-0.2,6.9h-1L119.1,186.8z"/>
	</g>
	<g>
		<path class="st1" d="M27.8,210.3h1.4V221h-1.4V210.3z"/>
		<path class="st1" d="M32.6,213.1h1.1l0.1,1.1h0c0.8-0.7,1.6-1.3,2.7-1.3c1.7,0,2.4,1.1,2.4,3.1v5h-1.3v-4.9c0-1.5-0.5-2.1-1.5-2.1    c-0.8,0-1.4,0.4-2.2,1.2v5.8h-1.3L32.6,213.1L32.6,213.1z"/>
		<path class="st1" d="M41.5,222.6c0-0.7,0.4-1.3,1.2-1.8v-0.1c-0.4-0.2-0.7-0.7-0.7-1.3c0-0.7,0.5-1.2,0.9-1.5v-0.1    c-0.5-0.4-1-1.2-1-2.1c0-1.7,1.4-2.8,3-2.8c0.4,0,0.8,0.1,1.1,0.2h2.8v1h-1.6c0.4,0.4,0.7,1,0.7,1.6c0,1.7-1.3,2.8-2.9,2.8    c-0.4,0-0.8-0.1-1.2-0.3c-0.3,0.2-0.5,0.5-0.5,0.9c0,0.5,0.3,0.9,1.4,0.9h1.5c1.8,0,2.8,0.6,2.8,1.9c0,1.5-1.6,2.7-4,2.7    C42.9,224.7,41.5,223.9,41.5,222.6L41.5,222.6z M47.5,222.1c0-0.7-0.6-1-1.6-1h-1.4c-0.3,0-0.7,0-1-0.1c-0.6,0.4-0.8,0.9-0.8,1.3    c0,0.9,0.9,1.4,2.3,1.4S47.5,223,47.5,222.1L47.5,222.1z M46.5,215.7c0-1.1-0.8-1.9-1.7-1.9s-1.7,0.7-1.7,1.9s0.8,1.9,1.7,1.9    S46.5,216.9,46.5,215.7z"/>
		<path class="st1" d="M51,213.1h1.1l0.1,1.4h0c0.5-1,1.4-1.6,2.3-1.6c0.3,0,0.6,0,0.8,0.2l-0.2,1.2c-0.3-0.1-0.5-0.1-0.8-0.1    c-0.7,0-1.5,0.5-2,1.8v5.1H51V213.1L51,213.1z"/>
		<path class="st1" d="M56.5,217.1c0-2.6,1.7-4.2,3.6-4.2c2,0,3.2,1.4,3.2,3.7c0,0.3,0,0.6-0.1,0.8h-5.3c0.1,1.7,1.1,2.8,2.6,2.8    c0.8,0,1.4-0.2,2-0.6l0.5,0.9c-0.7,0.5-1.5,0.8-2.6,0.8C58.2,221.2,56.6,219.7,56.5,217.1L56.5,217.1z M62.1,216.4    c0-1.6-0.7-2.5-2-2.5c-1.1,0-2.1,0.9-2.3,2.5H62.1L62.1,216.4z"/>
		<path class="st1" d="M65,220.1l0.7-0.9c0.7,0.6,1.4,0.9,2.3,0.9c1,0,1.6-0.6,1.6-1.2c0-0.8-0.9-1.2-1.8-1.5    c-1.1-0.4-2.4-0.9-2.4-2.3c0-1.3,1-2.2,2.7-2.2c1,0,1.8,0.4,2.5,0.9l-0.6,0.9c-0.6-0.4-1.1-0.7-1.8-0.7c-1,0-1.5,0.5-1.5,1.1    c0,0.8,0.9,1,1.8,1.4c1.1,0.4,2.4,0.9,2.4,2.4c0,1.3-1,2.4-2.9,2.4C66.8,221.2,65.7,220.8,65,220.1L65,220.1z"/>
		<path class="st1" d="M72.8,217.1c0-2.6,1.7-4.2,3.6-4.2c2,0,3.2,1.4,3.2,3.7c0,0.3,0,0.6-0.1,0.8h-5.3c0.1,1.7,1.1,2.8,2.6,2.8    c0.8,0,1.4-0.2,2-0.6l0.5,0.9c-0.7,0.5-1.5,0.8-2.6,0.8C74.4,221.2,72.8,219.7,72.8,217.1L72.8,217.1z M78.3,216.4    c0-1.6-0.7-2.5-2-2.5c-1.1,0-2.1,0.9-2.3,2.5H78.3L78.3,216.4z"/>
		<path class="st1" d="M85.1,220.1l0.7-0.9c0.7,0.6,1.4,0.9,2.3,0.9c1,0,1.6-0.6,1.6-1.2c0-0.8-0.9-1.2-1.8-1.5    c-1.1-0.4-2.4-0.9-2.4-2.3c0-1.3,1-2.2,2.7-2.2c1,0,1.8,0.4,2.5,0.9l-0.6,0.9c-0.6-0.4-1.1-0.7-1.8-0.7c-1,0-1.5,0.5-1.5,1.1    c0,0.8,0.9,1,1.8,1.4c1.1,0.4,2.4,0.9,2.4,2.4c0,1.3-1,2.4-2.9,2.4C86.9,221.2,85.8,220.8,85.1,220.1L85.1,220.1z"/>
		<path class="st1" d="M93.3,218.1v-5h1.3v4.9c0,1.5,0.4,2.1,1.5,2.1c0.8,0,1.4-0.4,2.1-1.3v-5.6h1.3v7.9h-1.1l-0.1-1.2h0    c-0.7,0.9-1.5,1.4-2.6,1.4C94.1,221.2,93.3,220.1,93.3,218.1L93.3,218.1z"/>
		<path class="st1" d="M102.1,220.1l0.7-0.9c0.7,0.6,1.4,0.9,2.3,0.9c1,0,1.6-0.6,1.6-1.2c0-0.8-0.9-1.2-1.8-1.5    c-1.1-0.4-2.4-0.9-2.4-2.3c0-1.3,1-2.2,2.7-2.2c1,0,1.8,0.4,2.5,0.9l-0.6,0.9c-0.6-0.4-1.1-0.7-1.8-0.7c-1,0-1.5,0.5-1.5,1.1    c0,0.8,0.9,1,1.8,1.4c1.1,0.4,2.4,0.9,2.4,2.4c0,1.3-1,2.4-2.9,2.4C103.9,221.2,102.8,220.8,102.1,220.1L102.1,220.1z"/>
		<path class="st1" d="M113.8,217.1c0-2.6,1.6-4.2,3.4-4.2c0.9,0,1.5,0.4,2.2,0.9l-0.1-1.4v-3.1h1.3V221h-1.1l-0.1-0.9h0    c-0.6,0.6-1.5,1.1-2.4,1.1C115,221.2,113.8,219.7,113.8,217.1L113.8,217.1z M119.4,219v-4.2c-0.7-0.6-1.3-0.8-1.9-0.8    c-1.3,0-2.3,1.2-2.3,3c0,1.9,0.8,3,2.2,3C118.1,220.1,118.7,219.7,119.4,219L119.4,219z"/>
		<path class="st1" d="M123.5,219c0-1.7,1.5-2.6,4.9-3c0-1-0.3-2-1.6-2c-0.9,0-1.7,0.4-2.4,0.9l-0.5-0.9c0.7-0.5,1.8-1,3.1-1    c1.9,0,2.8,1.3,2.8,3.3v4.9h-1.1l-0.1-0.9h0c-0.8,0.6-1.6,1.1-2.6,1.1C124.5,221.2,123.5,220.4,123.5,219L123.5,219z M128.4,219.1    v-2.2c-2.7,0.3-3.6,1-3.6,2c0,0.9,0.6,1.3,1.4,1.3S127.6,219.8,128.4,219.1L128.4,219.1z"/>
		<path class="st1" d="M132.9,218.6v-4.4h-1.2v-1l1.2-0.1l0.2-2.2h1.1v2.2h2.1v1.1h-2.1v4.4c0,1,0.3,1.5,1.2,1.5    c0.3,0,0.6-0.1,0.9-0.2l0.3,1c-0.4,0.1-1,0.3-1.5,0.3C133.5,221.2,132.9,220.1,132.9,218.6L132.9,218.6z"/>
		<path class="st1" d="M138,217.1c0-2.6,1.7-4.2,3.7-4.2s3.7,1.5,3.7,4.2s-1.7,4.1-3.7,4.1S138,219.7,138,217.1z M144,217.1    c0-1.8-0.9-3.1-2.3-3.1s-2.3,1.2-2.3,3.1s0.9,3,2.3,3S144,218.9,144,217.1z"/>
		<path class="st1" d="M147.2,220.1l0.7-0.9c0.7,0.6,1.4,0.9,2.3,0.9c1,0,1.6-0.6,1.6-1.2c0-0.8-0.9-1.2-1.8-1.5    c-1.1-0.4-2.4-0.9-2.4-2.3c0-1.3,1-2.2,2.7-2.2c1,0,1.9,0.4,2.5,0.9l-0.6,0.9c-0.6-0.4-1.1-0.7-1.8-0.7c-1,0-1.5,0.5-1.5,1.1    c0,0.8,0.9,1,1.8,1.4c1.1,0.4,2.4,0.9,2.4,2.4c0,1.3-1,2.4-2.9,2.4C149,221.2,147.9,220.8,147.2,220.1L147.2,220.1z"/>
		<path class="st1" d="M158.9,219c0-1.7,1.5-2.6,4.9-3c0-1-0.3-2-1.6-2c-0.9,0-1.7,0.4-2.4,0.9l-0.5-0.9c0.7-0.5,1.8-1,3.1-1    c1.9,0,2.8,1.3,2.8,3.3v4.9H164l-0.1-0.9h0c-0.8,0.6-1.6,1.1-2.6,1.1C159.9,221.2,158.9,220.4,158.9,219L158.9,219z M163.8,219.1    v-2.2c-2.7,0.3-3.6,1-3.6,2c0,0.9,0.6,1.3,1.4,1.3S163,219.8,163.8,219.1L163.8,219.1z"/>
		<path class="st1" d="M171.6,217.1c0-2.6,1.8-4.2,3.8-4.2c1,0,1.8,0.4,2.3,0.9l-0.7,0.9c-0.5-0.4-0.9-0.7-1.6-0.7    c-1.4,0-2.5,1.2-2.5,3.1s1,3,2.4,3c0.7,0,1.4-0.4,1.9-0.8l0.6,0.9c-0.7,0.6-1.6,1-2.6,1C173.2,221.2,171.6,219.7,171.6,217.1    L171.6,217.1z"/>
		<path class="st1" d="M179.3,217.1c0-2.6,1.7-4.2,3.7-4.2s3.7,1.5,3.7,4.2s-1.7,4.1-3.7,4.1S179.3,219.7,179.3,217.1z M185.3,217.1    c0-1.8-0.9-3.1-2.3-3.1s-2.3,1.2-2.3,3.1s0.9,3,2.3,3S185.3,218.9,185.3,217.1z"/>
		<path class="st1" d="M189.4,213.1h1.1l0.1,1.1h0c0.8-0.7,1.6-1.3,2.7-1.3c1.7,0,2.4,1.1,2.4,3.1v5h-1.3v-4.9    c0-1.5-0.4-2.1-1.5-2.1c-0.8,0-1.4,0.4-2.2,1.2v5.8h-1.3L189.4,213.1L189.4,213.1z"/>
		<path class="st1" d="M199.2,218.6v-4.4H198v-1l1.2-0.1l0.2-2.2h1.1v2.2h2.1v1.1h-2.1v4.4c0,1,0.3,1.5,1.2,1.5    c0.3,0,0.6-0.1,0.9-0.2l0.3,1c-0.4,0.1-1,0.3-1.5,0.3C199.8,221.2,199.2,220.1,199.2,218.6L199.2,218.6z"/>
		<path class="st1" d="M204.9,210.6c0-0.5,0.4-0.9,0.9-0.9s0.9,0.3,0.9,0.9s-0.4,0.9-0.9,0.9S204.9,211.1,204.9,210.6z M205.1,213.1    h1.3v7.9h-1.3V213.1z"/>
		<path class="st1" d="M209.8,213.1h1.1l0.1,1.1h0c0.8-0.7,1.6-1.3,2.7-1.3c1.7,0,2.4,1.1,2.4,3.1v5h-1.3v-4.9    c0-1.5-0.4-2.1-1.5-2.1c-0.8,0-1.4,0.4-2.2,1.2v5.8h-1.3L209.8,213.1L209.8,213.1z"/>
		<path class="st1" d="M219.2,218.1v-5h1.3v4.9c0,1.5,0.4,2.1,1.5,2.1c0.8,0,1.4-0.4,2.1-1.3v-5.6h1.3v7.9h-1.1l-0.1-1.2h0    c-0.7,0.9-1.5,1.4-2.6,1.4C220,221.2,219.2,220.1,219.2,218.1L219.2,218.1z"/>
		<path class="st1" d="M228.3,219c0-1.7,1.5-2.6,4.9-3c0-1-0.3-2-1.6-2c-0.9,0-1.8,0.4-2.4,0.9l-0.5-0.9c0.7-0.5,1.8-1,3.1-1    c1.9,0,2.8,1.3,2.8,3.3v4.9h-1.1l-0.1-0.9h0c-0.8,0.6-1.6,1.1-2.6,1.1C229.3,221.2,228.3,220.4,228.3,219L228.3,219z M233.2,219.1    v-2.2c-2.7,0.3-3.6,1-3.6,2c0,0.9,0.6,1.3,1.4,1.3S232.4,219.8,233.2,219.1L233.2,219.1z"/>
		<path class="st1" d="M237.1,217.1c0-2.6,1.8-4.2,3.8-4.2c1,0,1.8,0.4,2.3,0.9l-0.7,0.9c-0.5-0.4-0.9-0.7-1.6-0.7    c-1.4,0-2.5,1.2-2.5,3.1s1,3,2.5,3c0.7,0,1.4-0.4,1.9-0.8l0.6,0.9c-0.7,0.6-1.6,1-2.6,1C238.7,221.2,237.1,219.7,237.1,217.1    L237.1,217.1z"/>
		<path class="st1" d="M245.5,210.6c0-0.5,0.4-0.9,0.9-0.9s0.9,0.3,0.9,0.9s-0.4,0.9-0.9,0.9S245.5,211.1,245.5,210.6z M245.8,213.1    h1.3v7.9h-1.3V213.1z"/>
		<path class="st1" d="M249.8,217.1c0-2.6,1.7-4.2,3.7-4.2s3.7,1.5,3.7,4.2s-1.7,4.1-3.7,4.1S249.8,219.7,249.8,217.1L249.8,217.1z     M255.8,217.1c0-1.8-0.9-3.1-2.3-3.1s-2.3,1.2-2.3,3.1s0.9,3,2.3,3S255.8,218.9,255.8,217.1z M252.6,211l2.3-2.7l0.9,0.9l-2.6,2.5    L252.6,211z"/>
		<path class="st1" d="M259.9,213.1h1.1l0.1,1.1h0c0.8-0.7,1.6-1.3,2.7-1.3c1.7,0,2.4,1.1,2.4,3.1v5h-1.3v-4.9    c0-1.5-0.5-2.1-1.5-2.1c-0.8,0-1.4,0.4-2.2,1.2v5.8h-1.3L259.9,213.1L259.9,213.1z"/>
		<path class="st1" d="M269.2,214.3c0-0.6,0.4-1,1-1s1,0.4,1,1s-0.4,1-1,1S269.2,214.9,269.2,214.3z M269.2,220.2c0-0.6,0.4-1,1-1    s1,0.4,1,1s-0.4,1-1,1S269.2,220.8,269.2,220.2z"/>
	</g>
	<g>
		<path class="st1" d="M27.8,271.3h1.4V282h-1.4V271.3z"/>
		<path class="st1" d="M32.6,274.1h1.1l0.1,1.1h0c0.8-0.7,1.6-1.3,2.7-1.3c1.7,0,2.4,1.1,2.4,3.1v5h-1.3v-4.9c0-1.5-0.5-2.1-1.5-2.1    c-0.8,0-1.4,0.4-2.2,1.2v5.8h-1.3L32.6,274.1L32.6,274.1z"/>
		<path class="st1" d="M41.5,283.5c0-0.7,0.4-1.3,1.2-1.8v-0.1c-0.4-0.2-0.7-0.7-0.7-1.3c0-0.7,0.5-1.2,0.9-1.5v-0.1    c-0.5-0.4-1-1.2-1-2.1c0-1.7,1.4-2.8,3-2.8c0.4,0,0.8,0.1,1.1,0.2h2.8v1h-1.6c0.4,0.4,0.7,1,0.7,1.6c0,1.7-1.3,2.8-2.9,2.8    c-0.4,0-0.8-0.1-1.2-0.3c-0.3,0.2-0.5,0.5-0.5,0.9c0,0.5,0.3,0.9,1.4,0.9h1.5c1.8,0,2.8,0.6,2.8,1.9c0,1.5-1.6,2.7-4,2.7    C42.9,285.7,41.5,284.9,41.5,283.5L41.5,283.5z M47.5,283.1c0-0.7-0.6-1-1.6-1h-1.4c-0.3,0-0.7,0-1-0.1c-0.6,0.4-0.8,0.9-0.8,1.3    c0,0.9,0.9,1.4,2.3,1.4S47.5,283.9,47.5,283.1L47.5,283.1z M46.5,276.7c0-1.1-0.8-1.9-1.7-1.9s-1.7,0.7-1.7,1.9s0.8,1.9,1.7,1.9    S46.5,277.9,46.5,276.7z"/>
		<path class="st1" d="M51,274.1h1.1l0.1,1.5h0c0.5-1,1.4-1.6,2.3-1.6c0.3,0,0.6,0,0.8,0.2l-0.2,1.2c-0.3-0.1-0.5-0.1-0.8-0.1    c-0.7,0-1.5,0.5-2,1.8v5.1H51V274.1L51,274.1z"/>
		<path class="st1" d="M56.5,278.1c0-2.6,1.7-4.2,3.6-4.2c2,0,3.2,1.5,3.2,3.7c0,0.3,0,0.6-0.1,0.8h-5.3c0.1,1.7,1.1,2.8,2.6,2.8    c0.8,0,1.4-0.2,2-0.6l0.5,0.9c-0.7,0.5-1.5,0.8-2.6,0.8C58.2,282.2,56.6,280.7,56.5,278.1L56.5,278.1z M62.1,277.4    c0-1.6-0.7-2.5-2-2.5c-1.1,0-2.1,0.9-2.3,2.5H62.1L62.1,277.4z"/>
		<path class="st1" d="M65,281.1l0.7-0.9c0.7,0.6,1.4,0.9,2.3,0.9c1,0,1.6-0.6,1.6-1.2c0-0.8-0.9-1.2-1.8-1.5    c-1.1-0.4-2.4-1-2.4-2.3c0-1.3,1-2.2,2.7-2.2c1,0,1.8,0.4,2.5,0.9l-0.6,0.9c-0.6-0.4-1.1-0.7-1.8-0.7c-1,0-1.5,0.5-1.5,1.1    c0,0.8,0.9,1,1.8,1.4c1.1,0.4,2.4,0.9,2.4,2.4c0,1.3-1,2.4-2.9,2.4C66.8,282.2,65.7,281.8,65,281.1L65,281.1z"/>
		<path class="st1" d="M72.8,278.1c0-2.6,1.7-4.2,3.6-4.2c2,0,3.2,1.5,3.2,3.7c0,0.3,0,0.6-0.1,0.8h-5.3c0.1,1.7,1.1,2.8,2.6,2.8    c0.8,0,1.4-0.2,2-0.6l0.5,0.9c-0.7,0.5-1.5,0.8-2.6,0.8C74.4,282.2,72.8,280.7,72.8,278.1L72.8,278.1z M78.3,277.4    c0-1.6-0.7-2.5-2-2.5c-1.1,0-2.1,0.9-2.3,2.5H78.3L78.3,277.4z"/>
		<path class="st1" d="M85.1,281.1l0.7-0.9c0.7,0.6,1.4,0.9,2.3,0.9c1,0,1.6-0.6,1.6-1.2c0-0.8-0.9-1.2-1.8-1.5    c-1.1-0.4-2.4-1-2.4-2.3c0-1.3,1-2.2,2.7-2.2c1,0,1.8,0.4,2.5,0.9l-0.6,0.9c-0.6-0.4-1.1-0.7-1.8-0.7c-1,0-1.5,0.5-1.5,1.1    c0,0.8,0.9,1,1.8,1.4c1.1,0.4,2.4,0.9,2.4,2.4c0,1.3-1,2.4-2.9,2.4C86.9,282.2,85.8,281.8,85.1,281.1L85.1,281.1z"/>
		<path class="st1" d="M93.3,279.1v-5h1.3v4.9c0,1.5,0.4,2.1,1.5,2.1c0.8,0,1.4-0.4,2.1-1.3v-5.6h1.3v7.9h-1.1l-0.1-1.2h0    c-0.7,0.9-1.5,1.4-2.6,1.4C94.1,282.2,93.3,281.1,93.3,279.1L93.3,279.1z"/>
		<path class="st1" d="M106.9,277.6v-6.3h1.4v6.3c0,2.6,1.1,3.4,2.5,3.4s2.5-0.8,2.5-3.4v-6.3h1.3v6.3c0,3.4-1.7,4.6-3.8,4.6    S106.9,281,106.9,277.6z"/>
		<path class="st1" d="M117.1,281.1l0.7-0.9c0.7,0.6,1.4,0.9,2.3,0.9c1,0,1.6-0.6,1.6-1.2c0-0.8-0.9-1.2-1.8-1.5    c-1.1-0.4-2.4-1-2.4-2.3c0-1.3,1-2.2,2.7-2.2c1,0,1.8,0.4,2.5,0.9l-0.6,0.9c-0.6-0.4-1.1-0.7-1.8-0.7c-1,0-1.5,0.5-1.5,1.1    c0,0.8,0.9,1,1.8,1.4c1.1,0.4,2.4,0.9,2.4,2.4c0,1.3-1,2.4-2.9,2.4C118.9,282.2,117.8,281.8,117.1,281.1L117.1,281.1z"/>
		<path class="st1" d="M125.3,279.1v-5h1.3v4.9c0,1.5,0.4,2.1,1.5,2.1c0.8,0,1.4-0.4,2.1-1.3v-5.6h1.3v7.9h-1.1l-0.1-1.2h0    c-0.7,0.9-1.5,1.4-2.6,1.4C126.1,282.2,125.3,281.1,125.3,279.1L125.3,279.1z"/>
		<path class="st1" d="M134.5,280c0-1.7,1.5-2.6,4.9-3c0-1-0.3-2-1.6-2c-0.9,0-1.7,0.4-2.4,0.9l-0.5-0.9c0.7-0.5,1.8-1,3.1-1    c1.9,0,2.8,1.3,2.8,3.3v4.9h-1.1l-0.1-1h0c-0.8,0.6-1.6,1.1-2.6,1.1C135.5,282.2,134.5,281.4,134.5,280L134.5,280z M139.3,280.1    v-2.2c-2.7,0.3-3.6,1-3.6,2c0,0.9,0.6,1.3,1.4,1.3S138.6,280.8,139.3,280.1L139.3,280.1z"/>
		<path class="st1" d="M143.8,274.1h1.1l0.1,1.5h0c0.6-1,1.4-1.6,2.3-1.6c0.4,0,0.6,0,0.9,0.2l-0.2,1.2c-0.3-0.1-0.4-0.1-0.8-0.1    c-0.7,0-1.5,0.5-2,1.8v5.1h-1.3V274.1L143.8,274.1z"/>
		<path class="st1" d="M149.9,271.6c0-0.5,0.4-0.9,0.9-0.9s0.9,0.3,0.9,0.9s-0.4,0.9-0.9,0.9S149.9,272.1,149.9,271.6z M150.1,274.1    h1.3v7.9h-1.3V274.1z"/>
		<path class="st1" d="M154.2,278.1c0-2.6,1.7-4.2,3.7-4.2s3.7,1.5,3.7,4.2s-1.7,4.1-3.7,4.1S154.2,280.7,154.2,278.1z M160.1,278.1    c0-1.8-0.9-3.1-2.3-3.1s-2.3,1.2-2.3,3.1s0.9,3,2.3,3S160.1,279.9,160.1,278.1z"/>
	</g>
	<path class="st2" d="M30.8,292h360c1.7,0,3,1.3,3,3v34c0,1.7-1.3,3-3,3h-360c-1.7,0-3-1.3-3-3v-34C27.8,293.3,29.1,292,30.8,292z"/>
	<g>
		<path class="st1" d="M27.8,346.8h1.4v10.7h-1.4V346.8z"/>
		<path class="st1" d="M32.6,349.6h1.1l0.1,1.1h0c0.8-0.7,1.6-1.3,2.7-1.3c1.7,0,2.4,1.1,2.4,3.1v5h-1.3v-4.9c0-1.5-0.5-2.1-1.5-2.1    c-0.8,0-1.4,0.4-2.2,1.2v5.8h-1.3L32.6,349.6L32.6,349.6z"/>
		<path class="st1" d="M41.5,359c0-0.7,0.4-1.3,1.2-1.8v-0.1c-0.4-0.2-0.7-0.7-0.7-1.3c0-0.7,0.5-1.2,0.9-1.5v-0.1    c-0.5-0.4-1-1.2-1-2.1c0-1.7,1.4-2.8,3-2.8c0.4,0,0.8,0.1,1.1,0.2h2.8v1h-1.6c0.4,0.4,0.7,1,0.7,1.6c0,1.7-1.3,2.8-2.9,2.8    c-0.4,0-0.8-0.1-1.2-0.3c-0.3,0.2-0.5,0.5-0.5,0.9c0,0.5,0.3,0.9,1.4,0.9h1.5c1.8,0,2.8,0.6,2.8,1.9c0,1.5-1.6,2.7-4,2.7    C42.9,361.2,41.5,360.4,41.5,359L41.5,359z M47.5,358.6c0-0.7-0.6-1-1.6-1h-1.4c-0.3,0-0.7,0-1-0.1c-0.6,0.4-0.8,0.9-0.8,1.3    c0,0.9,0.9,1.4,2.3,1.4S47.5,359.4,47.5,358.6L47.5,358.6z M46.5,352.2c0-1.1-0.8-1.9-1.7-1.9s-1.7,0.7-1.7,1.9s0.8,1.9,1.7,1.9    S46.5,353.4,46.5,352.2z"/>
		<path class="st1" d="M51,349.6h1.1l0.1,1.5h0c0.5-1,1.4-1.6,2.3-1.6c0.3,0,0.6,0,0.8,0.2l-0.2,1.2c-0.3-0.1-0.5-0.1-0.8-0.1    c-0.7,0-1.5,0.5-2,1.8v5.1H51V349.6L51,349.6z"/>
		<path class="st1" d="M56.5,353.6c0-2.6,1.7-4.2,3.6-4.2c2,0,3.2,1.5,3.2,3.7c0,0.3,0,0.6-0.1,0.8h-5.3c0.1,1.7,1.1,2.8,2.6,2.8    c0.8,0,1.4-0.2,2-0.6l0.5,0.9c-0.7,0.5-1.5,0.8-2.6,0.8C58.2,357.7,56.6,356.2,56.5,353.6L56.5,353.6z M62.1,352.9    c0-1.6-0.7-2.5-2-2.5c-1.1,0-2.1,0.9-2.3,2.5H62.1L62.1,352.9z"/>
		<path class="st1" d="M65,356.6l0.7-0.9c0.7,0.5,1.4,0.9,2.3,0.9c1,0,1.6-0.5,1.6-1.2c0-0.8-0.9-1.2-1.8-1.5    c-1.1-0.4-2.4-1-2.4-2.3c0-1.3,1-2.2,2.7-2.2c1,0,1.8,0.4,2.5,0.9l-0.6,0.9c-0.6-0.4-1.1-0.7-1.8-0.7c-1,0-1.5,0.5-1.5,1.1    c0,0.8,0.9,1,1.8,1.4c1.1,0.4,2.4,0.9,2.4,2.4c0,1.3-1,2.4-2.9,2.4C66.8,357.7,65.7,357.3,65,356.6L65,356.6z"/>
		<path class="st1" d="M72.8,353.6c0-2.6,1.7-4.2,3.6-4.2c2,0,3.2,1.5,3.2,3.7c0,0.3,0,0.6-0.1,0.8h-5.3c0.1,1.7,1.1,2.8,2.6,2.8    c0.8,0,1.4-0.2,2-0.6l0.5,0.9c-0.7,0.5-1.5,0.8-2.6,0.8C74.4,357.7,72.8,356.2,72.8,353.6L72.8,353.6z M78.3,352.9    c0-1.6-0.7-2.5-2-2.5c-1.1,0-2.1,0.9-2.3,2.5H78.3L78.3,352.9z"/>
		<path class="st1" d="M85.1,356.6l0.7-0.9c0.7,0.5,1.4,0.9,2.3,0.9c1,0,1.6-0.5,1.6-1.2c0-0.8-0.9-1.2-1.8-1.5    c-1.1-0.4-2.4-1-2.4-2.3c0-1.3,1-2.2,2.7-2.2c1,0,1.8,0.4,2.5,0.9l-0.6,0.9c-0.6-0.4-1.1-0.7-1.8-0.7c-1,0-1.5,0.5-1.5,1.1    c0,0.8,0.9,1,1.8,1.4c1.1,0.4,2.4,0.9,2.4,2.4c0,1.3-1,2.4-2.9,2.4C86.9,357.7,85.8,357.3,85.1,356.6L85.1,356.6z"/>
		<path class="st1" d="M93.3,354.6v-5h1.3v4.9c0,1.5,0.4,2.1,1.5,2.1c0.8,0,1.4-0.4,2.1-1.3v-5.6h1.3v7.9h-1.1l-0.1-1.2h0    c-0.7,0.9-1.5,1.4-2.6,1.4C94.1,357.7,93.3,356.6,93.3,354.6L93.3,354.6z"/>
		<path class="st1" d="M106.4,352.2c0-3.5,2-5.6,4.8-5.6c1.3,0,2.3,0.6,2.9,1.3l-0.8,0.9c-0.6-0.6-1.3-1-2.2-1c-2,0-3.4,1.7-3.4,4.3    s1.3,4.4,3.3,4.4c1,0,1.8-0.5,2.5-1.2l0.8,0.9c-0.8,1-1.9,1.5-3.3,1.5C108.3,357.7,106.3,355.7,106.4,352.2L106.4,352.2z"/>
		<path class="st1" d="M116.2,353.6c0-2.6,1.7-4.2,3.7-4.2s3.7,1.5,3.7,4.2s-1.7,4.1-3.7,4.1S116.2,356.2,116.2,353.6z M122.2,353.6    c0-1.8-0.9-3.1-2.3-3.1s-2.3,1.2-2.3,3.1s0.9,3,2.3,3S122.2,355.4,122.2,353.6z"/>
		<path class="st1" d="M126.3,349.6h1.1l0.1,1.1h0c0.8-0.7,1.6-1.3,2.7-1.3c1.7,0,2.4,1.1,2.4,3.1v5h-1.3v-4.9    c0-1.5-0.4-2.1-1.5-2.1c-0.8,0-1.4,0.4-2.2,1.2v5.8h-1.3L126.3,349.6L126.3,349.6z"/>
		<path class="st1" d="M136.1,355.1v-4.4h-1.2v-1l1.2-0.1l0.2-2.2h1.1v2.2h2.1v1.1h-2.1v4.4c0,1,0.3,1.5,1.2,1.5    c0.3,0,0.6-0.1,0.9-0.2l0.3,1c-0.4,0.1-1,0.3-1.5,0.3C136.7,357.7,136.1,356.6,136.1,355.1L136.1,355.1z"/>
		<path class="st1" d="M142,349.6h1.1l0.1,1.5h0c0.6-1,1.4-1.6,2.3-1.6c0.4,0,0.6,0,0.9,0.2l-0.2,1.2c-0.3-0.1-0.4-0.1-0.8-0.1    c-0.7,0-1.5,0.5-2,1.8v5.1H142V349.6L142,349.6z"/>
		<path class="st1" d="M147.4,355.5c0-1.7,1.5-2.6,4.9-3c0-1-0.3-2-1.6-2c-0.9,0-1.7,0.4-2.4,0.9l-0.5-0.9c0.7-0.5,1.8-1,3.1-1    c1.9,0,2.8,1.3,2.8,3.3v4.9h-1.1l-0.1-1h0c-0.8,0.6-1.6,1.1-2.6,1.1C148.4,357.7,147.4,356.9,147.4,355.5L147.4,355.5z     M152.3,355.6v-2.2c-2.7,0.3-3.6,1-3.6,2c0,0.9,0.6,1.3,1.4,1.3S151.5,356.3,152.3,355.6z"/>
		<path class="st1" d="M155.9,356.6l0.7-0.9c0.7,0.5,1.4,0.9,2.3,0.9c1,0,1.6-0.5,1.6-1.2c0-0.8-0.9-1.2-1.8-1.5    c-1.1-0.4-2.4-1-2.4-2.3c0-1.3,1-2.2,2.7-2.2c1,0,1.9,0.4,2.5,0.9l-0.6,0.9c-0.6-0.4-1.1-0.7-1.8-0.7c-1,0-1.5,0.5-1.5,1.1    c0,0.8,0.9,1,1.8,1.4c1.1,0.4,2.4,0.9,2.4,2.4c0,1.3-1,2.4-2.9,2.4C157.7,357.7,156.6,357.3,155.9,356.6L155.9,356.6z"/>
		<path class="st1" d="M163.7,353.6c0-2.6,1.7-4.2,3.6-4.2c2,0,3.2,1.5,3.2,3.7c0,0.3,0,0.6-0.1,0.8H165c0.1,1.7,1.1,2.8,2.6,2.8    c0.8,0,1.4-0.2,2-0.6l0.5,0.9c-0.7,0.5-1.5,0.8-2.6,0.8C165.4,357.7,163.7,356.2,163.7,353.6L163.7,353.6z M169.2,352.9    c0-1.6-0.7-2.5-2-2.5c-1.1,0-2.1,0.9-2.3,2.5H169.2L169.2,352.9z"/>
		<path class="st1" d="M173,349.6h1.1l0.1,1.1h0c0.8-0.7,1.6-1.3,2.7-1.3c1.7,0,2.4,1.1,2.4,3.1v5H178v-4.9c0-1.5-0.4-2.1-1.5-2.1    c-0.8,0-1.4,0.4-2.2,1.2v5.8H173L173,349.6L173,349.6z M175.2,346.7c-0.5,0-0.7,0.5-0.8,1.3l-0.9-0.1c0.1-1.3,0.5-2.2,1.7-2.2    s1.6,1.4,2.3,1.4c0.5,0,0.7-0.5,0.8-1.3l0.9,0.1c-0.1,1.3-0.5,2.2-1.6,2.2S176,346.7,175.2,346.7L175.2,346.7z"/>
		<path class="st1" d="M182.1,355.5c0-1.7,1.5-2.6,4.9-3c0-1-0.3-2-1.6-2c-0.9,0-1.7,0.4-2.4,0.9l-0.5-0.9c0.7-0.5,1.8-1,3.1-1    c1.9,0,2.8,1.3,2.8,3.3v4.9h-1.1l-0.1-1h0c-0.8,0.6-1.6,1.1-2.6,1.1C183.1,357.7,182.1,356.9,182.1,355.5L182.1,355.5z     M186.9,355.6v-2.2c-2.7,0.3-3.6,1-3.6,2c0,0.9,0.6,1.3,1.4,1.3S186.2,356.3,186.9,355.6z"/>
	</g>
	<path class="st2" d="M30.8,367.5h360c1.7,0,3,1.3,3,3v34c0,1.7-1.3,3-3,3h-360c-1.7,0-3-1.3-3-3v-34   C27.8,368.8,29.1,367.5,30.8,367.5z"/>
</g>
<g>
	<path class="st3" d="M27.1,490.6c0-2.9,1.6-4.6,3.8-4.6s3.8,1.7,3.8,4.6s-1.6,4.6-3.8,4.6S27.2,493.5,27.1,490.6z M33.6,490.6   c0-2.2-1-3.6-2.6-3.6s-2.6,1.4-2.6,3.6s1,3.6,2.6,3.6S33.6,492.8,33.6,490.6z"/>
	<path class="st3" d="M37.1,493.8v-8.4h1.1v8.4c0,0.3,0.2,0.5,0.3,0.5c0.1,0,0.1,0,0.2,0l0.2,0.9c-0.2,0.1-0.3,0.1-0.6,0.1   C37.4,495.2,37.1,494.7,37.1,493.8L37.1,493.8z"/>
	<path class="st3" d="M40.2,488.5h1.2l1.2,3.8c0.2,0.6,0.4,1.3,0.6,2h0c0.2-0.6,0.4-1.3,0.6-2l1.2-3.8h1.1l-2.3,6.6h-1.3L40.2,488.5   z"/>
	<path class="st3" d="M47.8,486.4c0-0.4,0.3-0.7,0.8-0.7s0.8,0.3,0.8,0.7s-0.3,0.7-0.8,0.7S47.8,486.8,47.8,486.4z M48,488.5h1.1   v6.6H48V488.5z"/>
	<path class="st3" d="M51.4,491.8c0-2.1,1.3-3.5,2.9-3.5c0.8,0,1.3,0.3,1.8,0.8l0-1.1v-2.5h1.1v9.7h-0.9l-0.1-0.8h0   c-0.5,0.5-1.2,0.9-2,0.9C52.4,495.3,51.4,494,51.4,491.8L51.4,491.8z M56,493.4v-3.5c-0.6-0.5-1.1-0.7-1.6-0.7   c-1.1,0-1.9,1-1.9,2.5c0,1.6,0.7,2.5,1.8,2.5C54.9,494.3,55.5,494,56,493.4L56,493.4z"/>
	<path class="st3" d="M59.4,491.8c0-2.1,1.5-3.5,3-3.5c1.7,0,2.6,1.2,2.6,3.1c0,0.2,0,0.5-0.1,0.6h-4.5c0.1,1.4,0.9,2.3,2.2,2.3   c0.6,0,1.2-0.2,1.6-0.5l0.4,0.7c-0.6,0.4-1.3,0.7-2.2,0.7C60.8,495.2,59.4,494,59.4,491.8L59.4,491.8z M64,491.3c0-1.3-0.6-2-1.6-2   c-0.9,0-1.8,0.8-1.9,2H64z M61.6,486.7l1.9-2.3l0.8,0.7l-2.1,2.1L61.6,486.7L61.6,486.7z"/>
	<path class="st3" d="M70.4,488.5h0.9l0.1,1h0c0.6-0.6,1.3-1.1,2.1-1.1c1,0,1.6,0.5,1.8,1.3c0.7-0.7,1.4-1.3,2.2-1.3   c1.4,0,2,0.9,2,2.6v4.2h-1.1v-4c0-1.2-0.4-1.8-1.2-1.8c-0.5,0-1,0.3-1.7,1v4.8h-1.1v-4c0-1.2-0.4-1.8-1.2-1.8c-0.5,0-1,0.3-1.7,1   v4.8h-1.1L70.4,488.5L70.4,488.5z"/>
	<path class="st3" d="M82,486.4c0-0.4,0.3-0.7,0.8-0.7s0.8,0.3,0.8,0.7s-0.3,0.7-0.8,0.7S82,486.8,82,486.4z M82.2,488.5h1.1v6.6   h-1.1V488.5z"/>
	<path class="st3" d="M88.8,491.8c0-2.2,1.5-3.5,3.2-3.5c0.9,0,1.5,0.4,1.9,0.8l-0.6,0.7c-0.4-0.4-0.8-0.6-1.3-0.6   c-1.2,0-2.1,1-2.1,2.5s0.8,2.5,2,2.5c0.6,0,1.1-0.3,1.6-0.7l0.5,0.8c-0.6,0.5-1.3,0.8-2.1,0.8C90.2,495.3,88.8,494,88.8,491.8   L88.8,491.8z"/>
	<path class="st3" d="M95.3,491.8c0-2.2,1.4-3.5,3.1-3.5s3.1,1.3,3.1,3.5s-1.4,3.5-3.1,3.5S95.3,494,95.3,491.8z M100.2,491.8   c0-1.5-0.8-2.5-1.9-2.5s-1.9,1-1.9,2.5s0.8,2.5,1.9,2.5S100.2,493.3,100.2,491.8z"/>
	<path class="st3" d="M103.6,488.5h0.9l0.1,1h0c0.6-0.6,1.3-1.1,2.2-1.1c1.4,0,2,0.9,2,2.6v4.2h-1.1v-4c0-1.2-0.4-1.8-1.2-1.8   c-0.7,0-1.1,0.3-1.8,1v4.8h-1.1L103.6,488.5L103.6,488.5z"/>
	<path class="st3" d="M111.8,493v-3.6h-1v-0.9l1-0.1l0.1-1.9h0.9v1.9h1.8v0.9h-1.8v3.7c0,0.8,0.3,1.3,1,1.3c0.2,0,0.5-0.1,0.8-0.2   l0.2,0.8c-0.4,0.1-0.8,0.2-1.2,0.2C112.3,495.2,111.8,494.3,111.8,493L111.8,493z"/>
	<path class="st3" d="M116.7,488.5h0.9l0.1,1.2h0c0.5-0.8,1.1-1.4,1.9-1.4c0.3,0,0.5,0,0.7,0.1l-0.2,1c-0.2-0.1-0.4-0.1-0.6-0.1   c-0.6,0-1.2,0.4-1.7,1.5v4.2h-1.1L116.7,488.5L116.7,488.5z"/>
	<path class="st3" d="M121.2,493.4c0-1.4,1.2-2.2,4.1-2.5c0-0.9-0.3-1.7-1.4-1.7c-0.8,0-1.4,0.4-2,0.7l-0.4-0.8   c0.6-0.4,1.5-0.9,2.6-0.9c1.6,0,2.3,1.1,2.3,2.7v4h-0.9l-0.1-0.8h0c-0.6,0.5-1.4,1-2.2,1C122.1,495.2,121.2,494.6,121.2,493.4   L121.2,493.4z M125.3,493.5v-1.8c-2.2,0.3-3,0.8-3,1.6c0,0.8,0.5,1,1.2,1S124.6,494,125.3,493.5z"/>
	<path class="st3" d="M128.3,494.3l0.6-0.7c0.6,0.5,1.2,0.8,1.9,0.8c0.9,0,1.3-0.5,1.3-1c0-0.7-0.8-1-1.5-1.2c-0.9-0.3-2-0.8-2-1.9   c0-1.1,0.9-1.9,2.3-1.9c0.8,0,1.5,0.3,2.1,0.7l-0.5,0.7c-0.4-0.3-0.9-0.6-1.5-0.6c-0.8,0-1.2,0.4-1.2,1c0,0.6,0.7,0.9,1.5,1.1   c0.9,0.4,2,0.8,2,2c0,1.1-0.9,2-2.4,2C129.8,495.2,128.9,494.8,128.3,494.3L128.3,494.3z"/>
	<path class="st3" d="M134.7,491.8c0-2.1,1.4-3.5,3-3.5c1.7,0,2.6,1.2,2.6,3.1c0,0.2,0,0.5-0.1,0.6h-4.4c0.1,1.4,0.9,2.3,2.2,2.3   c0.6,0,1.1-0.2,1.6-0.5l0.4,0.7c-0.6,0.4-1.3,0.7-2.2,0.7C136.1,495.2,134.7,494,134.7,491.8L134.7,491.8z M139.4,491.3   c0-1.3-0.6-2-1.6-2c-0.9,0-1.8,0.8-1.9,2H139.4z"/>
	<path class="st3" d="M142.5,488.5h0.9l0.1,1h0c0.6-0.6,1.3-1.1,2.2-1.1c1.4,0,2,0.9,2,2.6v4.2h-1.1v-4c0-1.2-0.4-1.8-1.2-1.8   c-0.7,0-1.1,0.3-1.8,1v4.8h-1.1L142.5,488.5L142.5,488.5z M144.4,486.1c-0.4,0-0.6,0.4-0.6,1.1l-0.8,0c0-1,0.4-1.8,1.4-1.8   s1.3,1.1,1.9,1.1c0.4,0,0.6-0.5,0.6-1.1l0.8,0c0,1-0.4,1.8-1.4,1.8S145,486.1,144.4,486.1z"/>
	<path class="st3" d="M150,493.4c0-1.4,1.2-2.2,4.1-2.5c0-0.9-0.3-1.7-1.4-1.7c-0.8,0-1.4,0.4-2,0.7l-0.4-0.8   c0.6-0.4,1.5-0.9,2.6-0.9c1.6,0,2.3,1.1,2.3,2.7v4h-0.9l-0.1-0.8h0c-0.6,0.5-1.4,1-2.2,1C150.9,495.2,150,494.6,150,493.4   L150,493.4z M154.1,493.5v-1.8c-2.2,0.3-3,0.8-3,1.6c0,0.8,0.5,1,1.2,1S153.4,494,154.1,493.5z"/>
	<path class="st3" d="M26.4,496.5v-0.7h130.3v0.7H26.4z"/>
</g>
<g>
	<path class="st3" d="M189.1,596.8h1.4l3.3,9.9h-1.3l-1.7-5.5c-0.4-1.1-0.7-2.2-1-3.3h-0.1c-0.3,1.1-0.6,2.2-1,3.3l-1.7,5.5h-1.3   L189.1,596.8L189.1,596.8z M187.6,602.7h4.5v1h-4.5V602.7z"/>
	<path class="st3" d="M194.8,599.4l1.1-0.1h2.7v1h-3.8V599.4z M195.8,598.2c0-1.5,0.7-2.4,2.1-2.4c0.4,0,0.9,0.1,1.2,0.2l-0.3,0.9   c-0.3-0.1-0.6-0.2-0.8-0.2c-0.7,0-1,0.5-1,1.4v8.5h-1.2L195.8,598.2L195.8,598.2z"/>
	<path class="st3" d="M200.4,597.4l2.1-2.5l0.9,0.8l-2.4,2.3L200.4,597.4z M200.6,599.4h1.2v7.3h-1.2V599.4z"/>
	<path class="st3" d="M204.9,605.2V596h1.2v9.3c0,0.4,0.2,0.5,0.3,0.5c0.1,0,0.1,0,0.3,0l0.2,0.9c-0.2,0.1-0.4,0.1-0.7,0.1   C205.3,606.9,204.9,606.3,204.9,605.2z"/>
	<path class="st3" d="M209.1,597.1c0-0.5,0.4-0.8,0.9-0.8s0.9,0.3,0.9,0.8s-0.4,0.8-0.9,0.8S209.1,597.5,209.1,597.1z M209.3,599.4   h1.2v7.3h-1.2V599.4z"/>
	<path class="st3" d="M213.1,603c0-2.4,1.6-3.8,3.3-3.8c1.9,0,2.9,1.3,2.9,3.4c0,0.3,0,0.5-0.1,0.7h-4.9c0.1,1.5,1,2.5,2.4,2.5   c0.7,0,1.3-0.2,1.8-0.6l0.4,0.8c-0.6,0.4-1.4,0.8-2.4,0.8C214.6,606.9,213.1,605.4,213.1,603L213.1,603z M218.2,602.4   c0-1.5-0.7-2.3-1.8-2.3c-1,0-1.9,0.8-2.1,2.3H218.2z"/>
	<path class="st3" d="M220.8,605.8l0.6-0.8c0.6,0.5,1.3,0.9,2.2,0.9c1,0,1.4-0.5,1.4-1.1c0-0.8-0.9-1.1-1.7-1.4   c-1-0.4-2.2-0.9-2.2-2.1c0-1.2,0.9-2.1,2.5-2.1c0.9,0,1.7,0.4,2.3,0.8l-0.6,0.8c-0.5-0.4-1-0.7-1.7-0.7c-0.9,0-1.4,0.5-1.4,1   c0,0.7,0.8,1,1.6,1.3c1.1,0.4,2.2,0.8,2.2,2.2c0,1.2-0.9,2.2-2.7,2.2C222.5,606.9,221.5,606.4,220.8,605.8L220.8,605.8z"/>
	<path class="st3" d="M228,603c0-2.4,1.6-3.8,3.3-3.8c1.9,0,2.9,1.3,2.9,3.4c0,0.3,0,0.5-0.1,0.7h-4.9c0.1,1.5,1,2.5,2.4,2.5   c0.7,0,1.3-0.2,1.8-0.6l0.4,0.8c-0.6,0.4-1.4,0.8-2.4,0.8C229.5,606.9,228,605.4,228,603L228,603z M233.1,602.4   c0-1.5-0.7-2.3-1.8-2.3c-1,0-1.9,0.8-2.1,2.3H233.1L233.1,602.4z"/>
	<path class="st3" d="M185.8,608.2v-0.8h49.6v0.8H185.8z"/>
</g>

<g>
	
	
	
	
	
	
	
	
	
	
	
	
</g>
<path class="st5" d="M381.1,479h-18.4c-4.5,0-8.6,3-9.6,7.4c-1.3,6.2,3.3,11.6,9.3,11.6h19.1c5.9,0,10.5-5.5,9.2-11.6  C389.7,482,385.6,479,381.1,479z M362.4,495c3.5,0,6.3-2.8,6.3-6.3s-2.8-6.3-6.3-6.3s-6.3,2.8-6.3,6.3S358.9,495,362.4,495z"/>
</svg>