<svg xmlns="http://www.w3.org/2000/svg" id="Layer_2" data-name="Layer 2" viewBox="0 0 420 660">
  <defs>
    <style>
      .cls-1 {
        fill: #00693c;
      }

      .cls-2 {
        fill: #494949;
      }

      .cls-3 {
        fill: none;
        stroke: #e3e3e3;
        stroke-miterlimit: 10;
        stroke-width: .5px;
      }

      .cls-4 {
        fill: #545454;
      }

      .cls-5 {
        fill: #e3e3e3;
      }
    </style>
  </defs>
  <g>
    <path class="cls-2" d="M26.23,185.32h1.61l1.92,6.44c.42,1.4,.7,2.54,1.15,3.93h.07c.44-1.4,.74-2.53,1.15-3.93l1.91-6.44h1.54l-3.78,11.91h-1.76l-3.8-11.91Z"/>
    <path class="cls-2" d="M36.12,194.94c0-1.92,1.66-2.88,5.42-3.29,0-1.13-.38-2.23-1.82-2.23-1.02,0-1.94,.48-2.63,.95l-.58-1.02c.81-.53,2.05-1.15,3.46-1.15,2.15,0,3.06,1.43,3.06,3.63v5.41h-1.23l-.13-1.05h-.05c-.84,.7-1.82,1.27-2.92,1.27-1.48,0-2.58-.92-2.58-2.51Zm5.42,.14v-2.45c-2.96,.36-3.96,1.08-3.96,2.21,0,1,.68,1.41,1.55,1.41s1.55-.41,2.41-1.17Z"/>
    <path class="cls-2" d="M45.8,195.46v-11.15h1.49v11.26c0,.46,.2,.64,.42,.64,.09,0,.16,0,.33-.04l.2,1.14c-.21,.08-.47,.14-.86,.14-1.12,0-1.58-.71-1.58-1.99Z"/>
    <path class="cls-2" d="M50.16,185.63c0-.59,.45-.96,1.03-.96s1.03,.38,1.03,.96-.45,.96-1.03,.96-1.03-.4-1.03-.96Zm.27,2.78h1.49v8.82h-1.49v-8.82Z"/>
    <path class="cls-2" d="M54.27,192.83c0-2.86,1.8-4.64,3.82-4.64,1.03,0,1.7,.39,2.47,1.02l-.06-1.51v-3.4h1.49v12.93h-1.23l-.13-1.04h-.05c-.69,.69-1.62,1.26-2.68,1.26-2.2,0-3.63-1.68-3.63-4.62Zm6.22,2.16v-4.62c-.75-.67-1.43-.92-2.15-.92-1.41,0-2.53,1.36-2.53,3.37,0,2.11,.88,3.37,2.42,3.37,.82,0,1.52-.4,2.26-1.2Z"/>
    <path class="cls-2" d="M64.42,194.94c0-1.92,1.66-2.88,5.42-3.29,0-1.13-.38-2.23-1.82-2.23-1.02,0-1.94,.48-2.63,.95l-.58-1.02c.81-.53,2.05-1.15,3.46-1.15,2.15,0,3.06,1.43,3.06,3.63v5.41h-1.23l-.12-1.05h-.05c-.84,.7-1.82,1.27-2.92,1.27-1.48,0-2.58-.92-2.58-2.51Zm5.42,.14v-2.45c-2.96,.36-3.95,1.08-3.95,2.21,0,1,.68,1.41,1.55,1.41s1.55-.41,2.41-1.17Z"/>
    <path class="cls-2" d="M73.45,192.83c0-2.94,1.99-4.64,4.24-4.64,1.16,0,1.96,.48,2.58,1.04l-.76,.99c-.51-.46-1.06-.78-1.75-.78-1.6,0-2.77,1.38-2.77,3.4s1.11,3.37,2.73,3.37c.81,0,1.52-.39,2.07-.88l.65,1c-.79,.71-1.79,1.12-2.85,1.12-2.35,0-4.14-1.7-4.14-4.62Z"/>
    <path class="cls-2" d="M82.11,185.63c0-.59,.45-.96,1.03-.96s1.03,.38,1.03,.96-.45,.96-1.03,.96-1.03-.4-1.03-.96Zm.27,2.78h1.49v8.82h-1.49v-8.82Z"/>
    <path class="cls-2" d="M86.19,192.83c0-2.94,1.92-4.64,4.09-4.64s4.09,1.7,4.09,4.64-1.92,4.62-4.09,4.62-4.09-1.7-4.09-4.62Zm6.63,0c0-2.02-1.03-3.4-2.54-3.4s-2.54,1.38-2.54,3.4,1.03,3.37,2.54,3.37,2.54-1.35,2.54-3.37Zm-3.57-6.75l2.57-3.02,1.05,.99-2.85,2.77-.77-.74Z"/>
    <path class="cls-2" d="M96.67,188.41h1.23l.12,1.27h.05c.84-.83,1.75-1.49,2.96-1.49,1.86,0,2.69,1.2,2.69,3.45v5.59h-1.49v-5.4c0-1.64-.5-2.35-1.66-2.35-.9,0-1.53,.46-2.41,1.35v6.39h-1.49v-8.82Z"/>
    <path class="cls-2" d="M109.6,192.83c0-2.86,1.8-4.64,3.82-4.64,1.03,0,1.7,.39,2.47,1.02l-.06-1.51v-3.4h1.49v12.93h-1.23l-.12-1.04h-.05c-.69,.69-1.62,1.26-2.68,1.26-2.2,0-3.63-1.68-3.63-4.62Zm6.22,2.16v-4.62c-.75-.67-1.43-.92-2.15-.92-1.41,0-2.53,1.36-2.53,3.37,0,2.11,.88,3.37,2.42,3.37,.82,0,1.52-.4,2.26-1.2Z"/>
    <path class="cls-2" d="M119.64,192.83c0-2.87,1.93-4.64,3.96-4.64,2.25,0,3.52,1.62,3.52,4.14,0,.31-.03,.63-.07,.85h-5.94c.11,1.87,1.25,3.08,2.93,3.08,.85,0,1.54-.27,2.19-.71l.54,.98c-.77,.51-1.71,.91-2.91,.91-2.35,0-4.22-1.72-4.22-4.62Zm6.17-.72c0-1.77-.79-2.73-2.17-2.73-1.24,0-2.35,1-2.53,2.73h4.7Z"/>
    <path class="cls-2" d="M135.51,185.32h1.71l4.03,11.91h-1.61l-2.08-6.65c-.43-1.33-.81-2.64-1.19-4.01h-.07c-.37,1.38-.75,2.68-1.18,4.01l-2.1,6.65h-1.54l4.03-11.91Zm-1.91,7.07h5.48v1.21h-5.48v-1.21Z"/>
    <path class="cls-2" d="M142.14,192.83c0-2.94,1.99-4.64,4.24-4.64,1.16,0,1.96,.48,2.58,1.04l-.76,.99c-.51-.46-1.06-.78-1.75-.78-1.6,0-2.77,1.38-2.77,3.4s1.11,3.37,2.73,3.37c.81,0,1.52-.39,2.07-.88l.65,1c-.79,.71-1.79,1.12-2.85,1.12-2.35,0-4.14-1.7-4.14-4.62Z"/>
    <path class="cls-2" d="M150.03,192.83c0-2.94,1.99-4.64,4.24-4.64,1.16,0,1.96,.48,2.58,1.04l-.76,.99c-.51-.46-1.06-.78-1.75-.78-1.6,0-2.77,1.38-2.77,3.4s1.11,3.37,2.73,3.37c.81,0,1.52-.39,2.07-.88l.65,1c-.79,.71-1.79,1.12-2.85,1.12-2.35,0-4.14-1.7-4.14-4.62Z"/>
    <path class="cls-2" d="M157.92,192.83c0-2.87,1.93-4.64,3.96-4.64,2.25,0,3.52,1.62,3.52,4.14,0,.31-.03,.63-.07,.85h-5.94c.11,1.87,1.25,3.08,2.93,3.08,.85,0,1.54-.27,2.19-.71l.53,.98c-.77,.51-1.71,.91-2.91,.91-2.35,0-4.22-1.72-4.22-4.62Zm6.17-.72c0-1.77-.79-2.73-2.17-2.73-1.24,0-2.35,1-2.53,2.73h4.7Z"/>
    <path class="cls-2" d="M166.6,196.22l.74-.98c.77,.62,1.54,1.04,2.6,1.04,1.16,0,1.73-.62,1.73-1.37,0-.91-1.04-1.31-2.02-1.67-1.24-.45-2.63-1.06-2.63-2.55s1.13-2.5,3.04-2.5c1.1,0,2.06,.45,2.74,.99l-.71,.96c-.61-.45-1.23-.79-2.01-.79-1.11,0-1.62,.59-1.62,1.26,0,.84,.96,1.16,1.96,1.53,1.27,.48,2.69,1,2.69,2.68,0,1.43-1.14,2.62-3.22,2.62-1.25,0-2.46-.53-3.29-1.22Z"/>
    <path class="cls-2" d="M174.52,192.83c0-2.94,1.92-4.64,4.09-4.64s4.09,1.7,4.09,4.64-1.92,4.62-4.09,4.62-4.09-1.7-4.09-4.62Zm6.63,0c0-2.02-1.03-3.4-2.54-3.4s-2.54,1.38-2.54,3.4,1.03,3.37,2.54,3.37,2.54-1.35,2.54-3.37Z"/>
  </g>
  <g>
    <path class="cls-4" d="M27.77,210.31h1.36v10.72h-1.36v-10.72Z"/>
    <path class="cls-4" d="M32.57,213.09h1.11l.11,1.15h.04c.76-.74,1.57-1.34,2.66-1.34,1.67,0,2.42,1.08,2.42,3.1v5.03h-1.34v-4.85c0-1.48-.45-2.11-1.5-2.11-.81,0-1.37,.41-2.17,1.22v5.75h-1.34v-7.94Z"/>
    <path class="cls-4" d="M41.54,222.55c0-.68,.43-1.32,1.16-1.79v-.06c-.4-.25-.71-.68-.71-1.3,0-.66,.46-1.18,.87-1.47v-.07c-.53-.41-1.03-1.18-1.03-2.13,0-1.74,1.37-2.83,2.98-2.83,.44,0,.83,.09,1.12,.2h2.77v1.03h-1.63c.38,.36,.65,.96,.65,1.63,0,1.7-1.28,2.75-2.91,2.75-.39,0-.82-.09-1.18-.27-.29,.24-.5,.5-.5,.94,0,.5,.33,.86,1.39,.86h1.54c1.85,0,2.77,.58,2.77,1.9,0,1.47-1.56,2.74-4.01,2.74-1.94,0-3.28-.76-3.28-2.13Zm5.98-.42c0-.73-.56-.99-1.6-.99h-1.37c-.3,0-.68-.03-1.03-.12-.57,.4-.81,.88-.81,1.33,0,.85,.86,1.39,2.3,1.39s2.51-.79,2.51-1.62Zm-1.02-6.41c0-1.15-.75-1.85-1.69-1.85s-1.69,.69-1.69,1.85,.77,1.89,1.69,1.89,1.69-.73,1.69-1.89Z"/>
    <path class="cls-4" d="M51,213.09h1.11l.11,1.45h.04c.55-1.01,1.36-1.64,2.26-1.64,.35,0,.6,.04,.85,.16l-.25,1.18c-.27-.09-.45-.13-.77-.13-.67,0-1.47,.48-2.01,1.83v5.1h-1.34v-7.94Z"/>
    <path class="cls-4" d="M56.55,217.07c0-2.58,1.74-4.17,3.57-4.17,2.03,0,3.17,1.45,3.17,3.72,0,.28-.02,.57-.06,.76h-5.34c.1,1.68,1.12,2.77,2.64,2.77,.76,0,1.39-.25,1.98-.63l.48,.88c-.7,.46-1.54,.82-2.62,.82-2.12,0-3.8-1.55-3.8-4.15Zm5.55-.65c0-1.59-.71-2.46-1.96-2.46-1.12,0-2.11,.9-2.28,2.46h4.23Z"/>
    <path class="cls-4" d="M64.99,220.12l.66-.88c.69,.56,1.39,.94,2.34,.94,1.04,0,1.56-.56,1.56-1.23,0-.82-.94-1.18-1.82-1.5-1.11-.41-2.37-.95-2.37-2.29,0-1.27,1.02-2.25,2.74-2.25,.99,0,1.85,.4,2.47,.89l-.64,.86c-.55-.4-1.11-.71-1.81-.71-1,0-1.46,.53-1.46,1.14,0,.75,.86,1.04,1.76,1.38,1.14,.43,2.42,.9,2.42,2.41,0,1.29-1.02,2.36-2.9,2.36-1.13,0-2.21-.48-2.96-1.1Z"/>
    <path class="cls-4" d="M72.75,217.07c0-2.58,1.74-4.17,3.57-4.17,2.03,0,3.17,1.45,3.17,3.72,0,.28-.02,.57-.06,.76h-5.34c.1,1.68,1.12,2.77,2.64,2.77,.76,0,1.39-.25,1.98-.63l.48,.88c-.7,.46-1.54,.82-2.62,.82-2.12,0-3.8-1.55-3.8-4.15Zm5.55-.65c0-1.59-.71-2.46-1.96-2.46-1.12,0-2.11,.9-2.28,2.46h4.23Z"/>
    <path class="cls-4" d="M85.97,213.09h1.11l.11,.92h.04c.72-.6,1.61-1.11,2.53-1.11,2.05,0,3.15,1.59,3.15,4.04,0,2.71-1.62,4.28-3.44,4.28-.73,0-1.47-.33-2.2-.92l.04,1.39v2.69h-1.34v-11.28Zm5.56,3.86c0-1.75-.6-2.93-2.09-2.93-.67,0-1.35,.37-2.12,1.08v4.16c.72,.6,1.41,.83,1.93,.83,1.31,0,2.28-1.18,2.28-3.14Z"/>
    <path class="cls-4" d="M95.08,217.07c0-2.65,1.73-4.17,3.68-4.17s3.68,1.53,3.68,4.17-1.73,4.15-3.68,4.15-3.68-1.53-3.68-4.15Zm5.97,0c0-1.82-.92-3.06-2.29-3.06s-2.29,1.24-2.29,3.06,.92,3.04,2.29,3.04,2.29-1.22,2.29-3.04Z"/>
    <path class="cls-4" d="M105.15,213.09h1.11l.11,1.45h.04c.55-1.01,1.36-1.64,2.26-1.64,.35,0,.6,.04,.85,.16l-.25,1.18c-.27-.09-.45-.13-.77-.13-.67,0-1.47,.48-2.01,1.83v5.1h-1.34v-7.94Z"/>
    <path class="cls-4" d="M114.49,213.17l1.14-.08h2.96v1.09h-4.1v-1.02Zm1.08-1.33c0-1.61,.73-2.64,2.32-2.64,.48,0,.96,.12,1.32,.27l-.28,1.03c-.3-.14-.62-.2-.9-.2-.75,0-1.12,.52-1.12,1.55v9.19h-1.34v-9.19Z"/>
    <path class="cls-4" d="M119.93,218.97c0-1.73,1.49-2.59,4.87-2.96,0-1.02-.34-2-1.64-2-.92,0-1.75,.44-2.37,.85l-.53-.92c.73-.48,1.84-1.04,3.12-1.04,1.94,0,2.76,1.29,2.76,3.26v4.87h-1.11l-.11-.95h-.04c-.76,.63-1.64,1.14-2.62,1.14-1.33,0-2.32-.82-2.32-2.26Zm4.87,.12v-2.2c-2.66,.32-3.56,.97-3.56,1.99,0,.9,.61,1.27,1.39,1.27s1.4-.37,2.17-1.05Z"/>
    <path class="cls-4" d="M128.14,213.09h1.38l1.5,4.51c.24,.77,.5,1.58,.73,2.34h.07c.24-.76,.5-1.57,.73-2.34l1.5-4.51h1.32l-2.81,7.94h-1.56l-2.86-7.94Z"/>
    <path class="cls-4" d="M136.89,217.07c0-2.65,1.73-4.17,3.68-4.17s3.68,1.53,3.68,4.17-1.73,4.15-3.68,4.15-3.68-1.53-3.68-4.15Zm5.97,0c0-1.82-.92-3.06-2.29-3.06s-2.29,1.24-2.29,3.06,.92,3.04,2.29,3.04,2.29-1.22,2.29-3.04Z"/>
    <path class="cls-4" d="M146.96,213.09h1.11l.11,1.45h.04c.55-1.01,1.36-1.64,2.26-1.64,.35,0,.6,.04,.85,.16l-.25,1.18c-.27-.09-.45-.13-.77-.13-.67,0-1.47,.48-2.01,1.83v5.1h-1.34v-7.94Z"/>
    <path class="cls-4" d="M156.57,217.07c0-2.58,1.74-4.17,3.57-4.17,2.03,0,3.17,1.45,3.17,3.72,0,.28-.02,.57-.06,.76h-5.34c.1,1.68,1.12,2.77,2.64,2.77,.76,0,1.39-.25,1.98-.63l.48,.88c-.7,.46-1.54,.82-2.62,.82-2.12,0-3.8-1.55-3.8-4.15Zm5.55-.65c0-1.59-.71-2.46-1.96-2.46-1.12,0-2.11,.9-2.28,2.46h4.23Z"/>
    <path class="cls-4" d="M165.89,219.44v-10.04h1.34v10.14c0,.41,.18,.57,.37,.57,.08,0,.14,0,.29-.03l.18,1.02c-.19,.07-.42,.13-.77,.13-1.01,0-1.42-.64-1.42-1.79Z"/>
    <path class="cls-4" d="M174,217.07c0-2.65,1.79-4.17,3.82-4.17,1.04,0,1.76,.43,2.32,.93l-.69,.89c-.46-.42-.95-.7-1.58-.7-1.44,0-2.49,1.24-2.49,3.06s1,3.04,2.46,3.04c.72,0,1.37-.35,1.86-.79l.58,.9c-.71,.64-1.61,1.01-2.57,1.01-2.11,0-3.72-1.53-3.72-4.15Z"/>
    <path class="cls-4" d="M181.73,217.07c0-2.65,1.73-4.17,3.68-4.17s3.68,1.53,3.68,4.17-1.73,4.15-3.68,4.15-3.68-1.53-3.68-4.15Zm5.97,0c0-1.82-.92-3.06-2.29-3.06s-2.29,1.24-2.29,3.06,.92,3.04,2.29,3.04,2.29-1.22,2.29-3.04Zm-3.21-6.07l2.31-2.72,.94,.89-2.56,2.5-.69-.67Z"/>
    <path class="cls-4" d="M191.24,217.07c0-2.57,1.62-4.17,3.43-4.17,.92,0,1.53,.35,2.22,.92l-.06-1.36v-3.06h1.34v11.63h-1.11l-.11-.94h-.04c-.62,.62-1.46,1.13-2.41,1.13-1.98,0-3.27-1.51-3.27-4.15Zm5.6,1.94v-4.16c-.68-.6-1.29-.83-1.94-.83-1.27,0-2.28,1.22-2.28,3.03,0,1.9,.79,3.04,2.18,3.04,.73,0,1.37-.36,2.04-1.08Z"/>
    <path class="cls-4" d="M201.25,210.59c0-.53,.4-.87,.93-.87s.93,.34,.93,.87-.41,.87-.93,.87-.93-.36-.93-.87Zm.25,2.5h1.34v7.94h-1.34v-7.94Z"/>
    <path class="cls-4" d="M205.55,222.55c0-.68,.43-1.32,1.16-1.79v-.06c-.4-.25-.71-.68-.71-1.3,0-.66,.46-1.18,.87-1.47v-.07c-.53-.41-1.03-1.18-1.03-2.13,0-1.74,1.37-2.83,2.98-2.83,.44,0,.83,.09,1.12,.2h2.77v1.03h-1.63c.38,.36,.65,.96,.65,1.63,0,1.7-1.28,2.75-2.91,2.75-.39,0-.82-.09-1.18-.27-.29,.24-.5,.5-.5,.94,0,.5,.33,.86,1.39,.86h1.54c1.85,0,2.77,.58,2.77,1.9,0,1.47-1.56,2.74-4.01,2.74-1.94,0-3.28-.76-3.28-2.13Zm5.98-.42c0-.73-.56-.99-1.6-.99h-1.37c-.3,0-.68-.03-1.03-.12-.57,.4-.81,.88-.81,1.33,0,.85,.86,1.39,2.3,1.39s2.51-.79,2.51-1.62Zm-1.02-6.41c0-1.15-.75-1.85-1.69-1.85s-1.69,.69-1.69,1.85,.77,1.89,1.69,1.89,1.69-.73,1.69-1.89Z"/>
    <path class="cls-4" d="M214.19,217.07c0-2.65,1.73-4.17,3.68-4.17s3.68,1.53,3.68,4.17-1.73,4.15-3.68,4.15-3.68-1.53-3.68-4.15Zm5.97,0c0-1.82-.93-3.06-2.29-3.06s-2.29,1.24-2.29,3.06,.93,3.04,2.29,3.04,2.29-1.22,2.29-3.04Z"/>
    <path class="cls-4" d="M233.13,221.56l.06-1.44c-.63,.61-1.47,1.1-2.39,1.1-1.98,0-3.27-1.51-3.27-4.15s1.62-4.17,3.43-4.17c.92,0,1.56,.33,2.27,.95h.04l.13-.75h1.07v11.28h-1.34v-2.82Zm0-2.55v-4.16c-.68-.6-1.29-.83-1.94-.83-1.27,0-2.28,1.22-2.28,3.03,0,1.9,.79,3.04,2.18,3.04,.73,0,1.37-.36,2.04-1.08Z"/>
    <path class="cls-4" d="M237.69,218.12v-5.03h1.34v4.86c0,1.48,.45,2.11,1.5,2.11,.81,0,1.37-.4,2.12-1.34v-5.63h1.34v7.94h-1.11l-.12-1.24h-.04c-.74,.87-1.53,1.44-2.62,1.44-1.67,0-2.42-1.08-2.42-3.1Z"/>
    <path class="cls-4" d="M246.72,217.07c0-2.58,1.74-4.17,3.57-4.17,2.02,0,3.17,1.45,3.17,3.72,0,.28-.02,.57-.06,.76h-5.34c.1,1.68,1.12,2.77,2.64,2.77,.76,0,1.39-.25,1.97-.63l.48,.88c-.7,.46-1.54,.82-2.62,.82-2.12,0-3.8-1.55-3.8-4.15Zm5.55-.65c0-1.59-.72-2.46-1.96-2.46-1.12,0-2.11,.9-2.28,2.46h4.23Z"/>
    <path class="cls-4" d="M259.94,219.44v-10.04h1.34v10.14c0,.41,.18,.57,.38,.57,.08,0,.14,0,.29-.03l.18,1.02c-.19,.07-.42,.13-.77,.13-1.01,0-1.42-.64-1.42-1.79Z"/>
    <path class="cls-4" d="M264.14,217.07c0-2.58,1.74-4.17,3.57-4.17,2.03,0,3.17,1.45,3.17,3.72,0,.28-.03,.57-.06,.76h-5.35c.1,1.68,1.12,2.77,2.64,2.77,.76,0,1.39-.25,1.97-.63l.48,.88c-.7,.46-1.54,.82-2.62,.82-2.12,0-3.8-1.55-3.8-4.15Zm5.55-.65c0-1.59-.71-2.46-1.96-2.46-1.12,0-2.11,.9-2.28,2.46h4.23Z"/>
    <path class="cls-4" d="M276.78,217.07c0-2.58,1.74-4.17,3.57-4.17,2.03,0,3.17,1.45,3.17,3.72,0,.28-.03,.57-.06,.76h-5.35c.1,1.68,1.12,2.77,2.64,2.77,.76,0,1.39-.25,1.97-.63l.48,.88c-.7,.46-1.54,.82-2.62,.82-2.12,0-3.8-1.55-3.8-4.15Zm5.55-.65c0-1.59-.71-2.46-1.96-2.46-1.12,0-2.11,.9-2.28,2.46h4.23Z"/>
    <path class="cls-4" d="M286.1,213.09h1.11l.11,1.15h.04c.76-.74,1.57-1.34,2.66-1.34,1.67,0,2.42,1.08,2.42,3.1v5.03h-1.34v-4.85c0-1.48-.45-2.11-1.5-2.11-.81,0-1.37,.41-2.17,1.22v5.75h-1.34v-7.94Z"/>
    <path class="cls-4" d="M294.52,213.09h1.38l1.5,4.51c.24,.77,.5,1.58,.73,2.34h.07c.24-.76,.49-1.57,.73-2.34l1.5-4.51h1.31l-2.81,7.94h-1.56l-2.86-7.94Z"/>
    <path class="cls-4" d="M303.67,210.59c0-.53,.41-.87,.93-.87s.93,.34,.93,.87-.41,.87-.93,.87-.93-.36-.93-.87Zm.25,2.5h1.34v7.94h-1.34v-7.94Z"/>
    <path class="cls-4" d="M308.08,218.97c0-1.73,1.49-2.59,4.87-2.96,0-1.02-.34-2-1.64-2-.92,0-1.75,.44-2.37,.85l-.53-.92c.73-.48,1.84-1.04,3.12-1.04,1.94,0,2.76,1.29,2.76,3.26v4.87h-1.11l-.11-.95h-.04c-.76,.63-1.64,1.14-2.62,1.14-1.33,0-2.32-.82-2.32-2.26Zm4.87,.12v-2.2c-2.66,.32-3.56,.97-3.56,1.99,0,.9,.61,1.27,1.39,1.27s1.4-.37,2.17-1.05Z"/>
    <path class="cls-4" d="M317.43,213.09h1.11l.11,1.45h.04c.55-1.01,1.36-1.64,2.26-1.64,.35,0,.6,.04,.85,.16l-.25,1.18c-.27-.09-.45-.13-.77-.13-.67,0-1.47,.48-2.01,1.83v5.1h-1.34v-7.94Z"/>
    <path class="cls-4" d="M322.98,217.07c0-2.58,1.74-4.17,3.57-4.17,2.02,0,3.17,1.45,3.17,3.72,0,.28-.02,.57-.06,.76h-5.34c.1,1.68,1.12,2.77,2.64,2.77,.76,0,1.39-.25,1.97-.63l.48,.88c-.7,.46-1.54,.82-2.62,.82-2.12,0-3.8-1.55-3.8-4.15Zm5.55-.65c0-1.59-.72-2.46-1.96-2.46-1.12,0-2.11,.9-2.28,2.46h4.23Z"/>
    <path class="cls-4" d="M332.3,213.09h1.11l.11,1.15h.04c.7-.75,1.53-1.35,2.47-1.35,1.21,0,1.86,.58,2.19,1.51,.82-.89,1.65-1.51,2.62-1.51,1.63,0,2.41,1.08,2.41,3.1v5.03h-1.34v-4.85c0-1.48-.47-2.11-1.48-2.11-.62,0-1.25,.4-1.99,1.22v5.75h-1.34v-4.85c0-1.48-.47-2.11-1.48-2.11-.59,0-1.25,.4-1.99,1.22v5.75h-1.34v-7.94Z"/>
    <path class="cls-4" d="M345.87,217.07c0-2.65,1.73-4.17,3.68-4.17s3.68,1.53,3.68,4.17-1.73,4.15-3.68,4.15-3.68-1.53-3.68-4.15Zm5.97,0c0-1.82-.92-3.06-2.29-3.06s-2.29,1.24-2.29,3.06,.93,3.04,2.29,3.04,2.29-1.22,2.29-3.04Z"/>
    <path class="cls-4" d="M355.03,220.12l.66-.88c.69,.56,1.39,.94,2.34,.94,1.04,0,1.56-.56,1.56-1.23,0-.82-.94-1.18-1.82-1.5-1.11-.41-2.37-.95-2.37-2.29,0-1.27,1.02-2.25,2.74-2.25,.99,0,1.85,.4,2.47,.89l-.64,.86c-.55-.4-1.11-.71-1.81-.71-1,0-1.46,.53-1.46,1.14,0,.75,.86,1.04,1.76,1.38,1.14,.43,2.42,.9,2.42,2.41,0,1.29-1.02,2.36-2.9,2.36-1.13,0-2.21-.48-2.96-1.1Z"/>
    <path class="cls-4" d="M366.79,218.97c0-1.73,1.49-2.59,4.88-2.96,0-1.02-.34-2-1.64-2-.92,0-1.74,.44-2.37,.85l-.53-.92c.73-.48,1.84-1.04,3.12-1.04,1.94,0,2.76,1.29,2.76,3.26v4.87h-1.11l-.11-.95h-.04c-.76,.63-1.64,1.14-2.62,1.14-1.33,0-2.33-.82-2.33-2.26Zm4.88,.12v-2.2c-2.66,.32-3.56,.97-3.56,1.99,0,.9,.61,1.27,1.39,1.27s1.4-.37,2.17-1.05Z"/>
    <path class="cls-4" d="M26.77,239.71l.66-.88c.69,.56,1.39,.94,2.34,.94,1.04,0,1.56-.56,1.56-1.23,0-.82-.94-1.18-1.82-1.5-1.11-.41-2.37-.95-2.37-2.29,0-1.27,1.02-2.25,2.74-2.25,.99,0,1.85,.4,2.47,.89l-.64,.86c-.55-.4-1.11-.71-1.81-.71-1,0-1.46,.53-1.46,1.14,0,.75,.86,1.04,1.76,1.38,1.14,.43,2.42,.9,2.42,2.41,0,1.29-1.02,2.36-2.9,2.36-1.13,0-2.22-.48-2.96-1.1Z"/>
    <path class="cls-4" d="M35.01,237.71v-5.03h1.34v4.86c0,1.48,.45,2.11,1.5,2.11,.81,0,1.37-.4,2.12-1.34v-5.63h1.34v7.94h-1.11l-.11-1.24h-.04c-.74,.87-1.53,1.44-2.62,1.44-1.67,0-2.42-1.08-2.42-3.1Z"/>
    <path class="cls-4" d="M48.54,232.68h1.11l.11,1.15h.04c.76-.74,1.57-1.34,2.66-1.34,1.67,0,2.42,1.08,2.42,3.1v5.03h-1.34v-4.86c0-1.48-.45-2.11-1.5-2.11-.81,0-1.37,.41-2.17,1.22v5.75h-1.34v-7.94Z"/>
    <path class="cls-4" d="M57.99,237.71v-5.03h1.34v4.86c0,1.48,.45,2.11,1.5,2.11,.81,0,1.37-.4,2.12-1.34v-5.63h1.34v7.94h-1.11l-.11-1.24h-.04c-.74,.87-1.53,1.44-2.62,1.44-1.67,0-2.42-1.08-2.42-3.1Z"/>
    <path class="cls-4" d="M67.61,232.68h1.11l.11,1.15h.04c.69-.75,1.52-1.35,2.47-1.35,1.21,0,1.86,.58,2.19,1.51,.82-.89,1.65-1.51,2.62-1.51,1.63,0,2.42,1.08,2.42,3.1v5.03h-1.34v-4.86c0-1.48-.47-2.11-1.48-2.11-.62,0-1.26,.4-1.99,1.22v5.75h-1.34v-4.86c0-1.48-.47-2.11-1.48-2.11-.6,0-1.26,.4-1.99,1.22v5.75h-1.34v-7.94Z"/>
    <path class="cls-4" d="M81.19,236.66c0-2.58,1.74-4.17,3.57-4.17,2.03,0,3.17,1.45,3.17,3.72,0,.28-.02,.57-.06,.76h-5.34c.1,1.68,1.12,2.77,2.64,2.77,.76,0,1.39-.25,1.98-.63l.48,.88c-.7,.46-1.54,.82-2.62,.82-2.12,0-3.8-1.55-3.8-4.15Zm5.55-.65c0-1.59-.71-2.46-1.96-2.46-1.12,0-2.11,.9-2.28,2.46h4.23Z"/>
    <path class="cls-4" d="M90.51,232.68h1.11l.11,1.45h.04c.55-1.01,1.36-1.64,2.26-1.64,.35,0,.6,.04,.85,.16l-.25,1.18c-.27-.09-.45-.13-.77-.13-.67,0-1.47,.48-2.01,1.83v5.1h-1.34v-7.94Z"/>
    <path class="cls-4" d="M96.06,236.66c0-2.65,1.73-4.17,3.68-4.17s3.68,1.53,3.68,4.17-1.73,4.15-3.68,4.15-3.68-1.53-3.68-4.15Zm5.97,0c0-1.82-.93-3.06-2.29-3.06s-2.29,1.24-2.29,3.06,.92,3.04,2.29,3.04,2.29-1.22,2.29-3.04Z"/>
    <path class="cls-4" d="M110.2,238.16v-4.39h-1.18v-1.02l1.24-.08,.16-2.23h1.12v2.23h2.15v1.09h-2.15v4.41c0,.97,.31,1.53,1.23,1.53,.28,0,.65-.11,.9-.21l.26,1.01c-.45,.15-.98,.29-1.47,.29-1.69,0-2.26-1.07-2.26-2.65Z"/>
    <path class="cls-4" d="M115.3,236.66c0-2.58,1.74-4.17,3.57-4.17,2.03,0,3.17,1.45,3.17,3.72,0,.28-.02,.57-.06,.76h-5.34c.1,1.68,1.12,2.77,2.64,2.77,.76,0,1.39-.25,1.98-.63l.48,.88c-.7,.46-1.54,.82-2.62,.82-2.12,0-3.8-1.55-3.8-4.15Zm5.55-.65c0-1.59-.71-2.46-1.96-2.46-1.12,0-2.11,.9-2.28,2.46h4.23Z"/>
    <path class="cls-4" d="M124.62,239.02v-10.04h1.34v10.14c0,.41,.18,.57,.37,.57,.08,0,.14,0,.29-.03l.18,1.02c-.19,.07-.42,.13-.77,.13-1.01,0-1.42-.64-1.42-1.79Z"/>
    <path class="cls-4" d="M128.83,236.66c0-2.58,1.74-4.17,3.57-4.17,2.02,0,3.17,1.45,3.17,3.72,0,.28-.02,.57-.06,.76h-5.34c.1,1.68,1.12,2.77,2.64,2.77,.76,0,1.39-.25,1.98-.63l.48,.88c-.7,.46-1.54,.82-2.62,.82-2.12,0-3.8-1.55-3.8-4.15Zm5.55-.65c0-1.59-.71-2.46-1.96-2.46-1.12,0-2.11,.9-2.28,2.46h4.23Z"/>
    <path class="cls-4" d="M137.26,232.75l1.14-.08h2.96v1.09h-4.1v-1.02Zm1.08-1.33c0-1.61,.73-2.64,2.33-2.64,.48,0,.96,.12,1.32,.27l-.28,1.03c-.3-.14-.62-.2-.9-.2-.75,0-1.12,.52-1.12,1.55v9.19h-1.34v-9.19Z"/>
    <path class="cls-4" d="M142.76,236.66c0-2.65,1.73-4.17,3.68-4.17s3.68,1.53,3.68,4.17-1.73,4.15-3.68,4.15-3.68-1.53-3.68-4.15Zm5.97,0c0-1.82-.92-3.06-2.29-3.06s-2.29,1.24-2.29,3.06,.92,3.04,2.29,3.04,2.29-1.22,2.29-3.04Zm-3.21-6.07l2.31-2.72,.94,.89-2.57,2.5-.69-.67Z"/>
    <path class="cls-4" d="M152.83,232.68h1.11l.11,1.15h.04c.76-.74,1.57-1.34,2.66-1.34,1.67,0,2.42,1.08,2.42,3.1v5.03h-1.34v-4.86c0-1.48-.45-2.11-1.5-2.11-.81,0-1.37,.41-2.17,1.22v5.75h-1.34v-7.94Z"/>
    <path class="cls-4" d="M162.15,230.18c0-.53,.41-.87,.93-.87s.93,.34,.93,.87-.41,.87-.93,.87-.93-.36-.93-.87Zm.25,2.5h1.34v7.94h-1.34v-7.94Z"/>
    <path class="cls-4" d="M166.46,236.66c0-2.65,1.79-4.17,3.82-4.17,1.04,0,1.76,.43,2.32,.93l-.69,.89c-.46-.42-.95-.7-1.58-.7-1.44,0-2.49,1.24-2.49,3.06s1,3.04,2.46,3.04c.72,0,1.37-.35,1.86-.79l.58,.9c-.71,.64-1.61,1.01-2.57,1.01-2.11,0-3.72-1.53-3.72-4.15Z"/>
    <path class="cls-4" d="M174.19,236.66c0-2.65,1.73-4.17,3.68-4.17s3.68,1.53,3.68,4.17-1.73,4.15-3.68,4.15-3.68-1.53-3.68-4.15Zm5.97,0c0-1.82-.92-3.06-2.29-3.06s-2.29,1.24-2.29,3.06,.92,3.04,2.29,3.04,2.29-1.22,2.29-3.04Z"/>
    <path class="cls-4" d="M183.82,239.79c0-.62,.44-1.04,.97-1.04s.97,.42,.97,1.04-.44,1.02-.97,1.02-.97-.42-.97-1.02Z"/>
  </g>
  <g>
    <path class="cls-4" d="M27.77,271.31h1.36v10.72h-1.36v-10.72Z"/>
    <path class="cls-4" d="M32.57,274.09h1.11l.11,1.15h.04c.76-.74,1.57-1.34,2.66-1.34,1.67,0,2.42,1.08,2.42,3.1v5.03h-1.34v-4.85c0-1.48-.45-2.11-1.5-2.11-.81,0-1.37,.41-2.17,1.22v5.75h-1.34v-7.94Z"/>
    <path class="cls-4" d="M41.54,283.55c0-.68,.43-1.32,1.16-1.79v-.06c-.4-.25-.71-.68-.71-1.3,0-.66,.46-1.18,.87-1.47v-.07c-.53-.41-1.03-1.18-1.03-2.13,0-1.74,1.37-2.83,2.98-2.83,.44,0,.83,.09,1.12,.2h2.77v1.03h-1.63c.38,.36,.65,.96,.65,1.63,0,1.7-1.28,2.75-2.91,2.75-.39,0-.82-.09-1.18-.27-.29,.24-.5,.5-.5,.94,0,.5,.33,.86,1.39,.86h1.54c1.85,0,2.77,.58,2.77,1.9,0,1.47-1.56,2.74-4.01,2.74-1.94,0-3.28-.76-3.28-2.13Zm5.98-.42c0-.73-.56-.99-1.6-.99h-1.37c-.3,0-.68-.03-1.03-.12-.57,.4-.81,.88-.81,1.33,0,.85,.86,1.39,2.3,1.39s2.51-.79,2.51-1.62Zm-1.02-6.41c0-1.15-.75-1.85-1.69-1.85s-1.69,.69-1.69,1.85,.77,1.89,1.69,1.89,1.69-.73,1.69-1.89Z"/>
    <path class="cls-4" d="M51,274.09h1.11l.11,1.45h.04c.55-1.01,1.36-1.64,2.26-1.64,.35,0,.6,.04,.85,.16l-.25,1.18c-.27-.09-.45-.13-.77-.13-.67,0-1.47,.48-2.01,1.83v5.1h-1.34v-7.94Z"/>
    <path class="cls-4" d="M56.55,278.07c0-2.58,1.74-4.17,3.57-4.17,2.03,0,3.17,1.45,3.17,3.72,0,.28-.02,.57-.06,.76h-5.34c.1,1.68,1.12,2.77,2.64,2.77,.76,0,1.39-.25,1.98-.63l.48,.88c-.7,.46-1.54,.82-2.62,.82-2.12,0-3.8-1.55-3.8-4.15Zm5.55-.65c0-1.59-.71-2.46-1.96-2.46-1.12,0-2.11,.9-2.28,2.46h4.23Z"/>
    <path class="cls-4" d="M64.99,281.12l.66-.88c.69,.56,1.39,.94,2.34,.94,1.04,0,1.56-.56,1.56-1.23,0-.82-.94-1.18-1.82-1.5-1.11-.41-2.37-.95-2.37-2.29,0-1.27,1.02-2.25,2.74-2.25,.99,0,1.85,.4,2.47,.89l-.64,.86c-.55-.4-1.11-.71-1.81-.71-1,0-1.46,.53-1.46,1.14,0,.75,.86,1.04,1.76,1.38,1.14,.43,2.42,.9,2.42,2.41,0,1.29-1.02,2.36-2.9,2.36-1.13,0-2.21-.48-2.96-1.1Z"/>
    <path class="cls-4" d="M72.75,278.07c0-2.58,1.74-4.17,3.57-4.17,2.03,0,3.17,1.45,3.17,3.72,0,.28-.02,.57-.06,.76h-5.34c.1,1.68,1.12,2.77,2.64,2.77,.76,0,1.39-.25,1.98-.63l.48,.88c-.7,.46-1.54,.82-2.62,.82-2.12,0-3.8-1.55-3.8-4.15Zm5.55-.65c0-1.59-.71-2.46-1.96-2.46-1.12,0-2.11,.9-2.28,2.46h4.23Z"/>
    <path class="cls-4" d="M85.38,278.07c0-2.58,1.74-4.17,3.57-4.17,2.03,0,3.17,1.45,3.17,3.72,0,.28-.02,.57-.06,.76h-5.34c.1,1.68,1.12,2.77,2.64,2.77,.76,0,1.39-.25,1.98-.63l.48,.88c-.7,.46-1.54,.82-2.62,.82-2.12,0-3.8-1.55-3.8-4.15Zm5.55-.65c0-1.59-.71-2.46-1.96-2.46-1.12,0-2.11,.9-2.28,2.46h4.23Z"/>
    <path class="cls-4" d="M94.7,280.44v-10.04h1.34v10.14c0,.41,.18,.57,.37,.57,.08,0,.14,0,.29-.03l.18,1.02c-.19,.07-.42,.13-.77,.13-1.01,0-1.42-.64-1.42-1.79Z"/>
    <path class="cls-4" d="M102.9,276.68c0-3.46,2.04-5.56,4.75-5.56,1.3,0,2.32,.63,2.95,1.32l-.75,.89c-.56-.6-1.27-1.01-2.18-1.01-2.03,0-3.37,1.66-3.37,4.33s1.29,4.38,3.32,4.38c1.02,0,1.8-.44,2.48-1.2l.75,.85c-.85,.98-1.9,1.55-3.29,1.55-2.67,0-4.67-2.06-4.67-5.54Z"/>
    <path class="cls-4" d="M112.77,278.07c0-2.65,1.73-4.17,3.68-4.17s3.68,1.53,3.68,4.17-1.73,4.15-3.68,4.15-3.68-1.53-3.68-4.15Zm5.97,0c0-1.82-.93-3.06-2.29-3.06s-2.29,1.24-2.29,3.06,.92,3.04,2.29,3.04,2.29-1.22,2.29-3.04Zm-3.21-6.07l2.31-2.72,.95,.89-2.57,2.5-.69-.67Z"/>
    <path class="cls-4" d="M122.27,278.07c0-2.57,1.62-4.17,3.43-4.17,.92,0,1.53,.35,2.22,.92l-.06-1.36v-3.06h1.34v11.63h-1.11l-.11-.94h-.04c-.62,.62-1.46,1.13-2.41,1.13-1.98,0-3.27-1.51-3.27-4.15Zm5.6,1.94v-4.16c-.68-.6-1.29-.83-1.94-.83-1.27,0-2.28,1.22-2.28,3.03,0,1.9,.79,3.04,2.18,3.04,.73,0,1.37-.36,2.04-1.08Z"/>
    <path class="cls-4" d="M132.29,271.59c0-.53,.41-.87,.93-.87s.93,.34,.93,.87-.41,.87-.93,.87-.93-.36-.93-.87Zm.25,2.5h1.34v7.94h-1.34v-7.94Z"/>
    <path class="cls-4" d="M136.58,283.55c0-.68,.43-1.32,1.16-1.79v-.06c-.4-.25-.71-.68-.71-1.3,0-.66,.46-1.18,.87-1.47v-.07c-.53-.41-1.03-1.18-1.03-2.13,0-1.74,1.37-2.83,2.98-2.83,.44,0,.83,.09,1.12,.2h2.77v1.03h-1.63c.38,.36,.65,.96,.65,1.63,0,1.7-1.28,2.75-2.91,2.75-.38,0-.82-.09-1.18-.27-.29,.24-.51,.5-.51,.94,0,.5,.33,.86,1.39,.86h1.54c1.84,0,2.77,.58,2.77,1.9,0,1.47-1.56,2.74-4.01,2.74-1.94,0-3.29-.76-3.29-2.13Zm5.98-.42c0-.73-.56-.99-1.6-.99h-1.37c-.3,0-.68-.03-1.03-.12-.57,.4-.81,.88-.81,1.33,0,.85,.86,1.39,2.3,1.39s2.51-.79,2.51-1.62Zm-1.02-6.41c0-1.15-.75-1.85-1.69-1.85s-1.69,.69-1.69,1.85,.77,1.89,1.69,1.89,1.69-.73,1.69-1.89Z"/>
    <path class="cls-4" d="M145.23,278.07c0-2.65,1.73-4.17,3.68-4.17s3.68,1.53,3.68,4.17-1.73,4.15-3.68,4.15-3.68-1.53-3.68-4.15Zm5.97,0c0-1.82-.92-3.06-2.29-3.06s-2.29,1.24-2.29,3.06,.93,3.04,2.29,3.04,2.29-1.22,2.29-3.04Z"/>
    <path class="cls-4" d="M158.48,280.64l.82-.94c.77,.8,1.84,1.33,2.96,1.33,1.41,0,2.24-.7,2.24-1.74,0-1.09-.78-1.44-1.79-1.88l-1.54-.68c-1-.43-2.17-1.18-2.17-2.76s1.43-2.84,3.37-2.84c1.27,0,2.4,.55,3.16,1.33l-.72,.88c-.66-.62-1.44-1-2.43-1-1.2,0-2,.61-2,1.56,0,1.03,.94,1.42,1.77,1.77l1.53,.66c1.24,.53,2.21,1.27,2.21,2.87,0,1.69-1.4,3.04-3.65,3.04-1.5,0-2.81-.61-3.75-1.59Z"/>
    <path class="cls-4" d="M168.61,271.31h1.64l2.05,5.73c.26,.73,.5,1.49,.76,2.23h.07c.26-.74,.48-1.5,.74-2.23l2.03-5.73h1.64v10.72h-1.27v-5.9c0-.93,.11-2.22,.17-3.17h-.07l-.85,2.44-2.02,5.54h-.9l-2.03-5.54-.85-2.44h-.07c.07,.95,.17,2.24,.17,3.17v5.9h-1.23v-10.72Z"/>
    <path class="cls-4" d="M180.33,280.64l.82-.94c.77,.8,1.84,1.33,2.96,1.33,1.41,0,2.24-.7,2.24-1.74,0-1.09-.78-1.44-1.79-1.88l-1.54-.68c-1-.43-2.17-1.18-2.17-2.76s1.43-2.84,3.37-2.84c1.27,0,2.4,.55,3.16,1.33l-.72,.88c-.66-.62-1.44-1-2.43-1-1.2,0-2,.61-2,1.56,0,1.03,.93,1.42,1.77,1.77l1.53,.66c1.24,.53,2.21,1.27,2.21,2.87,0,1.69-1.4,3.04-3.65,3.04-1.5,0-2.81-.61-3.75-1.59Z"/>
  </g>
  <rect class="cls-3" x="27.77" y="292" width="366" height="40" rx="3" ry="3"/>
  <g>
    <path class="cls-1" d="M180.81,438.75c0-3.18,1.88-5.12,4.38-5.12,1.2,0,2.14,.58,2.71,1.22l-.69,.82c-.52-.55-1.17-.93-2-.93-1.87,0-3.1,1.53-3.1,3.98s1.18,4.03,3.05,4.03c.94,0,1.66-.41,2.29-1.11l.69,.79c-.78,.9-1.75,1.42-3.03,1.42-2.46,0-4.3-1.9-4.3-5.1Z"/>
    <path class="cls-1" d="M189.98,441.77c0-1.59,1.37-2.39,4.49-2.73,0-.94-.31-1.84-1.51-1.84-.85,0-1.61,.4-2.18,.78l-.48-.85c.67-.44,1.7-.95,2.87-.95,1.78,0,2.54,1.19,2.54,3v4.48h-1.02l-.1-.87h-.04c-.7,.58-1.51,1.05-2.42,1.05-1.22,0-2.14-.76-2.14-2.08Zm4.49,.11v-2.03c-2.45,.29-3.28,.89-3.28,1.83,0,.83,.56,1.17,1.28,1.17s1.29-.34,2-.97Z"/>
    <path class="cls-1" d="M198.6,436.36h1.02l.11,1.05h.04c.7-.69,1.45-1.23,2.45-1.23,1.54,0,2.23,.99,2.23,2.86v4.63h-1.24v-4.47c0-1.36-.41-1.94-1.38-1.94-.75,0-1.26,.38-2,1.12v5.29h-1.24v-7.31Z"/>
    <path class="cls-1" d="M206.87,440.03c0-2.44,1.65-3.84,3.51-3.84,.96,0,1.62,.4,2.14,.86l-.63,.82c-.43-.38-.88-.65-1.45-.65-1.32,0-2.29,1.14-2.29,2.81s.92,2.79,2.26,2.79c.67,0,1.26-.32,1.71-.73l.54,.83c-.66,.58-1.49,.93-2.36,.93-1.94,0-3.43-1.41-3.43-3.82Z"/>
    <path class="cls-1" d="M213.99,440.03c0-2.38,1.6-3.84,3.29-3.84,1.86,0,2.92,1.34,2.92,3.43,0,.26-.02,.52-.06,.7h-4.92c.09,1.55,1.04,2.55,2.43,2.55,.7,0,1.28-.23,1.82-.58l.44,.81c-.64,.42-1.42,.76-2.41,.76-1.95,0-3.5-1.42-3.5-3.82Zm5.11-.6c0-1.46-.66-2.26-1.8-2.26-1.03,0-1.95,.82-2.09,2.26h3.9Z"/>
    <path class="cls-1" d="M222.58,442.2v-9.24h1.24v9.33c0,.38,.17,.53,.34,.53,.07,0,.13,0,.27-.03l.17,.94c-.18,.06-.39,.12-.71,.12-.93,0-1.31-.59-1.31-1.65Z"/>
    <path class="cls-1" d="M226.55,441.77c0-1.59,1.37-2.39,4.49-2.73,0-.94-.32-1.84-1.51-1.84-.84,0-1.61,.4-2.18,.78l-.48-.85c.67-.44,1.7-.95,2.87-.95,1.78,0,2.54,1.19,2.54,3v4.48h-1.02l-.1-.87h-.04c-.7,.58-1.51,1.05-2.42,1.05-1.22,0-2.14-.76-2.14-2.08Zm4.49,.11v-2.03c-2.45,.29-3.28,.89-3.28,1.83,0,.83,.56,1.17,1.28,1.17s1.29-.34,2-.97Z"/>
    <path class="cls-1" d="M235.17,436.36h1.02l.1,1.33h.04c.51-.93,1.25-1.51,2.08-1.51,.32,0,.55,.04,.78,.15l-.23,1.08c-.25-.08-.42-.12-.71-.12-.62,0-1.35,.45-1.85,1.68v4.69h-1.24v-7.31Z"/>
    <path class="cls-1" d="M180.03,445.17v-.75h59.71v.75h-59.71Z"/>
  </g>
  <g>
    
    <g>
      
      
      
      
      
      
      
      
      
    </g>
  </g>
</svg>