<?xml version="1.0" encoding="UTF-8"?>
<svg id="Layer_2" data-name="Layer 2" xmlns="http://www.w3.org/2000/svg" viewBox="0 0 420 69">
  <defs>
    <style>
      .cls-1 {
        fill: #fff;
      }
    </style>
  </defs>
  <g>
    <path class="cls-1" d="M25.84,29.6l.46-.52c.43,.45,1.03,.74,1.65,.74,.78,0,1.25-.39,1.25-.97,0-.61-.43-.81-1-1.05l-.86-.38c-.56-.24-1.21-.66-1.21-1.54s.8-1.59,1.88-1.59c.71,0,1.34,.31,1.76,.74l-.4,.49c-.37-.35-.8-.56-1.36-.56-.67,0-1.12,.34-1.12,.87,0,.58,.52,.79,.99,.99l.85,.37c.69,.3,1.23,.71,1.23,1.6,0,.94-.78,1.7-2.04,1.7-.84,0-1.57-.34-2.09-.89Z"/>
    <path class="cls-1" d="M31.36,28.75v-2.81h.75v2.71c0,.82,.25,1.18,.84,1.18,.45,0,.77-.22,1.19-.75v-3.14h.75v4.43h-.62l-.06-.69h-.03c-.41,.48-.85,.8-1.46,.8-.93,0-1.35-.6-1.35-1.73Z"/>
    <path class="cls-1" d="M36.4,28.17c0-1.48,1-2.33,2.13-2.33,.58,0,.98,.24,1.29,.52l-.38,.5c-.26-.23-.53-.39-.88-.39-.8,0-1.39,.69-1.39,1.71s.55,1.69,1.37,1.69c.4,0,.76-.2,1.04-.44l.33,.5c-.4,.35-.9,.56-1.43,.56-1.18,0-2.08-.85-2.08-2.32Z"/>
    <path class="cls-1" d="M41.18,28.75v-2.81h.75v2.71c0,.82,.25,1.18,.84,1.18,.45,0,.77-.22,1.19-.75v-3.14h.75v4.43h-.62l-.06-.69h-.03c-.41,.48-.85,.8-1.46,.8-.93,0-1.35-.6-1.35-1.73Z"/>
    <path class="cls-1" d="M46.55,25.95h.62l.06,.81h.03c.31-.56,.76-.92,1.26-.92,.2,0,.33,.02,.47,.09l-.14,.66c-.15-.05-.25-.07-.43-.07-.38,0-.82,.27-1.12,1.02v2.84h-.75v-4.43Z"/>
    <path class="cls-1" d="M49.54,29.87l.37-.49c.38,.31,.78,.52,1.31,.52,.58,0,.87-.31,.87-.69,0-.46-.52-.66-1.01-.84-.62-.23-1.32-.53-1.32-1.28s.57-1.26,1.53-1.26c.55,0,1.03,.23,1.38,.5l-.36,.48c-.3-.23-.62-.39-1.01-.39-.56,0-.82,.3-.82,.64,0,.42,.48,.58,.98,.77,.64,.24,1.35,.5,1.35,1.34,0,.72-.57,1.32-1.62,1.32-.63,0-1.24-.27-1.65-.61Z"/>
    <path class="cls-1" d="M53.92,29.23c0-.96,.83-1.45,2.72-1.65,0-.57-.19-1.12-.91-1.12-.51,0-.97,.24-1.32,.47l-.29-.51c.41-.27,1.03-.58,1.74-.58,1.08,0,1.54,.72,1.54,1.82v2.72h-.62l-.06-.53h-.03c-.42,.35-.91,.64-1.46,.64-.74,0-1.3-.46-1.3-1.26Zm2.72,.07v-1.23c-1.48,.18-1.99,.54-1.99,1.11,0,.5,.34,.71,.78,.71s.78-.21,1.21-.59Z"/>
    <path class="cls-1" d="M59.14,29.49v-5.6h.75v5.66c0,.23,.1,.32,.21,.32,.04,0,.08,0,.16-.02l.1,.57c-.11,.04-.23,.07-.43,.07-.56,0-.79-.36-.79-1Z"/>
    <path class="cls-1" d="M61.49,28.17c0-1.44,.97-2.33,1.99-2.33,1.13,0,1.77,.81,1.77,2.08,0,.16-.01,.32-.04,.43h-2.98c.05,.94,.63,1.55,1.47,1.55,.42,0,.77-.14,1.1-.35l.27,.49c-.39,.25-.86,.46-1.46,.46-1.18,0-2.12-.86-2.12-2.32Zm3.1-.36c0-.89-.4-1.37-1.09-1.37-.62,0-1.18,.5-1.27,1.37h2.36Z"/>
    <path class="cls-1" d="M66.2,29.87l.37-.49c.38,.31,.78,.52,1.31,.52,.58,0,.87-.31,.87-.69,0-.46-.52-.66-1.01-.84-.62-.23-1.32-.53-1.32-1.28s.57-1.26,1.53-1.26c.55,0,1.03,.23,1.38,.5l-.36,.48c-.3-.23-.62-.39-1.01-.39-.56,0-.81,.3-.81,.64,0,.42,.48,.58,.98,.77,.64,.24,1.35,.5,1.35,1.34,0,.72-.57,1.32-1.62,1.32-.63,0-1.24-.27-1.65-.61Z"/>
    <path class="cls-1" d="M77.48,23.54h.53v9.11h-.53v-9.11Z"/>
    <path class="cls-1" d="M86.2,27.39c0-1.93,1.14-3.1,2.65-3.1,.73,0,1.29,.35,1.64,.74l-.42,.5c-.31-.34-.71-.56-1.21-.56-1.13,0-1.88,.92-1.88,2.42s.72,2.44,1.85,2.44c.57,0,1-.25,1.38-.67l.42,.48c-.47,.55-1.06,.86-1.83,.86-1.49,0-2.61-1.15-2.61-3.09Z"/>
    <path class="cls-1" d="M91.7,28.17c0-1.48,.97-2.33,2.05-2.33s2.05,.85,2.05,2.33-.96,2.32-2.05,2.32-2.05-.85-2.05-2.32Zm3.33,0c0-1.01-.52-1.71-1.28-1.71s-1.28,.69-1.28,1.71,.52,1.69,1.28,1.69,1.28-.68,1.28-1.69Z"/>
    <path class="cls-1" d="M97.32,25.95h.62l.06,.64h.03c.42-.42,.88-.75,1.48-.75,.93,0,1.35,.6,1.35,1.73v2.81h-.75v-2.71c0-.83-.25-1.18-.84-1.18-.45,0-.77,.23-1.21,.68v3.21h-.75v-4.43Z"/>
    <path class="cls-1" d="M102.79,29.01v-2.45h-.66v-.57l.69-.04,.09-1.24h.62v1.24h1.2v.61h-1.2v2.46c0,.54,.17,.86,.69,.86,.16,0,.36-.06,.5-.12l.14,.57c-.25,.08-.54,.16-.82,.16-.94,0-1.26-.6-1.26-1.48Z"/>
    <path class="cls-1" d="M105.63,29.23c0-.96,.83-1.45,2.72-1.65,0-.57-.19-1.12-.91-1.12-.51,0-.97,.24-1.32,.47l-.29-.51c.41-.27,1.03-.58,1.74-.58,1.08,0,1.54,.72,1.54,1.82v2.72h-.62l-.06-.53h-.03c-.42,.35-.91,.64-1.46,.64-.74,0-1.3-.46-1.3-1.26Zm2.72,.07v-1.23c-1.48,.18-1.99,.54-1.99,1.11,0,.5,.34,.71,.78,.71s.78-.21,1.21-.59Zm-1.31-4.52l1.29-1.52,.53,.5-1.43,1.39-.38-.37Z"/>
    <path class="cls-1" d="M110.52,28.17c0-1.48,1-2.33,2.13-2.33,.58,0,.98,.24,1.29,.52l-.38,.5c-.26-.23-.53-.39-.88-.39-.8,0-1.39,.69-1.39,1.71s.55,1.69,1.37,1.69c.4,0,.76-.2,1.04-.44l.33,.5c-.4,.35-.9,.56-1.43,.56-1.18,0-2.08-.85-2.08-2.32Z"/>
    <path class="cls-1" d="M115.4,29.01v-2.45h-.66v-.57l.69-.04,.09-1.24h.62v1.24h1.2v.61h-1.2v2.46c0,.54,.17,.86,.69,.86,.16,0,.36-.06,.5-.12l.14,.57c-.25,.08-.54,.16-.82,.16-.94,0-1.26-.6-1.26-1.48Z"/>
    <path class="cls-1" d="M118.24,28.17c0-1.44,.97-2.33,1.99-2.33,1.13,0,1.77,.81,1.77,2.08,0,.16-.01,.32-.04,.43h-2.98c.05,.94,.63,1.55,1.47,1.55,.43,0,.78-.14,1.1-.35l.27,.49c-.39,.25-.86,.46-1.46,.46-1.18,0-2.12-.86-2.12-2.32Zm3.1-.36c0-.89-.4-1.37-1.09-1.37-.62,0-1.18,.5-1.27,1.37h2.36Z"/>
    <path class="cls-1" d="M123.45,25.95h.62l.06,.64h.03c.42-.42,.88-.75,1.48-.75,.93,0,1.35,.6,1.35,1.73v2.81h-.75v-2.71c0-.83-.25-1.18-.84-1.18-.45,0-.77,.23-1.21,.68v3.21h-.75v-4.43Z"/>
    <path class="cls-1" d="M128.45,28.17c0-1.48,.97-2.33,2.05-2.33s2.05,.85,2.05,2.33-.96,2.32-2.05,2.32-2.05-.85-2.05-2.32Zm3.33,0c0-1.01-.52-1.71-1.28-1.71s-1.28,.69-1.28,1.71,.52,1.69,1.28,1.69,1.28-.68,1.28-1.69Z"/>
    <path class="cls-1" d="M133.56,29.87l.37-.49c.38,.31,.78,.52,1.31,.52,.58,0,.87-.31,.87-.69,0-.46-.52-.66-1.01-.84-.62-.23-1.32-.53-1.32-1.28s.57-1.26,1.53-1.26c.55,0,1.03,.23,1.38,.5l-.36,.48c-.3-.23-.62-.39-1.01-.39-.56,0-.81,.3-.81,.64,0,.42,.48,.58,.98,.77,.64,.24,1.35,.5,1.35,1.34,0,.72-.57,1.32-1.62,1.32-.63,0-1.24-.27-1.65-.61Z"/>
    <path class="cls-1" d="M144.84,23.54h.53v9.11h-.53v-9.11Z"/>
    <path class="cls-1" d="M153.91,24.4h1.71c1.34,0,2.24,.45,2.24,1.76s-.9,1.85-2.21,1.85h-.98v2.37h-.76v-5.98Zm1.65,2.99c1.05,0,1.54-.38,1.54-1.23s-.53-1.14-1.58-1.14h-.85v2.37h.89Z"/>
    <path class="cls-1" d="M158.8,28.17c0-1.48,.97-2.33,2.05-2.33s2.05,.85,2.05,2.33-.97,2.32-2.05,2.32-2.05-.85-2.05-2.32Zm3.33,0c0-1.01-.52-1.71-1.28-1.71s-1.28,.69-1.28,1.71,.52,1.69,1.28,1.69,1.28-.68,1.28-1.69Z"/>
    <path class="cls-1" d="M164.38,29.49v-5.6h.75v5.66c0,.23,.1,.32,.21,.32,.04,0,.08,0,.16-.02l.1,.57c-.11,.04-.23,.07-.43,.07-.56,0-.79-.36-.79-1Z"/>
    <path class="cls-1" d="M166.92,24.78l1.29-1.52,.53,.5-1.43,1.39-.39-.37Zm.14,1.17h.75v4.43h-.75v-4.43Z"/>
    <path class="cls-1" d="M169.79,29.01v-2.45h-.66v-.57l.69-.04,.09-1.24h.63v1.24h1.2v.61h-1.2v2.46c0,.54,.17,.86,.68,.86,.16,0,.36-.06,.51-.12l.14,.57c-.25,.08-.54,.16-.82,.16-.94,0-1.26-.6-1.26-1.48Z"/>
    <path class="cls-1" d="M172.96,24.55c0-.29,.22-.48,.52-.48s.52,.19,.52,.48-.23,.48-.52,.48-.52-.2-.52-.48Zm.14,1.39h.75v4.43h-.75v-4.43Z"/>
    <path class="cls-1" d="M175.36,28.17c0-1.48,1-2.33,2.13-2.33,.58,0,.98,.24,1.29,.52l-.38,.5c-.26-.23-.53-.39-.88-.39-.8,0-1.39,.69-1.39,1.71s.55,1.69,1.37,1.69c.4,0,.76-.2,1.04-.44l.33,.5c-.4,.35-.9,.56-1.43,.56-1.18,0-2.08-.85-2.08-2.32Z"/>
    <path class="cls-1" d="M179.83,29.23c0-.96,.83-1.45,2.72-1.65,0-.57-.19-1.12-.91-1.12-.51,0-.97,.24-1.32,.47l-.29-.51c.41-.27,1.03-.58,1.74-.58,1.08,0,1.54,.72,1.54,1.82v2.72h-.62l-.06-.53h-.03c-.42,.35-.92,.64-1.46,.64-.74,0-1.3-.46-1.3-1.26Zm2.72,.07v-1.23c-1.48,.18-1.98,.54-1.98,1.11,0,.5,.34,.71,.78,.71s.78-.21,1.21-.59Z"/>
    <path class="cls-1" d="M184.56,29.87l.37-.49c.38,.31,.78,.52,1.31,.52,.58,0,.87-.31,.87-.69,0-.46-.52-.66-1.01-.84-.62-.23-1.32-.53-1.32-1.28s.57-1.26,1.53-1.26c.55,0,1.03,.23,1.38,.5l-.36,.48c-.3-.23-.62-.39-1.01-.39-.56,0-.81,.3-.81,.64,0,.42,.48,.58,.98,.77,.64,.24,1.35,.5,1.35,1.34,0,.72-.57,1.32-1.62,1.32-.63,0-1.24-.27-1.65-.61Z"/>
    <path class="cls-1" d="M191.08,28.17c0-1.44,.91-2.33,1.92-2.33,.52,0,.85,.19,1.24,.51l-.03-.76v-1.71h.75v6.49h-.62l-.06-.52h-.03c-.34,.34-.82,.63-1.34,.63-1.11,0-1.82-.84-1.82-2.32Zm3.12,1.08v-2.32c-.38-.34-.72-.46-1.08-.46-.71,0-1.27,.68-1.27,1.69,0,1.06,.44,1.69,1.21,1.69,.41,0,.76-.2,1.13-.6Z"/>
    <path class="cls-1" d="M196.48,28.17c0-1.44,.97-2.33,1.99-2.33,1.13,0,1.77,.81,1.77,2.08,0,.16-.01,.32-.04,.43h-2.98c.05,.94,.63,1.55,1.47,1.55,.42,0,.77-.14,1.1-.35l.27,.49c-.39,.25-.86,.46-1.46,.46-1.18,0-2.12-.86-2.12-2.32Zm3.1-.36c0-.89-.4-1.37-1.09-1.37-.62,0-1.18,.5-1.27,1.37h2.36Z"/>
    <path class="cls-1" d="M203.93,24.4h1.71c1.34,0,2.24,.45,2.24,1.76s-.9,1.85-2.21,1.85h-.98v2.37h-.76v-5.98Zm1.65,2.99c1.05,0,1.54-.38,1.54-1.23s-.53-1.14-1.58-1.14h-.85v2.37h.89Z"/>
    <path class="cls-1" d="M209.37,25.95h.62l.06,.81h.02c.31-.56,.76-.92,1.26-.92,.2,0,.33,.02,.47,.09l-.14,.66c-.15-.05-.25-.07-.43-.07-.37,0-.82,.27-1.12,1.02v2.84h-.75v-4.43Z"/>
    <path class="cls-1" d="M212.75,24.55c0-.29,.23-.48,.52-.48s.52,.19,.52,.48-.23,.48-.52,.48-.52-.2-.52-.48Zm.14,1.39h.75v4.43h-.75v-4.43Z"/>
    <path class="cls-1" d="M214.84,25.95h.77l.84,2.52c.13,.43,.28,.88,.41,1.31h.04c.13-.42,.28-.87,.41-1.31l.84-2.52h.73l-1.56,4.43h-.87l-1.6-4.43Z"/>
    <path class="cls-1" d="M219.63,29.23c0-.96,.83-1.45,2.72-1.65,0-.57-.19-1.12-.91-1.12-.51,0-.97,.24-1.32,.47l-.29-.51c.41-.27,1.03-.58,1.74-.58,1.08,0,1.54,.72,1.54,1.82v2.72h-.62l-.06-.53h-.03c-.42,.35-.92,.64-1.46,.64-.74,0-1.3-.46-1.3-1.26Zm2.72,.07v-1.23c-1.48,.18-1.98,.54-1.98,1.11,0,.5,.34,.71,.78,.71s.78-.21,1.21-.59Z"/>
    <path class="cls-1" d="M224.52,28.17c0-1.48,1-2.33,2.13-2.33,.58,0,.98,.24,1.29,.52l-.38,.5c-.26-.23-.53-.39-.88-.39-.8,0-1.39,.69-1.39,1.71s.55,1.69,1.37,1.69c.4,0,.76-.2,1.04-.44l.33,.5c-.4,.35-.9,.56-1.43,.56-1.18,0-2.08-.85-2.08-2.32Z"/>
    <path class="cls-1" d="M229.22,24.55c0-.29,.22-.48,.52-.48s.52,.19,.52,.48-.23,.48-.52,.48-.52-.2-.52-.48Zm.14,1.39h.75v4.43h-.75v-4.43Z"/>
    <path class="cls-1" d="M231.64,28.17c0-1.44,.91-2.33,1.92-2.33,.52,0,.85,.19,1.24,.51l-.03-.76v-1.71h.75v6.49h-.62l-.06-.52h-.03c-.34,.34-.82,.63-1.34,.63-1.11,0-1.82-.84-1.82-2.32Zm3.12,1.08v-2.32c-.38-.34-.72-.46-1.08-.46-.71,0-1.27,.68-1.27,1.69,0,1.06,.44,1.69,1.21,1.69,.41,0,.76-.2,1.13-.6Z"/>
    <path class="cls-1" d="M237.09,29.23c0-.96,.83-1.45,2.72-1.65,0-.57-.19-1.12-.91-1.12-.51,0-.97,.24-1.32,.47l-.29-.51c.41-.27,1.03-.58,1.74-.58,1.08,0,1.54,.72,1.54,1.82v2.72h-.62l-.06-.53h-.03c-.42,.35-.91,.64-1.46,.64-.74,0-1.3-.46-1.3-1.26Zm2.72,.07v-1.23c-1.48,.18-1.99,.54-1.99,1.11,0,.5,.34,.71,.78,.71s.78-.21,1.21-.59Z"/>
    <path class="cls-1" d="M241.99,28.17c0-1.44,.91-2.33,1.92-2.33,.52,0,.85,.19,1.24,.51l-.03-.76v-1.71h.75v6.49h-.62l-.06-.52h-.03c-.34,.34-.82,.63-1.34,.63-1.11,0-1.82-.84-1.82-2.32Zm3.12,1.08v-2.32c-.38-.34-.72-.46-1.08-.46-.71,0-1.27,.68-1.27,1.69,0,1.06,.44,1.69,1.21,1.69,.41,0,.76-.2,1.13-.6Z"/>
    <path class="cls-1" d="M254.34,23.54h.53v9.11h-.53v-9.11Z"/>
    <path class="cls-1" d="M264.64,25.04h-1.81v-.64h4.38v.64h-1.81v5.33h-.76v-5.33Z"/>
    <path class="cls-1" d="M267.64,28.17c0-1.44,.97-2.33,1.99-2.33,1.13,0,1.77,.81,1.77,2.08,0,.16-.01,.32-.04,.43h-2.98c.05,.94,.63,1.55,1.47,1.55,.42,0,.77-.14,1.1-.35l.27,.49c-.39,.25-.86,.46-1.46,.46-1.18,0-2.12-.86-2.12-2.32Zm3.1-.36c0-.89-.4-1.37-1.09-1.37-.62,0-1.18,.5-1.27,1.37h2.36Zm-1.62-3.03l1.29-1.52,.53,.5-1.43,1.39-.39-.37Z"/>
    <path class="cls-1" d="M272.84,25.95h.62l.06,.81h.03c.31-.56,.76-.92,1.26-.92,.2,0,.33,.02,.47,.09l-.14,.66c-.15-.05-.25-.07-.43-.07-.38,0-.82,.27-1.12,1.02v2.84h-.75v-4.43Z"/>
    <path class="cls-1" d="M276.36,25.95h.62l.06,.64h.03c.39-.42,.85-.75,1.38-.75,.68,0,1.04,.32,1.22,.84,.46-.5,.92-.84,1.46-.84,.91,0,1.35,.6,1.35,1.73v2.81h-.75v-2.71c0-.83-.26-1.18-.82-1.18-.34,0-.7,.22-1.11,.68v3.21h-.75v-2.71c0-.83-.26-1.18-.82-1.18-.33,0-.7,.22-1.11,.68v3.21h-.75v-4.43Z"/>
    <path class="cls-1" d="M284.12,24.55c0-.29,.23-.48,.52-.48s.52,.19,.52,.48-.23,.48-.52,.48-.52-.2-.52-.48Zm.14,1.39h.75v4.43h-.75v-4.43Z"/>
    <path class="cls-1" d="M286.86,25.95h.62l.06,.64h.02c.42-.42,.88-.75,1.49-.75,.93,0,1.35,.6,1.35,1.73v2.81h-.75v-2.71c0-.83-.25-1.18-.83-1.18-.45,0-.77,.23-1.21,.68v3.21h-.75v-4.43Z"/>
    <path class="cls-1" d="M291.86,28.17c0-1.48,.97-2.33,2.05-2.33s2.05,.85,2.05,2.33-.96,2.32-2.05,2.32-2.05-.85-2.05-2.32Zm3.33,0c0-1.01-.52-1.71-1.28-1.71s-1.28,.69-1.28,1.71,.52,1.69,1.28,1.69,1.28-.68,1.28-1.69Z"/>
    <path class="cls-1" d="M296.97,29.87l.37-.49c.38,.31,.78,.52,1.31,.52,.58,0,.87-.31,.87-.69,0-.46-.52-.66-1.01-.84-.62-.23-1.32-.53-1.32-1.28s.57-1.26,1.53-1.26c.55,0,1.03,.23,1.38,.5l-.36,.48c-.3-.23-.62-.39-1.01-.39-.56,0-.81,.3-.81,.64,0,.42,.48,.58,.98,.77,.64,.24,1.35,.5,1.35,1.34,0,.72-.57,1.32-1.62,1.32-.63,0-1.24-.27-1.65-.61Z"/>
    <path class="cls-1" d="M303.37,32.19l.15-.6c.09,.03,.22,.07,.34,.07,.5,0,.81-.4,1-.95l.1-.33-1.78-4.44h.77l.9,2.45c.14,.38,.29,.84,.43,1.25h.04c.13-.4,.25-.86,.37-1.25l.79-2.45h.73l-1.67,4.79c-.31,.88-.77,1.54-1.66,1.54-.21,0-.38-.04-.52-.09Z"/>
    <path class="cls-1" d="M310.32,27.39c0-1.93,1.14-3.1,2.65-3.1,.72,0,1.29,.35,1.64,.74l-.42,.5c-.31-.34-.71-.56-1.21-.56-1.13,0-1.88,.92-1.88,2.42s.72,2.44,1.85,2.44c.57,0,1-.25,1.39-.67l.42,.48c-.47,.55-1.06,.86-1.83,.86-1.49,0-2.61-1.15-2.61-3.09Z"/>
    <path class="cls-1" d="M315.83,28.17c0-1.48,.97-2.33,2.05-2.33s2.05,.85,2.05,2.33-.96,2.32-2.05,2.32-2.05-.85-2.05-2.32Zm3.33,0c0-1.01-.52-1.71-1.28-1.71s-1.28,.69-1.28,1.71,.52,1.69,1.28,1.69,1.28-.68,1.28-1.69Z"/>
    <path class="cls-1" d="M321.45,25.95h.62l.06,.64h.02c.42-.42,.88-.75,1.49-.75,.93,0,1.35,.6,1.35,1.73v2.81h-.75v-2.71c0-.83-.25-1.18-.83-1.18-.45,0-.77,.23-1.21,.68v3.21h-.75v-4.43Z"/>
    <path class="cls-1" d="M326.47,28.17c0-1.44,.91-2.33,1.92-2.33,.52,0,.85,.19,1.24,.51l-.03-.76v-1.71h.75v6.49h-.62l-.06-.52h-.03c-.34,.34-.82,.63-1.34,.63-1.11,0-1.82-.84-1.82-2.32Zm3.12,1.08v-2.32c-.38-.34-.72-.46-1.08-.46-.71,0-1.27,.68-1.27,1.69,0,1.06,.44,1.69,1.21,1.69,.41,0,.76-.2,1.13-.6Z"/>
    <path class="cls-1" d="M332.06,24.55c0-.29,.22-.48,.52-.48s.52,.19,.52,.48-.23,.48-.52,.48-.52-.2-.52-.48Zm.14,1.39h.75v4.43h-.75v-4.43Z"/>
    <path class="cls-1" d="M334.46,28.17c0-1.48,1-2.33,2.13-2.33,.58,0,.98,.24,1.29,.52l-.38,.5c-.26-.23-.53-.39-.88-.39-.8,0-1.39,.69-1.39,1.71s.55,1.69,1.37,1.69c.4,0,.76-.2,1.04-.44l.33,.5c-.4,.35-.9,.56-1.43,.56-1.18,0-2.08-.85-2.08-2.32Z"/>
    <path class="cls-1" d="M339.16,24.55c0-.29,.22-.48,.52-.48s.52,.19,.52,.48-.23,.48-.52,.48-.52-.2-.52-.48Zm.14,1.39h.75v4.43h-.75v-4.43Z"/>
    <path class="cls-1" d="M341.56,28.17c0-1.48,.97-2.33,2.05-2.33s2.05,.85,2.05,2.33-.96,2.32-2.05,2.32-2.05-.85-2.05-2.32Zm3.33,0c0-1.01-.52-1.71-1.28-1.71s-1.28,.69-1.28,1.71,.52,1.69,1.28,1.69,1.28-.68,1.28-1.69Z"/>
    <path class="cls-1" d="M347.19,25.95h.62l.06,.64h.02c.42-.42,.88-.75,1.49-.75,.93,0,1.35,.6,1.35,1.73v2.81h-.75v-2.71c0-.83-.25-1.18-.83-1.18-.45,0-.77,.23-1.21,.68v3.21h-.75v-4.43Z"/>
    <path class="cls-1" d="M352.19,28.17c0-1.44,.97-2.33,1.99-2.33,1.13,0,1.77,.81,1.77,2.08,0,.16-.01,.32-.04,.43h-2.98c.05,.94,.63,1.55,1.47,1.55,.42,0,.77-.14,1.1-.35l.27,.49c-.39,.25-.86,.46-1.46,.46-1.18,0-2.12-.86-2.12-2.32Zm3.1-.36c0-.89-.4-1.37-1.09-1.37-.62,0-1.18,.5-1.27,1.37h2.36Z"/>
    <path class="cls-1" d="M356.9,29.87l.37-.49c.38,.31,.78,.52,1.31,.52,.58,0,.87-.31,.87-.69,0-.46-.52-.66-1.01-.84-.62-.23-1.32-.53-1.32-1.28s.57-1.26,1.53-1.26c.55,0,1.03,.23,1.38,.5l-.36,.48c-.3-.23-.62-.39-1.01-.39-.56,0-.81,.3-.81,.64,0,.42,.48,.58,.98,.77,.64,.24,1.35,.5,1.35,1.34,0,.72-.57,1.32-1.62,1.32-.63,0-1.24-.27-1.65-.61Z"/>
    <path class="cls-1" d="M368.18,23.54h.53v9.11h-.53v-9.11Z"/>
    <path class="cls-1" d="M377.25,24.4h3.45v.64h-2.69v2.02h2.28v.64h-2.28v2.67h-.76v-5.98Z"/>
    <path class="cls-1" d="M382.99,24.4h.86l2.02,5.98h-.81l-1.04-3.34c-.21-.67-.41-1.33-.6-2.01h-.04c-.19,.69-.38,1.35-.59,2.01l-1.05,3.34h-.77l2.02-5.98Zm-.96,3.55h2.75v.61h-2.75v-.61Z"/>
    <path class="cls-1" d="M386.64,27.37c0-1.92,1.05-3.08,2.55-3.08s2.55,1.17,2.55,3.08-1.05,3.12-2.55,3.12-2.55-1.21-2.55-3.12Zm4.32,0c0-1.49-.7-2.41-1.77-2.41s-1.77,.92-1.77,2.41,.7,2.49,1.77,2.49,1.77-.97,1.77-2.49Zm-2.18,2.99l.79-.06c.24,.63,.83,.95,1.53,.95,.27,0,.47-.04,.63-.09l.15,.59c-.18,.07-.5,.14-.85,.14-1.15,0-1.92-.65-2.24-1.53Z"/>
    <path class="cls-1" d="M392.83,29.87l.37-.49c.38,.31,.78,.52,1.31,.52,.58,0,.87-.31,.87-.69,0-.46-.52-.66-1.01-.84-.62-.23-1.32-.53-1.32-1.28s.57-1.26,1.53-1.26c.55,0,1.03,.23,1.38,.5l-.36,.48c-.3-.23-.62-.39-1.01-.39-.56,0-.82,.3-.82,.64,0,.42,.48,.58,.98,.77,.64,.24,1.35,.5,1.35,1.34,0,.72-.57,1.32-1.62,1.32-.63,0-1.24-.27-1.65-.61Z"/>
  </g>
  <g>
    <path class="cls-1" d="M110.79,43.43c0-1.23,.35-2.24,.92-3.18l.36,.17c-.54,.89-.8,1.95-.8,3.01s.26,2.12,.8,3.01l-.36,.17c-.58-.94-.92-1.95-.92-3.18Z"/>
    <path class="cls-1" d="M112.98,43.08c0-1.48,.87-2.39,2.04-2.39,.56,0,1,.27,1.26,.57l-.32,.38c-.24-.26-.54-.43-.93-.43-.87,0-1.45,.71-1.45,1.86s.55,1.88,1.42,1.88c.44,0,.77-.19,1.06-.52l.32,.37c-.36,.42-.81,.66-1.41,.66-1.14,0-2-.89-2-2.38Z"/>
    <path class="cls-1" d="M117.15,46.44c.54-.89,.8-1.95,.8-3.01s-.26-2.12-.8-3.01l.36-.17c.58,.94,.93,1.95,.93,3.18s-.35,2.24-.93,3.18l-.36-.17Z"/>
    <path class="cls-1" d="M121.31,43.08c0-1.48,.87-2.39,2.04-2.39,.56,0,.99,.27,1.26,.57l-.32,.38c-.24-.26-.55-.43-.93-.43-.87,0-1.45,.71-1.45,1.86s.55,1.88,1.42,1.88c.44,0,.77-.19,1.07-.52l.32,.37c-.36,.42-.81,.66-1.41,.66-1.14,0-2-.89-2-2.38Z"/>
    <path class="cls-1" d="M125.54,43.68c0-1.14,.74-1.79,1.58-1.79s1.58,.65,1.58,1.79-.74,1.78-1.58,1.78-1.58-.65-1.58-1.78Zm2.56,0c0-.78-.4-1.31-.98-1.31s-.98,.53-.98,1.31,.4,1.3,.98,1.3,.98-.52,.98-1.3Z"/>
    <path class="cls-1" d="M129.86,41.97h.48l.05,.39h.02c.31-.26,.69-.48,1.09-.48,.88,0,1.35,.68,1.35,1.73,0,1.16-.7,1.84-1.47,1.84-.31,0-.63-.14-.94-.39l.02,.59v1.15h-.58v-4.84Zm2.38,1.66c0-.75-.26-1.25-.9-1.25-.29,0-.58,.16-.91,.46v1.78c.31,.26,.6,.35,.83,.35,.56,0,.98-.51,.98-1.35Z"/>
    <path class="cls-1" d="M133.65,46.77l.11-.46c.07,.02,.17,.05,.26,.05,.38,0,.62-.31,.77-.73l.08-.25-1.37-3.41h.59l.69,1.88c.11,.29,.22,.64,.33,.96h.03c.1-.31,.19-.66,.29-.96l.61-1.88h.56l-1.28,3.68c-.24,.68-.59,1.19-1.27,1.19-.16,0-.29-.03-.4-.07Z"/>
    <path class="cls-1" d="M137.54,41.97h.48l.05,.62h.02c.24-.43,.58-.7,.97-.7,.15,0,.26,.02,.36,.07l-.11,.51c-.12-.04-.19-.06-.33-.06-.29,0-.63,.21-.86,.78v2.19h-.58v-3.4Z"/>
    <path class="cls-1" d="M140.13,40.9c0-.23,.17-.37,.4-.37s.4,.15,.4,.37-.17,.37-.4,.37-.4-.15-.4-.37Zm.11,1.07h.58v3.4h-.58v-3.4Z"/>
    <path class="cls-1" d="M141.97,46.03c0-.29,.19-.57,.5-.77v-.03c-.17-.11-.3-.29-.3-.56,0-.28,.2-.51,.38-.63v-.03c-.22-.18-.44-.51-.44-.91,0-.75,.59-1.21,1.28-1.21,.19,0,.36,.04,.48,.08h1.19v.44h-.7c.16,.16,.28,.41,.28,.7,0,.73-.55,1.18-1.25,1.18-.16,0-.35-.04-.51-.12-.12,.1-.22,.22-.22,.4,0,.22,.14,.37,.6,.37h.66c.79,0,1.19,.25,1.19,.81,0,.63-.67,1.18-1.72,1.18-.83,0-1.41-.33-1.41-.91Zm2.56-.18c0-.31-.24-.42-.69-.42h-.59c-.13,0-.29-.01-.44-.05-.24,.17-.35,.38-.35,.57,0,.37,.37,.6,.99,.6s1.07-.34,1.07-.69Zm-.44-2.75c0-.5-.32-.79-.72-.79s-.72,.29-.72,.79,.33,.81,.72,.81,.72-.31,.72-.81Z"/>
    <path class="cls-1" d="M146.03,40.39h.58v1.36l-.02,.7c.32-.31,.66-.56,1.13-.56,.72,0,1.04,.46,1.04,1.33v2.16h-.58v-2.08c0-.63-.19-.91-.64-.91-.35,0-.59,.18-.93,.52v2.47h-.58v-4.99Z"/>
    <path class="cls-1" d="M150.21,44.32v-1.88h-.51v-.44l.53-.03,.07-.96h.48v.96h.92v.47h-.92v1.89c0,.42,.13,.66,.53,.66,.12,0,.28-.05,.39-.09l.11,.43c-.19,.06-.42,.13-.63,.13-.72,0-.97-.46-.97-1.14Z"/>
    <path class="cls-1" d="M154.48,40.78h1.36c.94,0,1.58,.32,1.58,1.13,0,.45-.24,.86-.67,1v.03c.55,.11,.94,.47,.94,1.1,0,.9-.71,1.34-1.74,1.34h-1.47v-4.6Zm1.27,1.96c.78,0,1.11-.29,1.11-.75,0-.54-.37-.74-1.08-.74h-.71v1.49h.68Zm.12,2.18c.79,0,1.25-.28,1.25-.9,0-.57-.45-.83-1.25-.83h-.8v1.73h.8Z"/>
    <path class="cls-1" d="M158.6,44.49c0-.74,.64-1.11,2.09-1.27,0-.44-.15-.86-.7-.86-.39,0-.75,.19-1.02,.36l-.22-.39c.31-.21,.79-.44,1.34-.44,.83,0,1.18,.55,1.18,1.4v2.09h-.48l-.05-.41h-.02c-.33,.27-.71,.49-1.13,.49-.57,0-1-.35-1-.97Zm2.09,.05v-.95c-1.14,.14-1.53,.42-1.53,.85,0,.39,.26,.54,.6,.54s.6-.16,.93-.45Z"/>
    <path class="cls-1" d="M162.62,41.97h.48l.05,.49h.02c.32-.32,.67-.58,1.14-.58,.72,0,1.04,.46,1.04,1.33v2.16h-.58v-2.08c0-.63-.19-.91-.64-.91-.35,0-.59,.18-.93,.52v2.47h-.58v-3.4Z"/>
    <path class="cls-1" d="M166.72,41.97h.48l.05,.39h.02c.31-.26,.69-.48,1.09-.48,.88,0,1.35,.68,1.35,1.73,0,1.16-.7,1.84-1.47,1.84-.31,0-.63-.14-.94-.39l.02,.59v1.15h-.58v-4.84Zm2.38,1.66c0-.75-.26-1.25-.9-1.25-.29,0-.58,.16-.91,.46v1.78c.31,.26,.6,.35,.83,.35,.56,0,.98-.51,.98-1.35Z"/>
    <path class="cls-1" d="M170.88,41.97h.48l.05,.62h.02c.24-.43,.58-.7,.97-.7,.15,0,.26,.02,.36,.07l-.11,.51c-.12-.04-.19-.06-.33-.06-.29,0-.63,.21-.86,.78v2.19h-.58v-3.4Z"/>
    <path class="cls-1" d="M173.25,43.68c0-1.14,.74-1.79,1.58-1.79s1.58,.65,1.58,1.79-.74,1.78-1.58,1.78-1.58-.65-1.58-1.78Zm2.56,0c0-.78-.4-1.31-.98-1.31s-.98,.53-.98,1.31,.4,1.3,.98,1.3,.98-.52,.98-1.3Z"/>
    <path class="cls-1" d="M179.27,40.78h.6l1.66,2.89,.5,.95h.03c-.03-.46-.07-.98-.07-1.46v-2.38h.56v4.6h-.61l-1.66-2.89-.5-.95h-.03c.03,.47,.07,.96,.07,1.44v2.41h-.55v-4.6Z"/>
    <path class="cls-1" d="M183.92,40.9c0-.23,.17-.37,.4-.37s.4,.15,.4,.37-.17,.37-.4,.37-.4-.15-.4-.37Zm.11,1.07h.58v3.4h-.58v-3.4Z"/>
    <path class="cls-1" d="M185.76,43.68c0-1.14,.77-1.79,1.64-1.79,.45,0,.76,.18,.99,.4l-.29,.38c-.2-.18-.41-.3-.68-.3-.62,0-1.07,.53-1.07,1.31s.43,1.3,1.05,1.3c.31,0,.59-.15,.8-.34l.25,.39c-.31,.27-.69,.43-1.1,.43-.9,0-1.6-.65-1.6-1.78Z"/>
    <path class="cls-1" d="M189.2,44.49c0-.74,.64-1.11,2.09-1.27,0-.44-.15-.86-.7-.86-.39,0-.75,.19-1.02,.36l-.23-.39c.31-.21,.79-.44,1.34-.44,.83,0,1.18,.55,1.18,1.4v2.09h-.47l-.05-.41h-.02c-.32,.27-.7,.49-1.12,.49-.57,0-1-.35-1-.97Zm2.09,.05v-.95c-1.14,.14-1.53,.42-1.53,.85,0,.39,.26,.54,.6,.54s.6-.16,.93-.45Z"/>
    <path class="cls-1" d="M193.21,41.97h.48l.05,.62h.02c.24-.43,.59-.7,.97-.7,.15,0,.26,.02,.36,.07l-.11,.51c-.12-.04-.19-.06-.33-.06-.29,0-.63,.21-.86,.78v2.19h-.58v-3.4Z"/>
    <path class="cls-1" d="M195.54,44.49c0-.74,.64-1.11,2.09-1.27,0-.44-.15-.86-.7-.86-.39,0-.75,.19-1.02,.36l-.22-.39c.31-.21,.79-.44,1.34-.44,.83,0,1.18,.55,1.18,1.4v2.09h-.48l-.05-.41h-.02c-.33,.27-.71,.49-1.13,.49-.57,0-1-.35-1-.97Zm2.09,.05v-.95c-1.14,.14-1.53,.42-1.53,.85,0,.39,.26,.54,.6,.54s.6-.16,.93-.45Z"/>
    <path class="cls-1" d="M199.29,46.03c0-.29,.19-.57,.5-.77v-.03c-.17-.11-.3-.29-.3-.56,0-.28,.2-.51,.38-.63v-.03c-.23-.18-.44-.51-.44-.91,0-.75,.59-1.21,1.28-1.21,.19,0,.36,.04,.48,.08h1.19v.44h-.7c.16,.16,.28,.41,.28,.7,0,.73-.55,1.18-1.25,1.18-.17,0-.35-.04-.51-.12-.12,.1-.22,.22-.22,.4,0,.22,.14,.37,.6,.37h.66c.79,0,1.19,.25,1.19,.81,0,.63-.67,1.18-1.72,1.18-.83,0-1.41-.33-1.41-.91Zm2.57-.18c0-.31-.24-.42-.69-.42h-.59c-.13,0-.29-.01-.44-.05-.24,.17-.35,.38-.35,.57,0,.37,.37,.6,.99,.6s1.08-.34,1.08-.69Zm-.44-2.75c0-.5-.32-.79-.72-.79s-.72,.29-.72,.79,.33,.81,.72,.81,.72-.31,.72-.81Z"/>
    <path class="cls-1" d="M203.3,44.13v-2.16h.58v2.08c0,.63,.19,.91,.64,.91,.35,0,.59-.17,.91-.57v-2.41h.58v3.4h-.47l-.05-.53h-.02c-.32,.37-.66,.62-1.12,.62-.72,0-1.04-.46-1.04-1.33Z"/>
    <path class="cls-1" d="M207.22,44.49c0-.74,.64-1.11,2.09-1.27,0-.44-.15-.86-.7-.86-.39,0-.75,.19-1.02,.36l-.23-.39c.31-.21,.79-.44,1.34-.44,.83,0,1.18,.55,1.18,1.4v2.09h-.47l-.05-.41h-.02c-.32,.27-.7,.49-1.12,.49-.57,0-1-.35-1-.97Zm2.09,.05v-.95c-1.14,.14-1.53,.42-1.53,.85,0,.39,.26,.54,.6,.54s.6-.16,.93-.45Z"/>
    <path class="cls-1" d="M211.11,45.02c0-.26,.19-.44,.42-.44s.42,.18,.42,.44-.19,.44-.42,.44-.42-.18-.42-.44Z"/>
    <path class="cls-1" d="M215.93,41.28h-1.39v-.5h3.37v.5h-1.39v4.1h-.59v-4.1Z"/>
    <path class="cls-1" d="M218.23,43.68c0-1.14,.74-1.79,1.58-1.79s1.58,.65,1.58,1.79-.74,1.78-1.58,1.78-1.58-.65-1.58-1.78Zm2.56,0c0-.78-.4-1.31-.98-1.31s-.98,.53-.98,1.31,.4,1.3,.98,1.3,.98-.52,.98-1.3Z"/>
    <path class="cls-1" d="M222.31,43.68c0-1.1,.7-1.79,1.47-1.79,.4,0,.66,.15,.96,.39l-.03-.58v-1.31h.58v4.99h-.47l-.05-.4h-.02c-.27,.27-.63,.49-1.03,.49-.85,0-1.4-.65-1.4-1.78Zm2.4,.83v-1.78c-.29-.26-.55-.35-.83-.35-.54,0-.98,.53-.98,1.3,0,.82,.34,1.3,.93,1.3,.32,0,.59-.15,.87-.46Z"/>
    <path class="cls-1" d="M226.46,43.68c0-1.14,.74-1.79,1.58-1.79s1.58,.65,1.58,1.79-.74,1.78-1.58,1.78-1.58-.65-1.58-1.78Zm2.56,0c0-.78-.4-1.31-.98-1.31s-.98,.53-.98,1.31,.4,1.3,.98,1.3,.98-.52,.98-1.3Z"/>
    <path class="cls-1" d="M230.38,44.99l.29-.38c.29,.24,.6,.4,1,.4,.45,0,.67-.24,.67-.53,0-.35-.4-.5-.78-.65-.48-.17-1.02-.41-1.02-.98,0-.54,.44-.97,1.17-.97,.42,0,.79,.17,1.06,.38l-.28,.37c-.23-.17-.47-.3-.78-.3-.43,0-.63,.23-.63,.49,0,.32,.37,.45,.76,.59,.49,.19,1.04,.38,1.04,1.03,0,.55-.44,1.01-1.24,1.01-.48,0-.95-.21-1.27-.47Z"/>
    <path class="cls-1" d="M235.64,44.69v-4.31h.58v4.35c0,.18,.08,.25,.16,.25,.03,0,.06,0,.12-.01l.08,.44c-.08,.03-.18,.05-.33,.05-.43,0-.61-.28-.61-.77Z"/>
    <path class="cls-1" d="M237.44,43.68c0-1.14,.74-1.79,1.58-1.79s1.58,.65,1.58,1.79-.74,1.78-1.58,1.78-1.58-.65-1.58-1.78Zm2.56,0c0-.78-.4-1.31-.98-1.31s-.98,.53-.98,1.31,.4,1.3,.98,1.3,.98-.52,.98-1.3Z"/>
    <path class="cls-1" d="M241.37,44.99l.28-.38c.3,.24,.6,.4,1.01,.4,.45,0,.67-.24,.67-.53,0-.35-.4-.5-.78-.65-.48-.17-1.02-.41-1.02-.98,0-.54,.44-.97,1.17-.97,.42,0,.79,.17,1.06,.38l-.28,.37c-.23-.17-.47-.3-.78-.3-.43,0-.63,.23-.63,.49,0,.32,.37,.45,.76,.59,.49,.19,1.04,.38,1.04,1.03,0,.55-.44,1.01-1.24,1.01-.48,0-.95-.21-1.27-.47Z"/>
    <path class="cls-1" d="M246.39,43.68c0-1.1,.7-1.79,1.47-1.79,.4,0,.65,.15,.95,.39l-.02-.58v-1.31h.58v4.99h-.48l-.05-.4h-.02c-.26,.27-.63,.49-1.03,.49-.85,0-1.4-.65-1.4-1.78Zm2.4,.83v-1.78c-.29-.26-.55-.35-.83-.35-.54,0-.98,.53-.98,1.3,0,.82,.34,1.3,.94,1.3,.31,0,.59-.15,.87-.46Z"/>
    <path class="cls-1" d="M250.53,43.68c0-1.11,.75-1.79,1.53-1.79,.87,0,1.36,.62,1.36,1.6,0,.12-.01,.24-.03,.33h-2.29c.04,.72,.48,1.19,1.13,1.19,.33,0,.6-.11,.85-.27l.21,.38c-.3,.2-.66,.35-1.12,.35-.91,0-1.63-.66-1.63-1.78Zm2.38-.28c0-.68-.31-1.05-.84-1.05-.48,0-.91,.38-.98,1.05h1.82Z"/>
    <path class="cls-1" d="M254.53,41.97h.48l.05,.62h.02c.24-.43,.58-.7,.97-.7,.15,0,.26,.02,.36,.07l-.11,.51c-.12-.04-.19-.06-.33-.06-.29,0-.63,.21-.86,.78v2.19h-.58v-3.4Z"/>
    <path class="cls-1" d="M256.91,43.68c0-1.11,.75-1.79,1.53-1.79,.87,0,1.36,.62,1.36,1.6,0,.12-.01,.24-.03,.33h-2.29c.04,.72,.48,1.19,1.13,1.19,.33,0,.6-.11,.85-.27l.21,.38c-.3,.2-.66,.35-1.12,.35-.91,0-1.63-.66-1.63-1.78Zm2.38-.28c0-.68-.31-1.05-.84-1.05-.48,0-.91,.38-.98,1.05h1.82Z"/>
    <path class="cls-1" d="M260.66,43.68c0-1.14,.77-1.79,1.64-1.79,.45,0,.76,.18,.99,.4l-.29,.38c-.2-.18-.41-.3-.68-.3-.62,0-1.07,.53-1.07,1.31s.43,1.3,1.05,1.3c.31,0,.59-.15,.8-.34l.25,.39c-.31,.27-.69,.43-1.1,.43-.9,0-1.6-.65-1.6-1.78Z"/>
    <path class="cls-1" d="M264.37,40.39h.58v1.36l-.02,.7c.32-.31,.66-.56,1.13-.56,.72,0,1.04,.46,1.04,1.33v2.16h-.58v-2.08c0-.63-.19-.91-.64-.91-.35,0-.59,.18-.93,.52v2.47h-.58v-4.99Z"/>
    <path class="cls-1" d="M268.2,43.68c0-1.14,.74-1.79,1.58-1.79s1.58,.65,1.58,1.79-.74,1.78-1.58,1.78-1.58-.65-1.58-1.78Zm2.56,0c0-.78-.4-1.31-.98-1.31s-.98,.53-.98,1.31,.4,1.3,.98,1.3,.98-.52,.98-1.3Z"/>
    <path class="cls-1" d="M272.13,44.99l.28-.38c.3,.24,.6,.4,1.01,.4,.45,0,.67-.24,.67-.53,0-.35-.4-.5-.78-.65-.48-.17-1.02-.41-1.02-.98,0-.54,.44-.97,1.17-.97,.42,0,.79,.17,1.06,.38l-.28,.37c-.23-.17-.47-.3-.78-.3-.43,0-.63,.23-.63,.49,0,.32,.37,.45,.76,.59,.49,.19,1.04,.38,1.04,1.03,0,.55-.44,1.01-1.24,1.01-.48,0-.95-.21-1.27-.47Z"/>
    <path class="cls-1" d="M277.39,41.97h.48l.05,.62h.02c.24-.43,.59-.7,.97-.7,.15,0,.26,.02,.36,.07l-.11,.51c-.12-.04-.19-.06-.33-.06-.29,0-.63,.21-.86,.78v2.19h-.58v-3.4Z"/>
    <path class="cls-1" d="M279.77,43.68c0-1.11,.75-1.79,1.53-1.79,.87,0,1.36,.62,1.36,1.6,0,.12,0,.24-.03,.33h-2.29c.04,.72,.48,1.19,1.13,1.19,.33,0,.59-.11,.85-.27l.21,.38c-.3,.2-.66,.35-1.12,.35-.91,0-1.63-.66-1.63-1.78Zm2.38-.28c0-.68-.31-1.05-.84-1.05-.48,0-.91,.38-.98,1.05h1.81Z"/>
    <path class="cls-1" d="M283.39,44.99l.28-.38c.3,.24,.6,.4,1.01,.4,.45,0,.67-.24,.67-.53,0-.35-.4-.5-.78-.65-.48-.17-1.02-.41-1.02-.98,0-.54,.44-.97,1.17-.97,.42,0,.79,.17,1.06,.38l-.28,.37c-.23-.17-.47-.3-.78-.3-.43,0-.63,.23-.63,.49,0,.32,.37,.45,.76,.59,.49,.19,1.04,.38,1.04,1.03,0,.55-.44,1.01-1.24,1.01-.48,0-.95-.21-1.27-.47Z"/>
    <path class="cls-1" d="M286.72,43.68c0-1.11,.75-1.79,1.53-1.79,.87,0,1.36,.62,1.36,1.6,0,.12,0,.24-.03,.33h-2.29c.04,.72,.48,1.19,1.13,1.19,.33,0,.59-.11,.85-.27l.21,.38c-.3,.2-.66,.35-1.12,.35-.91,0-1.63-.66-1.63-1.78Zm2.38-.28c0-.68-.31-1.05-.84-1.05-.48,0-.91,.38-.98,1.05h1.81Z"/>
    <path class="cls-1" d="M290.71,41.97h.48l.05,.62h.02c.24-.43,.59-.7,.97-.7,.15,0,.26,.02,.36,.07l-.11,.51c-.12-.04-.19-.06-.33-.06-.29,0-.63,.21-.86,.78v2.19h-.58v-3.4Z"/>
    <path class="cls-1" d="M293.1,41.97h.59l.64,1.93c.1,.33,.21,.68,.31,1h.03c.1-.32,.21-.67,.31-1l.64-1.93h.56l-1.2,3.4h-.67l-1.23-3.4Z"/>
    <path class="cls-1" d="M296.78,44.49c0-.74,.64-1.11,2.09-1.27,0-.44-.15-.86-.7-.86-.39,0-.75,.19-1.02,.36l-.22-.39c.31-.21,.79-.44,1.34-.44,.83,0,1.18,.55,1.18,1.4v2.09h-.48l-.05-.41h-.02c-.33,.27-.71,.49-1.13,.49-.57,0-1-.35-1-.97Zm2.09,.05v-.95c-1.14,.14-1.53,.42-1.53,.85,0,.39,.26,.54,.6,.54s.6-.16,.93-.45Z"/>
    <path class="cls-1" d="M300.55,43.68c0-1.1,.7-1.79,1.47-1.79,.4,0,.66,.15,.96,.39l-.03-.58v-1.31h.58v4.99h-.47l-.05-.4h-.02c-.27,.27-.63,.49-1.03,.49-.85,0-1.4-.65-1.4-1.78Zm2.4,.83v-1.78c-.29-.26-.55-.35-.83-.35-.54,0-.98,.53-.98,1.3,0,.82,.34,1.3,.93,1.3,.32,0,.59-.15,.87-.46Z"/>
    <path class="cls-1" d="M304.7,43.68c0-1.14,.74-1.79,1.58-1.79s1.58,.65,1.58,1.79-.74,1.78-1.58,1.78-1.58-.65-1.58-1.78Zm2.56,0c0-.78-.4-1.31-.98-1.31s-.98,.53-.98,1.31,.4,1.3,.98,1.3,.98-.52,.98-1.3Z"/>
    <path class="cls-1" d="M308.63,44.99l.29-.38c.29,.24,.6,.4,1,.4,.45,0,.67-.24,.67-.53,0-.35-.4-.5-.78-.65-.48-.17-1.02-.41-1.02-.98,0-.54,.44-.97,1.17-.97,.42,0,.79,.17,1.06,.38l-.28,.37c-.23-.17-.47-.3-.78-.3-.43,0-.63,.23-.63,.49,0,.32,.37,.45,.76,.59,.49,.19,1.04,.38,1.04,1.03,0,.55-.44,1.01-1.24,1.01-.48,0-.95-.21-1.27-.47Z"/>
  </g>
</svg>