<?xml version="1.0" encoding="UTF-8"?>
<svg id="Layer_1" data-name="Layer 1" xmlns="http://www.w3.org/2000/svg" viewBox="0 0 113 47">
  <defs>
    <style>
      .cls-1 {
        fill: #00693c;
      }

      .cls-2 {
        fill: #999;
      }
    </style>
  </defs>
  <g>
    <path class="cls-1" d="M7.59,9.84h2.49c1.96,0,3.28,.66,3.28,2.57s-1.31,2.7-3.22,2.7h-1.44v3.46h-1.11V9.84Zm2.41,4.37c1.53,0,2.26-.55,2.26-1.8s-.77-1.67-2.31-1.67h-1.24v3.47h1.3Z"/>
    <path class="cls-1" d="M14.22,15.35c0-2.16,1.41-3.4,3-3.4s3,1.24,3,3.4-1.41,3.39-3,3.39-3-1.24-3-3.39Zm4.86,0c0-1.48-.75-2.49-1.87-2.49s-1.87,1.01-1.87,2.49,.75,2.47,1.87,2.47,1.87-.99,1.87-2.47Z"/>
    <path class="cls-1" d="M21.91,12.11h.9l.09,1.18h.04c.45-.82,1.11-1.34,1.84-1.34,.29,0,.49,.04,.69,.13l-.2,.96c-.22-.07-.37-.11-.63-.11-.55,0-1.2,.39-1.64,1.49v4.15h-1.09v-6.47Z"/>
    <path class="cls-1" d="M28.5,12.17l.93-.06h2.42v.89h-3.34v-.83Zm.88-1.08c0-1.31,.6-2.15,1.89-2.15,.39,0,.78,.1,1.07,.22l-.23,.84c-.25-.11-.5-.17-.73-.17-.61,0-.91,.43-.91,1.26v7.49h-1.09v-7.49Z"/>
    <path class="cls-1" d="M32.41,16.9c0-1.41,1.22-2.11,3.97-2.41,0-.83-.28-1.63-1.33-1.63-.75,0-1.42,.35-1.93,.69l-.43-.75c.6-.39,1.5-.84,2.54-.84,1.58,0,2.25,1.05,2.25,2.66v3.97h-.9l-.09-.77h-.04c-.62,.51-1.34,.93-2.14,.93-1.08,0-1.9-.67-1.9-1.84Zm3.97,.1v-1.8c-2.17,.26-2.9,.79-2.9,1.62,0,.74,.5,1.03,1.13,1.03s1.14-.3,1.77-.86Z"/>
    <path class="cls-1" d="M38.59,12.11h1.13l1.22,3.67c.19,.63,.4,1.29,.6,1.91h.05c.19-.62,.4-1.28,.6-1.91l1.22-3.67h1.07l-2.29,6.47h-1.27l-2.33-6.47Z"/>
    <path class="cls-1" d="M45.2,15.35c0-2.16,1.41-3.4,3-3.4s3,1.24,3,3.4-1.41,3.39-3,3.39-3-1.24-3-3.39Zm4.86,0c0-1.48-.75-2.49-1.87-2.49s-1.87,1.01-1.87,2.49,.75,2.47,1.87,2.47,1.87-.99,1.87-2.47Z"/>
    <path class="cls-1" d="M52.9,12.11h.9l.09,1.18h.04c.45-.82,1.11-1.34,1.84-1.34,.29,0,.49,.04,.69,.13l-.2,.96c-.22-.07-.37-.11-.63-.11-.55,0-1.2,.39-1.64,1.49v4.15h-1.09v-6.47Z"/>
    <path class="cls-1" d="M59.69,15.35c0-2.1,1.42-3.4,2.91-3.4,1.65,0,2.58,1.18,2.58,3.04,0,.23-.02,.46-.05,.62h-4.36c.08,1.37,.92,2.26,2.15,2.26,.62,0,1.13-.2,1.61-.52l.39,.72c-.57,.37-1.26,.67-2.13,.67-1.72,0-3.1-1.26-3.1-3.39Zm4.52-.53c0-1.3-.58-2-1.59-2-.91,0-1.72,.73-1.85,2h3.45Z"/>
    <path class="cls-1" d="M66.06,17.84l.54-.72c.56,.45,1.13,.77,1.91,.77,.85,0,1.27-.45,1.27-1,0-.67-.76-.96-1.48-1.23-.91-.33-1.93-.78-1.93-1.87,0-1.03,.83-1.84,2.23-1.84,.8,0,1.51,.33,2.01,.73l-.52,.7c-.45-.33-.9-.58-1.47-.58-.81,0-1.19,.43-1.19,.93,0,.62,.7,.85,1.44,1.12,.93,.35,1.97,.73,1.97,1.96,0,1.05-.83,1.92-2.36,1.92-.92,0-1.81-.39-2.41-.9Z"/>
    <path class="cls-1" d="M72.35,12.11h.9l.09,.75h.04c.58-.49,1.31-.91,2.06-.91,1.67,0,2.56,1.3,2.56,3.3,0,2.2-1.32,3.49-2.8,3.49-.59,0-1.2-.27-1.79-.75l.03,1.13v2.19h-1.09V12.11Zm4.53,3.15c0-1.43-.49-2.38-1.71-2.38-.55,0-1.1,.3-1.73,.88v3.39c.59,.49,1.15,.67,1.58,.67,1.07,0,1.86-.96,1.86-2.56Z"/>
    <path class="cls-1" d="M79.26,15.35c0-2.1,1.42-3.4,2.91-3.4,1.65,0,2.58,1.18,2.58,3.04,0,.23-.02,.46-.05,.62h-4.36c.08,1.37,.92,2.26,2.15,2.26,.62,0,1.13-.2,1.61-.52l.39,.72c-.57,.37-1.26,.67-2.13,.67-1.72,0-3.1-1.26-3.1-3.39Zm4.52-.53c0-1.3-.58-2-1.59-2-.91,0-1.72,.73-1.85,2h3.45Z"/>
    <path class="cls-1" d="M86.34,12.11h.9l.09,1.18h.04c.45-.82,1.11-1.34,1.84-1.34,.29,0,.49,.04,.69,.13l-.21,.96c-.22-.07-.37-.11-.63-.11-.55,0-1.2,.39-1.64,1.49v4.15h-1.09v-6.47Z"/>
    <path class="cls-1" d="M90.34,15.35c0-2.1,1.42-3.4,2.91-3.4,1.65,0,2.58,1.18,2.58,3.04,0,.23-.02,.46-.05,.62h-4.36c.08,1.37,.92,2.26,2.15,2.26,.62,0,1.13-.2,1.61-.52l.39,.72c-.57,.37-1.26,.67-2.14,.67-1.72,0-3.1-1.26-3.1-3.39Zm4.52-.53c0-1.3-.58-2-1.59-2-.91,0-1.72,.73-1.85,2h3.45Z"/>
    <path class="cls-1" d="M97.2,17.91c0-.5,.36-.85,.79-.85s.79,.34,.79,.85-.36,.83-.79,.83-.79-.34-.79-.83Z"/>
    <path class="cls-1" d="M100.51,17.91c0-.5,.36-.85,.79-.85s.79,.34,.79,.85-.36,.83-.79,.83-.79-.34-.79-.83Z"/>
    <path class="cls-1" d="M103.82,17.91c0-.5,.36-.85,.79-.85s.79,.34,.79,.85-.36,.83-.79,.83-.79-.34-.79-.83Z"/>
  </g>
  <g>
    <path class="cls-2" d="M29.98,25h2.59v.48h-2.02v1.41h1.7v.48h-1.7v1.63h2.08v.48h-2.65v-4.49Z"/>
    <path class="cls-2" d="M33.16,29.11l.28-.37c.29,.23,.58,.39,.98,.39,.44,0,.65-.23,.65-.52,0-.34-.39-.49-.76-.63-.47-.17-.99-.4-.99-.96,0-.53,.43-.94,1.15-.94,.41,0,.78,.17,1.03,.37l-.27,.36c-.23-.17-.46-.3-.76-.3-.42,0-.61,.22-.61,.48,0,.32,.36,.44,.74,.58,.48,.18,1.01,.38,1.01,1.01,0,.54-.43,.99-1.21,.99-.47,0-.93-.2-1.24-.46Z"/>
    <path class="cls-2" d="M36.36,28.46v-1.84h-.49v-.43l.52-.03,.07-.93h.47v.93h.9v.46h-.9v1.85c0,.41,.13,.64,.51,.64,.12,0,.27-.04,.38-.09l.11,.42c-.19,.06-.41,.12-.62,.12-.71,0-.95-.45-.95-1.11Z"/>
    <path class="cls-2" d="M38.22,28.63c0-.72,.62-1.09,2.04-1.24,0-.43-.14-.84-.69-.84-.38,0-.73,.18-.99,.36l-.22-.38c.31-.2,.77-.43,1.31-.43,.81,0,1.15,.54,1.15,1.37v2.04h-.46l-.05-.4h-.02c-.32,.26-.69,.48-1.1,.48-.56,0-.97-.35-.97-.94Zm2.04,.05v-.92c-1.11,.13-1.49,.41-1.49,.83,0,.38,.26,.53,.58,.53s.59-.16,.91-.44Z"/>
    <path class="cls-2" d="M41.87,26.17h.46l.05,.48h.02c.29-.31,.64-.56,1.03-.56,.51,0,.78,.24,.92,.63,.34-.37,.69-.63,1.1-.63,.68,0,1.01,.45,1.01,1.3v2.11h-.56v-2.03c0-.62-.2-.88-.62-.88-.26,0-.53,.17-.83,.51v2.41h-.56v-2.03c0-.62-.2-.88-.62-.88-.25,0-.53,.17-.83,.51v2.41h-.56v-3.32Z"/>
    <path class="cls-2" d="M47.3,27.83c0-1.11,.73-1.75,1.54-1.75s1.54,.64,1.54,1.75-.73,1.74-1.54,1.74-1.54-.64-1.54-1.74Zm2.5,0c0-.76-.39-1.28-.96-1.28s-.96,.52-.96,1.28,.39,1.27,.96,1.27,.96-.51,.96-1.27Z"/>
    <path class="cls-2" d="M50.87,29.11l.28-.37c.29,.23,.58,.39,.98,.39,.44,0,.65-.23,.65-.52,0-.34-.39-.49-.76-.63-.47-.17-.99-.4-.99-.96,0-.53,.43-.94,1.15-.94,.41,0,.78,.17,1.03,.37l-.27,.36c-.23-.17-.46-.3-.76-.3-.42,0-.61,.22-.61,.48,0,.32,.36,.44,.74,.58,.48,.18,1.01,.38,1.01,1.01,0,.54-.43,.99-1.21,.99-.47,0-.93-.2-1.24-.46Z"/>
    <path class="cls-2" d="M54.99,26.17h.58l.63,1.89c.1,.33,.21,.66,.31,.98h.03c.1-.32,.21-.66,.31-.98l.63-1.89h.55l-1.18,3.32h-.65l-1.2-3.32Z"/>
    <path class="cls-2" d="M58.33,28.63c0-.72,.62-1.09,2.04-1.24,0-.43-.14-.84-.69-.84-.38,0-.73,.18-.99,.36l-.22-.38c.31-.2,.77-.43,1.31-.43,.81,0,1.15,.54,1.15,1.37v2.04h-.46l-.05-.4h-.02c-.32,.26-.69,.48-1.1,.48-.56,0-.97-.35-.97-.94Zm2.04,.05v-.92c-1.11,.13-1.49,.41-1.49,.83,0,.38,.26,.53,.58,.53s.59-.16,.91-.44Z"/>
    <path class="cls-2" d="M61.98,28.82v-4.2h.56v4.24c0,.17,.07,.24,.16,.24,.03,0,.06,0,.12-.01l.08,.43c-.08,.03-.18,.05-.32,.05-.42,0-.59-.27-.59-.75Z"/>
    <path class="cls-2" d="M63.62,25.12c0-.22,.17-.36,.39-.36s.39,.14,.39,.36-.17,.36-.39,.36-.39-.15-.39-.36Zm.1,1.05h.56v3.32h-.56v-3.32Z"/>
    <path class="cls-2" d="M65.17,27.83c0-1.08,.68-1.75,1.44-1.75,.39,0,.64,.15,.93,.39l-.02-.57v-1.28h.56v4.87h-.46l-.05-.39h-.02c-.26,.26-.61,.47-1.01,.47-.83,0-1.37-.63-1.37-1.74Zm2.34,.81v-1.74c-.28-.25-.54-.35-.81-.35-.53,0-.95,.51-.95,1.27,0,.8,.33,1.27,.91,1.27,.31,0,.57-.15,.85-.45Z"/>
    <path class="cls-2" d="M69,28.63c0-.72,.62-1.09,2.04-1.24,0-.43-.14-.84-.69-.84-.38,0-.73,.18-.99,.36l-.22-.38c.31-.2,.77-.43,1.31-.43,.81,0,1.15,.54,1.15,1.37v2.04h-.46l-.05-.4h-.02c-.32,.26-.69,.48-1.1,.48-.56,0-.97-.35-.97-.94Zm2.04,.05v-.92c-1.11,.13-1.49,.41-1.49,.83,0,.38,.26,.53,.58,.53s.59-.16,.91-.44Z"/>
    <path class="cls-2" d="M72.65,26.17h.46l.05,.48h.02c.32-.31,.66-.56,1.11-.56,.7,0,1.01,.45,1.01,1.3v2.11h-.56v-2.03c0-.62-.19-.88-.63-.88-.34,0-.58,.17-.91,.51v2.41h-.56v-3.32Z"/>
    <path class="cls-2" d="M76.15,27.83c0-1.08,.68-1.75,1.44-1.75,.39,0,.64,.15,.93,.39l-.02-.57v-1.28h.56v4.87h-.46l-.05-.39h-.02c-.26,.26-.61,.47-1.01,.47-.83,0-1.37-.63-1.37-1.74Zm2.35,.81v-1.74c-.28-.25-.54-.35-.81-.35-.53,0-.95,.51-.95,1.27,0,.8,.33,1.27,.91,1.27,.31,0,.57-.15,.85-.45Z"/>
    <path class="cls-2" d="M79.94,27.83c0-1.11,.72-1.75,1.54-1.75s1.54,.64,1.54,1.75-.73,1.74-1.54,1.74-1.54-.64-1.54-1.74Zm2.5,0c0-.76-.39-1.28-.96-1.28s-.96,.52-.96,1.28,.39,1.27,.96,1.27,.96-.51,.96-1.27Z"/>
    <path class="cls-2" d="M35.83,37.32l.28-.37c.29,.23,.58,.39,.98,.39,.44,0,.65-.23,.65-.52,0-.34-.39-.49-.76-.63-.47-.17-.99-.4-.99-.96,0-.53,.43-.94,1.15-.94,.41,0,.78,.17,1.03,.37l-.27,.36c-.23-.17-.46-.3-.76-.3-.42,0-.61,.22-.61,.48,0,.32,.36,.44,.74,.58,.48,.18,1.01,.38,1.01,1.01,0,.54-.43,.99-1.21,.99-.47,0-.93-.2-1.24-.46Z"/>
    <path class="cls-2" d="M39.02,36.48v-2.11h.56v2.03c0,.62,.19,.88,.63,.88,.34,0,.58-.17,.89-.56v-2.36h.56v3.32h-.46l-.05-.52h-.02c-.31,.36-.64,.6-1.1,.6-.7,0-1.01-.45-1.01-1.3Z"/>
    <path class="cls-2" d="M44.05,33.33c0-.22,.17-.36,.39-.36s.39,.14,.39,.36-.17,.36-.39,.36-.39-.15-.39-.36Zm.1,1.05h.56v3.32h-.56v-3.32Z"/>
    <path class="cls-2" d="M45.84,34.37h.46l.05,.48h.02c.32-.31,.66-.56,1.11-.56,.7,0,1.01,.45,1.01,1.3v2.11h-.56v-2.03c0-.62-.19-.88-.63-.88-.34,0-.58,.17-.91,.51v2.41h-.56v-3.32Z"/>
    <path class="cls-2" d="M49.22,34.41l.48-.03h1.24v.46h-1.72v-.43Zm.45-.56c0-.68,.31-1.1,.97-1.1,.2,0,.4,.05,.55,.11l-.12,.43c-.13-.06-.26-.09-.38-.09-.31,0-.47,.22-.47,.65v3.85h-.56v-3.85Z"/>
    <path class="cls-2" d="M51.26,36.04c0-1.11,.73-1.75,1.54-1.75s1.54,.64,1.54,1.75-.73,1.74-1.54,1.74-1.54-.64-1.54-1.74Zm2.5,0c0-.76-.39-1.28-.96-1.28s-.96,.52-.96,1.28,.39,1.27,.96,1.27,.96-.51,.96-1.27Z"/>
    <path class="cls-2" d="M55.22,34.37h.46l.05,.61h.02c.23-.42,.57-.69,.94-.69,.15,0,.25,.02,.35,.07l-.1,.49c-.11-.04-.19-.05-.32-.05-.28,0-.62,.2-.84,.76v2.13h-.56v-3.32Z"/>
    <path class="cls-2" d="M57.59,34.37h.46l.05,.48h.02c.29-.31,.64-.56,1.03-.56,.51,0,.78,.24,.92,.63,.34-.37,.69-.63,1.1-.63,.68,0,1.01,.45,1.01,1.3v2.11h-.56v-2.03c0-.62-.2-.88-.62-.88-.26,0-.53,.17-.83,.51v2.41h-.56v-2.03c0-.62-.2-.88-.62-.88-.25,0-.53,.17-.83,.51v2.41h-.56v-3.32Z"/>
    <path class="cls-2" d="M63.05,36.83c0-.72,.62-1.09,2.04-1.24,0-.43-.14-.84-.69-.84-.38,0-.73,.18-.99,.36l-.22-.38c.31-.2,.77-.43,1.31-.43,.81,0,1.15,.54,1.15,1.37v2.04h-.46l-.05-.4h-.02c-.32,.26-.69,.48-1.1,.48-.56,0-.97-.35-.97-.94Zm2.04,.05v-.92c-1.11,.13-1.49,.41-1.49,.83,0,.38,.26,.53,.58,.53s.59-.16,.91-.44Z"/>
    <path class="cls-2" d="M66.46,36.04c0-1.11,.75-1.75,1.6-1.75,.44,0,.74,.18,.97,.39l-.29,.37c-.19-.17-.4-.29-.66-.29-.6,0-1.04,.52-1.04,1.28s.42,1.27,1.03,1.27c.3,0,.57-.15,.78-.33l.24,.38c-.3,.27-.68,.42-1.08,.42-.88,0-1.56-.64-1.56-1.74Z"/>
    <path class="cls-2" d="M69.72,33.33c0-.22,.17-.36,.39-.36s.39,.14,.39,.36-.17,.36-.39,.36-.39-.15-.39-.36Zm.1,1.05h.56v3.32h-.56v-3.32Z"/>
    <path class="cls-2" d="M71.26,36.04c0-1.11,.72-1.75,1.54-1.75s1.54,.64,1.54,1.75-.73,1.74-1.54,1.74-1.54-.64-1.54-1.74Zm2.5,0c0-.76-.39-1.28-.96-1.28s-.96,.52-.96,1.28,.39,1.27,.96,1.27,.96-.51,.96-1.27Zm-1.34-2.54l.97-1.14,.4,.37-1.07,1.04-.29-.28Z"/>
    <path class="cls-2" d="M75.22,34.37h.46l.05,.48h.02c.32-.31,.66-.56,1.12-.56,.7,0,1.01,.45,1.01,1.3v2.11h-.56v-2.03c0-.62-.19-.88-.63-.88-.34,0-.58,.17-.91,.51v2.41h-.56v-3.32Z"/>
  </g>
</svg>