<svg width="273" height="43" viewBox="0 0 273 43" fill="none" xmlns="http://www.w3.org/2000/svg">
<path d="M104.523 17.2052H109.421L108.914 19.6175H108.974C109.955 18.0915 111.521 16.7588 113.655 16.7588C113.905 16.7588 114.155 16.7588 114.458 16.8188L113.444 21.6498C112.963 21.5499 112.562 21.5232 112.061 21.5232C110.02 21.5232 108.519 22.3828 108.045 24.6418L105.998 34.3973H100.909L104.523 17.2052Z" fill="#006937"/>
<path d="M171.189 17.2052H176.088L175.581 19.6175H175.647C176.628 18.0915 178.194 16.7588 180.328 16.7588C180.578 16.7588 180.828 16.7588 181.131 16.8188L180.117 21.6498C179.636 21.5499 179.235 21.5232 178.734 21.5232C176.693 21.5232 175.192 22.3828 174.718 24.6418L172.671 34.3973H167.582L171.189 17.2052Z" fill="#006937"/>
<path d="M65.1459 25.8279C66.2256 20.697 68.1744 16.7588 74.0339 16.7588C80.2423 16.7588 80.216 20.597 79.1362 25.7346C78.0565 30.8722 76.1077 34.8037 70.2416 34.8037C64.0398 34.8037 64.0661 30.9655 65.1459 25.8279ZM73.3623 20.1239C71.8547 20.1239 71.1107 21.6165 70.2351 25.7679C69.3528 29.9527 69.4845 31.4386 70.979 31.4386C72.5459 31.4386 73.1648 30.0126 74.047 25.7946C74.9424 21.5499 74.9292 20.1239 73.3623 20.1239Z" fill="#006937"/>
<path d="M113.543 25.8279C114.622 20.697 116.571 16.7588 122.431 16.7588C128.639 16.7588 128.613 20.597 127.533 25.7346C126.46 30.8722 124.505 34.8037 118.645 34.8037C112.437 34.8037 112.456 30.9655 113.543 25.8279ZM121.759 20.1239C120.251 20.1239 119.508 21.6165 118.632 25.7679C117.75 29.9527 117.875 31.4386 119.382 31.4386C120.949 31.4386 121.562 30.0126 122.45 25.7946C123.339 21.5499 123.319 20.1239 121.759 20.1239Z" fill="#006937"/>
<path d="M13.5493 22.5429L13.5624 22.483C15.7811 22.0765 17.5982 20.0108 18.1579 17.3787C18.9479 13.6071 16.7819 11.8013 12.9567 11.8013H4.76002L0 34.4307H7.78194C14.0299 34.4307 15.9523 30.8191 16.5119 28.1537C17.4863 23.5292 15.1623 22.7962 13.5493 22.5429ZM11.1791 27.5539C10.8434 29.1332 9.83606 30.4992 7.70294 30.4992H6.09651L7.38692 24.3821H9.07893C10.7183 24.3821 11.6466 25.335 11.1791 27.5539ZM12.7131 18.1716C12.3708 19.7909 11.3964 20.8371 9.57929 20.8371H8.13088L9.20402 15.7328H10.6854C12.6012 15.7328 12.9567 16.9989 12.7131 18.1716Z" fill="#006937"/>
<path d="M45.6253 16.7456C43.7358 16.7456 42.0569 17.6985 41.0167 19.2311H40.9509L41.3788 17.1987H36.474L32.8595 34.4107H37.9487L40.3123 23.1493C40.6678 21.4634 41.6751 20.6971 42.6495 20.6971C43.5909 20.6971 43.9728 21.4301 43.716 22.6695L41.2537 34.4041H46.3495L49.0554 21.5234C49.7467 18.2116 48.5156 16.7456 45.6253 16.7456Z" fill="#006937"/>
<path d="M27.836 16.7988C25.7292 16.7988 24.2216 17.0854 22.8587 17.9116C21.4893 18.7379 20.5018 20.1706 19.9751 22.5162H24.4981C24.8404 21.0235 25.433 20.1639 26.8419 20.1639C27.9743 20.1639 28.3035 20.8303 28.0862 21.8765C27.8097 23.1759 27.4739 23.4357 25.8477 23.8489C24.3532 24.2287 22.4045 24.5486 21.0021 25.2482C19.5932 25.9479 18.4279 27.6338 18.0065 29.6329C17.2231 33.3511 18.5662 34.8771 21.4235 34.8771C23.1221 34.8771 24.9063 33.9842 25.9136 32.4582H25.9794C25.8741 33.1312 25.7885 33.8242 25.8477 34.4306H30.746C30.3049 33.671 30.6538 32.0184 30.9304 30.7124L32.787 21.8765C33.5573 18.2648 32.0101 16.7988 27.836 16.7988ZM26.5654 28.9665C26.2098 30.6857 25.1038 31.3187 24.0306 31.3187C23.0957 31.3187 22.7336 30.4925 23.0167 29.1264C23.2143 28.1735 23.5829 27.6338 24.2018 27.2206C24.7548 26.8408 25.4527 26.8075 27.2303 25.9546C27.0921 26.6476 26.8682 27.5405 26.5654 28.9665Z" fill="#006937"/>
<path d="M212.851 16.7988C210.744 16.7988 209.243 17.0854 207.88 17.9116C206.511 18.7379 205.523 20.1706 204.997 22.5162H209.513C209.855 21.0235 210.441 20.1639 211.857 20.1639C212.989 20.1639 213.318 20.8303 213.101 21.8765C212.825 23.1759 212.489 23.4357 210.863 23.8489C209.368 24.2287 207.419 24.5486 206.017 25.2482C204.615 25.9479 203.443 27.6338 203.028 29.6329C202.245 33.3511 203.588 34.8771 206.445 34.8771C208.137 34.8771 209.928 33.9842 210.935 32.4582H211.001C210.889 33.1312 210.81 33.8242 210.869 34.4306H215.768C215.326 33.671 215.675 32.0184 215.952 30.7124L217.809 21.8765C218.572 18.2648 217.025 16.7988 212.851 16.7988ZM211.58 28.9665C211.218 30.6857 210.112 31.3187 209.046 31.3187C208.111 31.3187 207.749 30.4925 208.032 29.1264C208.229 28.1735 208.598 27.6338 209.21 27.2206C209.763 26.8408 210.468 26.8075 212.245 25.9546C212.1 26.6476 211.883 27.5405 211.58 28.9665Z" fill="#006937"/>
<path d="M89.3211 11.7278H97.4783C103.035 11.7278 103.246 15.7926 102.653 18.6179C101.797 22.6827 99.2822 25.5414 94.0152 25.5414H91.6912L89.8346 34.3972H84.561L89.3211 11.7278ZM92.5142 21.6032H93.9626C96.0628 21.6032 96.8462 20.2705 97.1623 18.7445C97.5309 16.9987 97.2478 15.666 95.1081 15.666H93.7651L92.5142 21.6032Z" fill="#006937"/>
<path d="M131.457 17.2187H136.349L135.921 19.2511H135.98C137.02 17.7251 138.699 16.7722 140.582 16.7722C142.057 16.7722 143.946 17.0587 144.203 19.411C145.816 17.4119 147.08 16.7722 148.963 16.7722C151.847 16.7722 153.078 18.2382 152.386 21.5367L149.687 34.3974H144.605L147.067 22.6761C147.324 21.4367 146.948 20.7104 146.007 20.7104C145.032 20.7104 144.025 21.47 143.676 23.1559L141.319 34.3974H136.237L138.699 22.6761C138.962 21.4367 138.58 20.7104 137.639 20.7104C136.665 20.7104 135.657 21.47 135.308 23.1559L132.945 34.3974H127.862L131.457 17.2187Z" fill="#006937"/>
<path d="M158.812 26.6542L158.595 27.7004C158.035 30.3658 158.134 31.6719 159.609 31.6719C160.926 31.6719 161.538 30.6857 162.117 28.5333H166.825C165.837 32.7847 163.111 34.8504 158.911 34.8504C152.512 34.8504 152.959 30.3125 154.032 25.1949C155.046 20.3705 157.179 16.7788 162.703 16.7788C169.01 16.7788 168.602 20.8169 167.371 26.6542H158.812ZM163.105 23.6689C163.612 21.2567 163.572 19.9507 162.157 19.9507C160.498 19.9507 159.918 21.35 159.431 23.6689H163.105Z" fill="#006937"/>
<path d="M183.099 17.2187H188.182L184.574 34.3974H179.492L183.099 17.2187ZM184.304 11.468H189.387L188.557 15.4062H183.475L184.304 11.468Z" fill="#006937"/>
<path d="M198.11 23.6957C198.637 21.1836 198.294 20.1374 196.945 20.1374C195.253 20.1374 194.581 22.2964 193.837 25.8214C193.028 29.6996 192.869 31.4721 194.561 31.4721C196.069 31.4721 196.635 30.4259 197.333 27.4073H202.041C200.895 32.7115 198.38 34.8372 193.765 34.8372C187.366 34.8372 187.813 30.2927 188.893 25.1817C189.9 20.3573 192.04 16.7656 197.564 16.7656C202.896 16.7656 203.687 19.591 202.824 23.6891H198.11V23.6957Z" fill="#006937"/>
<path d="M59.4837 23.6957C60.0104 21.1836 59.668 20.1374 58.3183 20.1374C56.6263 20.1374 55.9548 22.2964 55.2108 25.8214C54.3945 29.6996 54.243 31.4721 55.935 31.4721C57.4427 31.4721 58.0023 30.4259 58.7002 27.4073H63.4075C62.262 32.7115 59.747 34.8372 55.1318 34.8372C48.7325 34.8372 49.1802 30.2927 50.2599 25.1817C51.2738 20.3573 53.4069 16.7656 58.9306 16.7656C64.2634 16.7656 65.0535 19.591 64.191 23.6891H59.4837V23.6957Z" fill="#006937"/>
<path d="M256.501 10.1619C248.094 18.5114 240.595 27.7271 233.853 37.4892L233.86 37.4959C245.875 26.9341 258.937 17.5985 273 10.0353V10.0153C267.503 9.80208 261.999 9.84206 256.501 10.1619Z" fill="#69BE28"/>
<path d="M228.935 43H228.942C236.23 30.8656 244.683 19.4643 254.5 9.30234C253.308 6.19712 250.872 0 250.872 0C247.547 3.79823 244.604 7.90965 241.899 12.1743C236.665 13.3871 231.503 14.9064 226.506 16.9055C226.506 16.9055 232.853 21.2634 235.967 23.5157C233.327 29.6862 229.179 42.247 228.935 43ZM263.704 41.2342L263.71 41.2275C261.92 34.484 260.149 27.7404 258.397 20.9769C254.065 23.8156 249.825 26.7809 245.684 29.8994C251.748 33.5777 257.746 37.3693 263.704 41.2342Z" fill="#006937"/>
</svg>
