<svg width="96" height="96" viewBox="0 0 96 96" fill="none" xmlns="http://www.w3.org/2000/svg">
<circle cx="48" cy="48" r="48" fill="#ECF8E4"/>
<path d="M66.5968 54.6948H61.5021C61.2126 54.6948 60.9349 54.8098 60.7302 55.0145C60.5255 55.2193 60.4104 55.4969 60.4104 55.7864C60.4104 56.076 60.5255 56.3536 60.7302 56.5584C60.9349 56.7631 61.2126 56.8781 61.5021 56.8781H66.5968C66.6863 56.8732 66.7743 56.9033 66.8421 56.9619C66.9099 57.0206 66.9523 57.1033 66.9603 57.1926V67.4801C66.9523 67.5694 66.9099 67.6521 66.8421 67.7107C66.7743 67.7694 66.6863 67.7994 66.5968 67.7946H30.2073C30.1179 67.7993 30.03 67.7692 29.9623 67.7106C29.8946 67.6519 29.8523 67.5693 29.8443 67.4801V57.1926C29.8523 57.1034 29.8946 57.0207 29.9623 56.9621C30.03 56.9034 30.1179 56.8733 30.2073 56.8781H35.3025C35.5921 56.8781 35.8697 56.7631 36.0745 56.5584C36.2792 56.3536 36.3942 56.076 36.3942 55.7864C36.3942 55.4969 36.2792 55.2193 36.0745 55.0145C35.8697 54.8098 35.5921 54.6948 35.3025 54.6948H30.2073C29.5387 54.6892 28.8951 54.949 28.4177 55.4172C27.9404 55.8855 27.6683 56.524 27.661 57.1926V67.4801C27.6683 68.1487 27.9404 68.7872 28.4177 69.2554C28.8951 69.7237 29.5387 69.9835 30.2073 69.9779H66.5968C67.2655 69.9835 67.9092 69.7237 68.3866 69.2555C68.864 68.7872 69.1363 68.1488 69.1436 67.4801V57.1926C69.1363 56.5239 68.864 55.8854 68.3866 55.4172C67.9092 54.9489 67.2655 54.6892 66.5968 54.6948Z" fill="#00693C"/>
<path d="M38.5775 51.42V37.2446C38.6794 37.2279 38.7827 37.2226 38.8857 37.2286H42.8478C42.5662 37.2902 42.3141 37.446 42.1331 37.6703C41.9522 37.8946 41.8531 38.1739 41.8525 38.4622V50.3284C41.8534 50.5955 41.9511 50.8532 42.1274 51.0539C42.3036 51.2546 42.5466 51.3846 42.8114 51.42C42.7452 51.4239 42.7258 51.42 42.6821 51.42H38.5775Z" fill="#69B92C"/>
<path d="M48.3271 48.145H48.4774C49.3258 48.1441 50.1391 47.8066 50.739 47.2068C51.3388 46.6069 51.6763 45.7935 51.6772 44.9452V42.6116C51.6762 41.7633 51.3388 40.95 50.739 40.3501C50.1391 39.7503 49.3258 39.4128 48.4774 39.4119H48.3271C47.4788 39.4128 46.6654 39.7503 46.0656 40.3501C45.4657 40.95 45.1283 41.7633 45.1273 42.6116V44.9452C45.1283 45.7935 45.4657 46.6069 46.0656 47.2068C46.6654 47.8066 47.4788 48.1441 48.3271 48.145ZM47.3106 42.6116C47.3114 42.3423 47.4187 42.0842 47.6092 41.8938C47.7997 41.7033 48.0578 41.5959 48.3271 41.5952H48.4774C48.7468 41.5959 49.0049 41.7033 49.1953 41.8938C49.3858 42.0842 49.4931 42.3423 49.4939 42.6116V44.9452C49.4931 45.2146 49.3858 45.4727 49.1953 45.6631C49.0049 45.8536 48.7468 45.961 48.4774 45.9618H48.3271C48.0577 45.961 47.7997 45.8536 47.6092 45.6631C47.4187 45.4727 47.3114 45.2146 47.3106 44.9452V42.6116Z" fill="#00693C"/>
<path d="M36.2934 64.5772L35.6768 65.4316C35.6357 65.501 35.5795 65.5602 35.5124 65.605C35.4453 65.6498 35.3691 65.6791 35.2892 65.6906C35.1265 65.7183 34.9592 65.683 34.8216 65.5918L34.2648 65.2132C34.197 65.1731 34.1387 65.1188 34.0941 65.0539C34.0494 64.9891 34.0194 64.9152 34.0061 64.8376C33.9929 64.76 33.9967 64.6804 34.0173 64.6044C34.038 64.5284 34.0749 64.4578 34.1256 64.3975L34.8417 63.5026C34.892 63.4514 34.9277 63.3877 34.9451 63.3181C34.9625 63.2485 34.9609 63.1755 34.9406 63.1067C34.9203 63.0378 34.882 62.9757 34.8296 62.9267C34.7772 62.8776 34.7127 62.8435 34.6427 62.8278L33.5487 62.4491C33.396 62.3885 33.2695 62.2762 33.1911 62.1319C33.1518 62.0629 33.128 61.9863 33.1211 61.9072C33.1143 61.8282 33.1246 61.7486 33.1514 61.6739L33.3497 61.1366C33.3987 60.983 33.5058 60.8546 33.6482 60.779C33.7175 60.74 33.7951 60.7179 33.8745 60.7145C33.9539 60.7112 34.0331 60.7266 34.1054 60.7596L35.1597 61.1366C35.2255 61.1668 35.2982 61.179 35.3702 61.1719C35.4423 61.1648 35.5112 61.1387 35.5698 61.0962C35.6284 61.0537 35.6747 60.9964 35.7039 60.9301C35.7331 60.8639 35.7441 60.791 35.7359 60.7191V59.5863C35.7321 59.4235 35.7929 59.2658 35.905 59.1477C35.9598 59.0896 36.0262 59.0436 36.1 59.013C36.1737 58.9823 36.2532 58.9675 36.333 58.9697H36.969C37.0503 58.9687 37.1309 58.984 37.2061 59.0146C37.2814 59.0453 37.3497 59.0907 37.4072 59.1481C37.4646 59.2056 37.51 59.2739 37.5407 59.3492C37.5713 59.4244 37.5866 59.505 37.5856 59.5863V60.7191C37.5795 60.7904 37.5909 60.8621 37.6186 60.9281C37.6464 60.994 37.6897 61.0523 37.745 61.0978C37.8025 61.1375 37.8691 61.1619 37.9386 61.1687C38.0081 61.1755 38.0782 61.1644 38.1423 61.1366L39.1764 60.7596C39.2507 60.7337 39.3295 60.7229 39.408 60.7279C39.4866 60.7329 39.5633 60.7536 39.6337 60.7888C39.7042 60.8239 39.7669 60.8728 39.8181 60.9325C39.8694 60.9923 39.9081 61.0617 39.9321 61.1366L40.1312 61.6739C40.1576 61.7483 40.1685 61.8272 40.1634 61.906C40.1582 61.9847 40.1371 62.0616 40.1013 62.1319C40.0285 62.277 39.9045 62.39 39.7533 62.4491L38.6796 62.8278C38.6094 62.8433 38.5447 62.8773 38.4922 62.9263C38.4396 62.9753 38.4012 63.0375 38.3809 63.1064C38.3606 63.1753 38.3591 63.2484 38.3766 63.3181C38.3941 63.3878 38.43 63.4515 38.4805 63.5026L39.1764 64.3975C39.2267 64.4558 39.2635 64.5244 39.2842 64.5986C39.3049 64.6727 39.309 64.7505 39.2961 64.8264C39.2809 64.9048 39.2501 64.9795 39.2057 65.0459C39.1612 65.1123 39.1039 65.1692 39.0372 65.2132L38.4603 65.5918C38.3262 65.6822 38.1625 65.7175 38.0031 65.6906C37.9227 65.6767 37.846 65.6466 37.7777 65.6021C37.7094 65.5576 37.6509 65.4996 37.6058 65.4316L36.9892 64.5772C36.9572 64.5141 36.909 64.4607 36.8496 64.4223C36.7902 64.3839 36.7217 64.362 36.651 64.3587C36.5781 64.363 36.5073 64.3852 36.445 64.4233C36.3826 64.4614 36.3306 64.5142 36.2934 64.5772Z" fill="#00693C"/>
<path d="M59.7639 64.6831L59.1473 65.5376C59.1061 65.6069 59.0499 65.6662 58.9829 65.711C58.9158 65.7558 58.8395 65.785 58.7597 65.7965C58.5969 65.8243 58.4297 65.789 58.292 65.6978L57.7353 65.3191C57.6675 65.2791 57.6092 65.2247 57.5645 65.1599C57.5198 65.095 57.4898 65.0212 57.4766 64.9436C57.4634 64.8659 57.4672 64.7863 57.4878 64.7103C57.5085 64.6343 57.5454 64.5638 57.5961 64.5035L58.3122 63.6086C58.3625 63.5574 58.3982 63.4937 58.4155 63.424C58.4329 63.3544 58.4314 63.2814 58.4111 63.2126C58.3908 63.1438 58.3525 63.0816 58.3001 63.0326C58.2477 62.9836 58.1832 62.9494 58.1132 62.9337L57.0192 62.555C56.8665 62.4944 56.7399 62.3822 56.6615 62.2378C56.6223 62.1689 56.5984 62.0922 56.5916 62.0132C56.5847 61.9341 56.5951 61.8545 56.6219 61.7799L56.8201 61.2426C56.8692 61.0889 56.9763 60.9606 57.1187 60.8849C57.188 60.8459 57.2655 60.8239 57.345 60.8205C57.4244 60.8171 57.5035 60.8325 57.5759 60.8655L58.6302 61.2426C58.696 61.2728 58.7687 61.285 58.8407 61.2779C58.9128 61.2707 58.9816 61.2446 59.0403 61.2021C59.0989 61.1596 59.1452 61.1023 59.1743 61.0361C59.2035 60.9698 59.2146 60.897 59.2063 60.825V59.6922C59.2026 59.5294 59.2634 59.3718 59.3754 59.2537C59.4302 59.1955 59.4967 59.1496 59.5704 59.1189C59.6442 59.0882 59.7236 59.0735 59.8035 59.0756H60.4395C60.5207 59.0747 60.6013 59.09 60.6766 59.1206C60.7518 59.1512 60.8202 59.1966 60.8776 59.2541C60.9351 59.3115 60.9805 59.3799 61.0111 59.4551C61.0418 59.5304 61.057 59.611 61.0561 59.6922V60.825C61.05 60.8964 61.0613 60.9681 61.0891 61.034C61.1169 61.1 61.1602 61.1582 61.2155 61.2037C61.2729 61.2434 61.3396 61.2678 61.4091 61.2746C61.4786 61.2814 61.5487 61.2704 61.6127 61.2426L62.6469 60.8655C62.7212 60.8396 62.7999 60.8289 62.8785 60.8339C62.957 60.8389 63.0338 60.8596 63.1042 60.8947C63.1746 60.9299 63.2373 60.9787 63.2886 61.0385C63.3398 61.0982 63.3786 61.1676 63.4026 61.2426L63.6017 61.7799C63.628 61.8542 63.639 61.9332 63.6338 62.0119C63.6287 62.0907 63.6076 62.1675 63.5717 62.2378C63.4989 62.3829 63.375 62.4959 63.2238 62.555L62.15 62.9337C62.0799 62.9492 62.0152 62.9833 61.9626 63.0323C61.9101 63.0813 61.8717 63.1435 61.8514 63.2124C61.831 63.2813 61.8295 63.3544 61.8471 63.4241C61.8646 63.4938 61.9005 63.5575 61.951 63.6086L62.6469 64.5035C62.6972 64.5617 62.734 64.6304 62.7547 64.7045C62.7754 64.7787 62.7795 64.8564 62.7666 64.9323C62.7514 65.0108 62.7206 65.0854 62.6762 65.1518C62.6317 65.2183 62.5744 65.2751 62.5077 65.3191L61.9307 65.6978C61.7967 65.7881 61.633 65.8235 61.4736 65.7965C61.3932 65.7827 61.3165 65.7526 61.2482 65.7081C61.1799 65.6635 61.1214 65.6055 61.0763 65.5376L60.4597 64.6831C60.4276 64.6201 60.3795 64.5666 60.32 64.5283C60.2606 64.4899 60.1921 64.4679 60.1215 64.4646C60.0485 64.469 59.9778 64.4912 59.9154 64.5293C59.8531 64.5674 59.801 64.6202 59.7639 64.6831Z" fill="#00693C"/>
<path d="M48.0538 64.5772L47.4372 65.4316C47.396 65.501 47.3398 65.5602 47.2728 65.605C47.2057 65.6498 47.1295 65.6791 47.0496 65.6906C46.8868 65.7183 46.7196 65.683 46.5819 65.5918L46.0252 65.2132C45.9574 65.1731 45.8991 65.1188 45.8544 65.0539C45.8097 64.989 45.7797 64.9152 45.7665 64.8376C45.7532 64.76 45.7571 64.6804 45.7777 64.6044C45.7983 64.5284 45.8353 64.4578 45.886 64.3975L46.6021 63.5026C46.6524 63.4514 46.6881 63.3877 46.7055 63.3181C46.7228 63.2484 46.7213 63.1754 46.701 63.1066C46.6807 63.0378 46.6424 62.9757 46.59 62.9266C46.5376 62.8776 46.4731 62.8435 46.4031 62.8277L45.3091 62.4491C45.1564 62.3885 45.0298 62.2762 44.9514 62.1319C44.9122 62.0629 44.8883 61.9863 44.8815 61.9072C44.8747 61.8282 44.885 61.7486 44.9118 61.6739L45.11 61.1366C45.1591 60.983 45.2662 60.8546 45.4086 60.779C45.4779 60.74 45.5554 60.7179 45.6349 60.7145C45.7143 60.7111 45.7934 60.7266 45.8658 60.7595L46.9201 61.1366C46.9859 61.1668 47.0586 61.179 47.1306 61.1719C47.2027 61.1648 47.2715 61.1386 47.3302 61.0962C47.3888 61.0537 47.4351 60.9964 47.4642 60.9301C47.4934 60.8638 47.5045 60.791 47.4962 60.7191V59.5863C47.4925 59.4235 47.5533 59.2658 47.6654 59.1477C47.7201 59.0896 47.7866 59.0436 47.8604 59.013C47.9341 58.9823 48.0135 58.9675 48.0934 58.9697H48.7294C48.8106 58.9687 48.8913 58.984 48.9665 59.0146C49.0418 59.0453 49.1101 59.0907 49.1676 59.1481C49.225 59.2056 49.2704 59.2739 49.301 59.3492C49.3317 59.4244 49.347 59.505 49.346 59.5863V60.7191C49.3399 60.7904 49.3512 60.8621 49.379 60.9281C49.4068 60.994 49.4501 61.0523 49.5054 61.0978C49.5628 61.1375 49.6295 61.1619 49.699 61.1687C49.7685 61.1755 49.8386 61.1644 49.9027 61.1366L50.9368 60.7596C51.0111 60.7337 51.0898 60.7229 51.1684 60.7279C51.2469 60.7329 51.3237 60.7536 51.3941 60.7888C51.4646 60.8239 51.5272 60.8728 51.5785 60.9325C51.6297 60.9923 51.6685 61.0617 51.6925 61.1366L51.8916 61.6739C51.9179 61.7483 51.9289 61.8272 51.9237 61.906C51.9186 61.9847 51.8975 62.0616 51.8616 62.1319C51.7889 62.277 51.6649 62.39 51.5137 62.4491L50.4399 62.8278C50.3698 62.8433 50.3051 62.8773 50.2526 62.9263C50.2 62.9753 50.1616 63.0375 50.1413 63.1064C50.1209 63.1753 50.1195 63.2484 50.137 63.3181C50.1545 63.3878 50.1904 63.4515 50.2409 63.5026L50.9368 64.3975C50.9871 64.4558 51.0239 64.5244 51.0446 64.5986C51.0653 64.6727 51.0694 64.7505 51.0565 64.8264C51.0413 64.9048 51.0105 64.9795 50.9661 65.0459C50.9216 65.1123 50.8643 65.1692 50.7976 65.2132L50.2207 65.5918C50.0866 65.6822 49.9229 65.7175 49.7635 65.6906C49.6831 65.6767 49.6064 65.6466 49.5381 65.6021C49.4698 65.5576 49.4113 65.4996 49.3662 65.4316L48.7496 64.5772C48.7176 64.5141 48.6694 64.4607 48.61 64.4223C48.5505 64.3839 48.482 64.362 48.4114 64.3587C48.3384 64.363 48.2677 64.3852 48.2053 64.4233C48.143 64.4614 48.0909 64.5142 48.0538 64.5772Z" fill="#00693C"/>
<path d="M58.2271 35.0452H57.1355V32.5015C57.1355 28.2144 53.544 25.2203 48.4023 25.2203C43.2601 25.2203 39.6691 28.2144 39.6691 32.5015V35.0452H38.5775C37.9986 35.0457 37.4436 35.276 37.0343 35.6853C36.625 36.0946 36.3947 36.6496 36.3942 37.2285V51.4199C36.3948 51.9987 36.6251 52.5537 37.0344 52.963C37.4437 53.3723 37.9986 53.6025 38.5775 53.6032H58.2271C58.8059 53.6024 59.3608 53.3722 59.7701 52.9629C60.1794 52.5536 60.4097 51.9987 60.4104 51.4199V37.2285C60.4098 36.6496 60.1795 36.0947 59.7702 35.6854C59.3609 35.2761 58.806 35.0458 58.2271 35.0452ZM41.8524 32.5015C41.8524 28.9798 45.1423 27.4036 48.4023 27.4036C51.6623 27.4036 54.9522 28.9798 54.9522 32.5015V35.0452H41.8524V32.5015ZM38.5775 51.4199V37.2285H58.2271L58.2293 51.4199H38.5775Z" fill="#00693C"/>
</svg>
